%TF.GenerationSoftware,KiCad,Pcbnew,(5.99.0-7706-gdc1c80beb8)*%
%TF.CreationDate,2020-12-31T13:50:12+03:00*%
%TF.ProjectId,USBtoCANFD,55534274-6f43-4414-9e46-442e6b696361,rev?*%
%TF.SameCoordinates,Original*%
%TF.FileFunction,Legend,Bot*%
%TF.FilePolarity,Positive*%
%FSLAX46Y46*%
G04 Gerber Fmt 4.6, Leading zero omitted, Abs format (unit mm)*
G04 Created by KiCad (PCBNEW (5.99.0-7706-gdc1c80beb8)) date 2020-12-31 13:50:12*
%MOMM*%
%LPD*%
G01*
G04 APERTURE LIST*
%ADD10C,0.150000*%
%ADD11C,0.120000*%
G04 APERTURE END LIST*
D10*
X146750000Y-85488095D02*
X146797619Y-85583333D01*
X146797619Y-85726190D01*
X146750000Y-85869047D01*
X146654761Y-85964285D01*
X146559523Y-86011904D01*
X146369047Y-86059523D01*
X146226190Y-86059523D01*
X146035714Y-86011904D01*
X145940476Y-85964285D01*
X145845238Y-85869047D01*
X145797619Y-85726190D01*
X145797619Y-85630952D01*
X145845238Y-85488095D01*
X145892857Y-85440476D01*
X146226190Y-85440476D01*
X146226190Y-85630952D01*
X151178571Y-86130952D02*
X151178571Y-85369047D01*
X148678571Y-86130952D02*
X148678571Y-85369047D01*
X148297619Y-85750000D02*
X149059523Y-85750000D01*
X154047619Y-85511904D02*
X154047619Y-85988095D01*
X153571428Y-86035714D01*
X153619047Y-85988095D01*
X153666666Y-85892857D01*
X153666666Y-85654761D01*
X153619047Y-85559523D01*
X153571428Y-85511904D01*
X153476190Y-85464285D01*
X153238095Y-85464285D01*
X153142857Y-85511904D01*
X153095238Y-85559523D01*
X153047619Y-85654761D01*
X153047619Y-85892857D01*
X153095238Y-85988095D01*
X153142857Y-86035714D01*
X154440476Y-81702380D02*
X154773809Y-81226190D01*
X155011904Y-81702380D02*
X155011904Y-80702380D01*
X154630952Y-80702380D01*
X154535714Y-80750000D01*
X154488095Y-80797619D01*
X154440476Y-80892857D01*
X154440476Y-81035714D01*
X154488095Y-81130952D01*
X154535714Y-81178571D01*
X154630952Y-81226190D01*
X155011904Y-81226190D01*
X154440476Y-77857142D02*
X154488095Y-77904761D01*
X154630952Y-77952380D01*
X154726190Y-77952380D01*
X154869047Y-77904761D01*
X154964285Y-77809523D01*
X155011904Y-77714285D01*
X155059523Y-77523809D01*
X155059523Y-77380952D01*
X155011904Y-77190476D01*
X154964285Y-77095238D01*
X154869047Y-77000000D01*
X154726190Y-76952380D01*
X154630952Y-76952380D01*
X154488095Y-77000000D01*
X154440476Y-77047619D01*
X154488095Y-83000000D02*
X154583333Y-82952380D01*
X154726190Y-82952380D01*
X154869047Y-83000000D01*
X154964285Y-83095238D01*
X155011904Y-83190476D01*
X155059523Y-83380952D01*
X155059523Y-83523809D01*
X155011904Y-83714285D01*
X154964285Y-83809523D01*
X154869047Y-83904761D01*
X154726190Y-83952380D01*
X154630952Y-83952380D01*
X154488095Y-83904761D01*
X154440476Y-83857142D01*
X154440476Y-83523809D01*
X154630952Y-83523809D01*
X154750000Y-79702380D02*
X154750000Y-78702380D01*
%TO.C,JP1*%
X147603571Y-74892857D02*
X147651190Y-75035714D01*
X147698809Y-75083333D01*
X147794047Y-75130952D01*
X147936904Y-75130952D01*
X148032142Y-75083333D01*
X148079761Y-75035714D01*
X148127380Y-74940476D01*
X148127380Y-74559523D01*
X147127380Y-74559523D01*
X147127380Y-74892857D01*
X147175000Y-74988095D01*
X147222619Y-75035714D01*
X147317857Y-75083333D01*
X147413095Y-75083333D01*
X147508333Y-75035714D01*
X147555952Y-74988095D01*
X147603571Y-74892857D01*
X147603571Y-74559523D01*
X147127380Y-75750000D02*
X147127380Y-75940476D01*
X147175000Y-76035714D01*
X147270238Y-76130952D01*
X147460714Y-76178571D01*
X147794047Y-76178571D01*
X147984523Y-76130952D01*
X148079761Y-76035714D01*
X148127380Y-75940476D01*
X148127380Y-75750000D01*
X148079761Y-75654761D01*
X147984523Y-75559523D01*
X147794047Y-75511904D01*
X147460714Y-75511904D01*
X147270238Y-75559523D01*
X147175000Y-75654761D01*
X147127380Y-75750000D01*
X147127380Y-76797619D02*
X147127380Y-76988095D01*
X147175000Y-77083333D01*
X147270238Y-77178571D01*
X147460714Y-77226190D01*
X147794047Y-77226190D01*
X147984523Y-77178571D01*
X148079761Y-77083333D01*
X148127380Y-76988095D01*
X148127380Y-76797619D01*
X148079761Y-76702380D01*
X147984523Y-76607142D01*
X147794047Y-76559523D01*
X147460714Y-76559523D01*
X147270238Y-76607142D01*
X147175000Y-76702380D01*
X147127380Y-76797619D01*
X147127380Y-77511904D02*
X147127380Y-78083333D01*
X148127380Y-77797619D02*
X147127380Y-77797619D01*
%TO.C,JP2*%
X141602380Y-80697619D02*
X141126190Y-80364285D01*
X141602380Y-80126190D02*
X140602380Y-80126190D01*
X140602380Y-80507142D01*
X140650000Y-80602380D01*
X140697619Y-80650000D01*
X140792857Y-80697619D01*
X140935714Y-80697619D01*
X141030952Y-80650000D01*
X141078571Y-80602380D01*
X141126190Y-80507142D01*
X141126190Y-80126190D01*
X141078571Y-81126190D02*
X141078571Y-81459523D01*
X141602380Y-81602380D02*
X141602380Y-81126190D01*
X140602380Y-81126190D01*
X140602380Y-81602380D01*
X141554761Y-81983333D02*
X141602380Y-82126190D01*
X141602380Y-82364285D01*
X141554761Y-82459523D01*
X141507142Y-82507142D01*
X141411904Y-82554761D01*
X141316666Y-82554761D01*
X141221428Y-82507142D01*
X141173809Y-82459523D01*
X141126190Y-82364285D01*
X141078571Y-82173809D01*
X141030952Y-82078571D01*
X140983333Y-82030952D01*
X140888095Y-81983333D01*
X140792857Y-81983333D01*
X140697619Y-82030952D01*
X140650000Y-82078571D01*
X140602380Y-82173809D01*
X140602380Y-82411904D01*
X140650000Y-82554761D01*
X141078571Y-82983333D02*
X141078571Y-83316666D01*
X141602380Y-83459523D02*
X141602380Y-82983333D01*
X140602380Y-82983333D01*
X140602380Y-83459523D01*
X140602380Y-83745238D02*
X140602380Y-84316666D01*
X141602380Y-84030952D02*
X140602380Y-84030952D01*
D11*
%TO.C,JP1*%
X144775000Y-75550000D02*
X144775000Y-76950000D01*
X146075000Y-74850000D02*
X145475000Y-74850000D01*
X146775000Y-76950000D02*
X146775000Y-75550000D01*
X145475000Y-77650000D02*
X146075000Y-77650000D01*
X145475000Y-74850000D02*
G75*
G03*
X144775000Y-75550000I0J-700000D01*
G01*
X146075000Y-77650000D02*
G75*
G03*
X146775000Y-76950000I0J700000D01*
G01*
X144775000Y-76950000D02*
G75*
G03*
X145475000Y-77650000I700000J0D01*
G01*
X146775000Y-75550000D02*
G75*
G03*
X146075000Y-74850000I-700000J0D01*
G01*
%TO.C,JP2*%
X143350000Y-80750000D02*
X142750000Y-80750000D01*
X144050000Y-82850000D02*
X144050000Y-81450000D01*
X142750000Y-83550000D02*
X143350000Y-83550000D01*
X142050000Y-81450000D02*
X142050000Y-82850000D01*
X142050000Y-82850000D02*
G75*
G03*
X142750000Y-83550000I700000J0D01*
G01*
X144050000Y-81450000D02*
G75*
G03*
X143350000Y-80750000I-700000J0D01*
G01*
X142750000Y-80750000D02*
G75*
G03*
X142050000Y-81450000I0J-700000D01*
G01*
X143350000Y-83550000D02*
G75*
G03*
X144050000Y-82850000I0J700000D01*
G01*
%TO.C,J3*%
G36*
X154500000Y-77550000D02*
G01*
X154250000Y-77350000D01*
X154500000Y-77150000D01*
X154500000Y-77550000D01*
G37*
%TO.C,J4*%
X152540000Y-88930000D02*
X152540000Y-86270000D01*
X155140000Y-88930000D02*
X155140000Y-87600000D01*
X152540000Y-86270000D02*
X144860000Y-86270000D01*
X152540000Y-88930000D02*
X144860000Y-88930000D01*
X153810000Y-88930000D02*
X155140000Y-88930000D01*
X144860000Y-88930000D02*
X144860000Y-86270000D01*
%TD*%
M02*
