%TF.GenerationSoftware,KiCad,Pcbnew,(5.99.0-7706-gdc1c80beb8)*%
%TF.CreationDate,2020-12-31T13:50:11+03:00*%
%TF.ProjectId,USBtoCANFD,55534274-6f43-4414-9e46-442e6b696361,rev?*%
%TF.SameCoordinates,Original*%
%TF.FileFunction,Copper,L1,Top*%
%TF.FilePolarity,Positive*%
%FSLAX46Y46*%
G04 Gerber Fmt 4.6, Leading zero omitted, Abs format (unit mm)*
G04 Created by KiCad (PCBNEW (5.99.0-7706-gdc1c80beb8)) date 2020-12-31 13:50:11*
%MOMM*%
%LPD*%
G01*
G04 APERTURE LIST*
G04 Aperture macros list*
%AMRoundRect*
0 Rectangle with rounded corners*
0 $1 Rounding radius*
0 $2 $3 $4 $5 $6 $7 $8 $9 X,Y pos of 4 corners*
0 Add a 4 corners polygon primitive as box body*
4,1,4,$2,$3,$4,$5,$6,$7,$8,$9,$2,$3,0*
0 Add four circle primitives for the rounded corners*
1,1,$1+$1,$2,$3,0*
1,1,$1+$1,$4,$5,0*
1,1,$1+$1,$6,$7,0*
1,1,$1+$1,$8,$9,0*
0 Add four rect primitives between the rounded corners*
20,1,$1+$1,$2,$3,$4,$5,0*
20,1,$1+$1,$4,$5,$6,$7,0*
20,1,$1+$1,$6,$7,$8,$9,0*
20,1,$1+$1,$8,$9,$2,$3,0*%
G04 Aperture macros list end*
%TA.AperFunction,SMDPad,CuDef*%
%ADD10RoundRect,0.050000X-0.250000X0.150000X-0.250000X-0.150000X0.250000X-0.150000X0.250000X0.150000X0*%
%TD*%
%TA.AperFunction,SMDPad,CuDef*%
%ADD11RoundRect,0.050000X0.200000X-0.150000X0.200000X0.150000X-0.200000X0.150000X-0.200000X-0.150000X0*%
%TD*%
%TA.AperFunction,SMDPad,CuDef*%
%ADD12RoundRect,0.325000X0.325000X1.925000X-0.325000X1.925000X-0.325000X-1.925000X0.325000X-1.925000X0*%
%TD*%
%TA.AperFunction,SMDPad,CuDef*%
%ADD13RoundRect,0.199800X0.700200X1.750200X-0.700200X1.750200X-0.700200X-1.750200X0.700200X-1.750200X0*%
%TD*%
%TA.AperFunction,SMDPad,CuDef*%
%ADD14RoundRect,0.075000X-0.662500X-0.075000X0.662500X-0.075000X0.662500X0.075000X-0.662500X0.075000X0*%
%TD*%
%TA.AperFunction,SMDPad,CuDef*%
%ADD15RoundRect,0.075000X-0.075000X-0.662500X0.075000X-0.662500X0.075000X0.662500X-0.075000X0.662500X0*%
%TD*%
%TA.AperFunction,SMDPad,CuDef*%
%ADD16RoundRect,0.055000X0.220000X0.345000X-0.220000X0.345000X-0.220000X-0.345000X0.220000X-0.345000X0*%
%TD*%
%TA.AperFunction,SMDPad,CuDef*%
%ADD17RoundRect,0.050000X-0.200000X0.150000X-0.200000X-0.150000X0.200000X-0.150000X0.200000X0.150000X0*%
%TD*%
%TA.AperFunction,SMDPad,CuDef*%
%ADD18RoundRect,0.040000X0.210000X-0.160000X0.210000X0.160000X-0.210000X0.160000X-0.210000X-0.160000X0*%
%TD*%
%TA.AperFunction,SMDPad,CuDef*%
%ADD19R,0.550000X0.800000*%
%TD*%
%TA.AperFunction,SMDPad,CuDef*%
%ADD20RoundRect,0.050000X0.150000X0.200000X-0.150000X0.200000X-0.150000X-0.200000X0.150000X-0.200000X0*%
%TD*%
%TA.AperFunction,SMDPad,CuDef*%
%ADD21RoundRect,0.050000X-0.150000X-0.200000X0.150000X-0.200000X0.150000X0.200000X-0.150000X0.200000X0*%
%TD*%
%TA.AperFunction,SMDPad,CuDef*%
%ADD22RoundRect,0.200200X0.449800X-0.149800X0.449800X0.149800X-0.449800X0.149800X-0.449800X-0.149800X0*%
%TD*%
%TA.AperFunction,SMDPad,CuDef*%
%ADD23RoundRect,0.200250X0.249750X-0.174750X0.249750X0.174750X-0.249750X0.174750X-0.249750X-0.174750X0*%
%TD*%
%TA.AperFunction,SMDPad,CuDef*%
%ADD24RoundRect,0.040000X-0.160000X-0.210000X0.160000X-0.210000X0.160000X0.210000X-0.160000X0.210000X0*%
%TD*%
%TA.AperFunction,SMDPad,CuDef*%
%ADD25RoundRect,0.040000X0.160000X0.210000X-0.160000X0.210000X-0.160000X-0.210000X0.160000X-0.210000X0*%
%TD*%
%TA.AperFunction,SMDPad,CuDef*%
%ADD26R,0.350000X0.650000*%
%TD*%
%TA.AperFunction,SMDPad,CuDef*%
%ADD27R,2.400000X1.550000*%
%TD*%
%TA.AperFunction,SMDPad,CuDef*%
%ADD28RoundRect,0.040000X-0.210000X0.160000X-0.210000X-0.160000X0.210000X-0.160000X0.210000X0.160000X0*%
%TD*%
%TA.AperFunction,SMDPad,CuDef*%
%ADD29RoundRect,0.060000X0.140000X-0.190000X0.140000X0.190000X-0.140000X0.190000X-0.140000X-0.190000X0*%
%TD*%
%TA.AperFunction,SMDPad,CuDef*%
%ADD30C,0.200000*%
%TD*%
%TA.AperFunction,ConnectorPad*%
%ADD31RoundRect,0.100500X0.649500X-4.149500X0.649500X4.149500X-0.649500X4.149500X-0.649500X-4.149500X0*%
%TD*%
%TA.AperFunction,ConnectorPad*%
%ADD32RoundRect,0.100100X0.449900X-3.774900X0.449900X3.774900X-0.449900X3.774900X-0.449900X-3.774900X0*%
%TD*%
%TA.AperFunction,ComponentPad*%
%ADD33R,1.700000X1.700000*%
%TD*%
%TA.AperFunction,ComponentPad*%
%ADD34O,1.700000X1.700000*%
%TD*%
%TA.AperFunction,ViaPad*%
%ADD35C,0.500000*%
%TD*%
%TA.AperFunction,Conductor*%
%ADD36C,0.150000*%
%TD*%
%TA.AperFunction,Conductor*%
%ADD37C,0.250000*%
%TD*%
G04 APERTURE END LIST*
D10*
%TO.P,D1,1,A1*%
%TO.N,GND*%
X153425000Y-84850000D03*
%TO.P,D1,2,A2*%
%TO.N,USB_D-*%
X153425000Y-85750000D03*
%TD*%
D11*
%TO.P,C3,1*%
%TO.N,+3V3*%
X154324999Y-84700000D03*
%TO.P,C3,2*%
%TO.N,GND*%
X154324999Y-83800000D03*
%TD*%
%TO.P,C1,1*%
%TO.N,+5V*%
X157225000Y-84700000D03*
%TO.P,C1,2*%
%TO.N,GND*%
X157225000Y-83800000D03*
%TD*%
D12*
%TO.P,J2,1,Pin_1*%
%TO.N,GND*%
X154200000Y-73650000D03*
%TO.P,J2,2,Pin_2*%
%TO.N,CAN+*%
X151700000Y-73650000D03*
%TO.P,J2,3,Pin_3*%
%TO.N,CAN-*%
X149200000Y-73650000D03*
D13*
%TO.P,J2,MP,MountPin*%
%TO.N,GND*%
X157400000Y-66650000D03*
X146000000Y-66650000D03*
%TD*%
D14*
%TO.P,U3,1,VBAT*%
%TO.N,+3V3*%
X143412500Y-78450000D03*
%TO.P,U3,2,PC13*%
%TO.N,STATUS_LED*%
X143412500Y-78950000D03*
%TO.P,U3,3,PC14-OSC32_IN(PC14)*%
%TO.N,Net-(U3-Pad3)*%
X143412500Y-79450000D03*
%TO.P,U3,4,PC15-OSC32_OUT(PC15)*%
%TO.N,Net-(U3-Pad4)*%
X143412500Y-79950000D03*
%TO.P,U3,5,PH0-OSC_IN(PH0)*%
%TO.N,Net-(U3-Pad5)*%
X143412500Y-80450000D03*
%TO.P,U3,6,PH1-OSC_OUT(PH1)*%
%TO.N,Net-(U3-Pad6)*%
X143412500Y-80950000D03*
%TO.P,U3,7,NRST*%
%TO.N,nRST*%
X143412500Y-81450000D03*
%TO.P,U3,8,VSSA/VREF-*%
%TO.N,GND*%
X143412500Y-81950000D03*
%TO.P,U3,9,VDDA/VREF+*%
%TO.N,+3V3*%
X143412500Y-82450000D03*
%TO.P,U3,10,PA0*%
%TO.N,Net-(U3-Pad10)*%
X143412500Y-82950000D03*
%TO.P,U3,11,PA1*%
%TO.N,Net-(U3-Pad11)*%
X143412500Y-83450000D03*
%TO.P,U3,12,PA2*%
%TO.N,Net-(U3-Pad12)*%
X143412500Y-83950000D03*
D15*
%TO.P,U3,13,PA3*%
%TO.N,Net-(U3-Pad13)*%
X144825000Y-85362500D03*
%TO.P,U3,14,PA4*%
%TO.N,Net-(U3-Pad14)*%
X145325000Y-85362500D03*
%TO.P,U3,15,PA5*%
%TO.N,Net-(U3-Pad15)*%
X145825000Y-85362500D03*
%TO.P,U3,16,PA6*%
%TO.N,Net-(U3-Pad16)*%
X146325000Y-85362500D03*
%TO.P,U3,17,PA7*%
%TO.N,Net-(U3-Pad17)*%
X146825000Y-85362500D03*
%TO.P,U3,18,PB0*%
%TO.N,Net-(U3-Pad18)*%
X147325000Y-85362500D03*
%TO.P,U3,19,PB1*%
%TO.N,Net-(U3-Pad19)*%
X147825000Y-85362500D03*
%TO.P,U3,20,PB2*%
%TO.N,Net-(U3-Pad20)*%
X148325000Y-85362500D03*
%TO.P,U3,21,PB10*%
%TO.N,Net-(U3-Pad21)*%
X148825000Y-85362500D03*
%TO.P,U3,22,PB11*%
%TO.N,Net-(U3-Pad22)*%
X149325000Y-85362500D03*
%TO.P,U3,23,VSS*%
%TO.N,GND*%
X149825000Y-85362500D03*
%TO.P,U3,24,VDD*%
%TO.N,+3V3*%
X150325000Y-85362500D03*
D14*
%TO.P,U3,25,PB12*%
%TO.N,Net-(U3-Pad25)*%
X151737500Y-83950000D03*
%TO.P,U3,26,PB13*%
%TO.N,Net-(U3-Pad26)*%
X151737500Y-83450000D03*
%TO.P,U3,27,PB14*%
%TO.N,Net-(U3-Pad27)*%
X151737500Y-82950000D03*
%TO.P,U3,28,PB15*%
%TO.N,Net-(U3-Pad28)*%
X151737500Y-82450000D03*
%TO.P,U3,29,PA8*%
%TO.N,Net-(U3-Pad29)*%
X151737500Y-81950000D03*
%TO.P,U3,30,PA9*%
%TO.N,Net-(U3-Pad30)*%
X151737500Y-81450000D03*
%TO.P,U3,31,PA10*%
%TO.N,Net-(U3-Pad31)*%
X151737500Y-80950000D03*
%TO.P,U3,32,PA11*%
%TO.N,USB_D-*%
X151737500Y-80450000D03*
%TO.P,U3,33,PA12*%
%TO.N,USB_D+*%
X151737500Y-79950000D03*
%TO.P,U3,34,PA13(JTMS/SWDIO)*%
%TO.N,SWD_IO*%
X151737500Y-79450000D03*
%TO.P,U3,35,VSS*%
%TO.N,GND*%
X151737500Y-78950000D03*
%TO.P,U3,36,VDD*%
%TO.N,+3V3*%
X151737500Y-78450000D03*
D15*
%TO.P,U3,37,PA14(JTCK/SWCLK)*%
%TO.N,SWD_CLK*%
X150325000Y-77037500D03*
%TO.P,U3,38,PA15(JTDI)*%
%TO.N,Net-(U3-Pad38)*%
X149825000Y-77037500D03*
%TO.P,U3,39,PB3(JTDO/TRACESWO)*%
%TO.N,Net-(U3-Pad39)*%
X149325000Y-77037500D03*
%TO.P,U3,40,PB4(NJTRST)*%
%TO.N,Net-(U3-Pad40)*%
X148825000Y-77037500D03*
%TO.P,U3,41,PB5*%
%TO.N,Net-(U3-Pad41)*%
X148325000Y-77037500D03*
%TO.P,U3,42,PB6*%
%TO.N,Net-(U3-Pad42)*%
X147825000Y-77037500D03*
%TO.P,U3,43,PB7*%
%TO.N,CAN_EN*%
X147325000Y-77037500D03*
%TO.P,U3,44,PH3-BOOT0*%
%TO.N,Net-(U3-Pad44)*%
X146825000Y-77037500D03*
%TO.P,U3,45,PB8*%
%TO.N,CAN_RX*%
X146325000Y-77037500D03*
%TO.P,U3,46,PB9*%
%TO.N,CAN_TX*%
X145825000Y-77037500D03*
%TO.P,U3,47,VSS*%
%TO.N,GND*%
X145325000Y-77037500D03*
%TO.P,U3,48,VDD*%
%TO.N,+3V3*%
X144825000Y-77037500D03*
%TD*%
D16*
%TO.P,R1,1*%
%TO.N,Net-(R1-Pad1)*%
X153050000Y-76650000D03*
%TO.P,R1,2*%
%TO.N,CAN+*%
X151700000Y-76650000D03*
%TD*%
D17*
%TO.P,C6,1*%
%TO.N,+3V3*%
X142075000Y-82525000D03*
%TO.P,C6,2*%
%TO.N,GND*%
X142075000Y-83425000D03*
%TD*%
D18*
%TO.P,R5,1*%
%TO.N,Net-(U3-Pad44)*%
X147525000Y-75425000D03*
%TO.P,R5,2*%
%TO.N,+3V3*%
X147525000Y-74525000D03*
%TD*%
D19*
%TO.P,FB1,1*%
%TO.N,Net-(C4-Pad1)*%
X145025000Y-75225000D03*
%TO.P,FB1,2*%
%TO.N,+5V*%
X146375000Y-75225000D03*
%TD*%
D20*
%TO.P,C9,1*%
%TO.N,+3V3*%
X144025000Y-76400000D03*
%TO.P,C9,2*%
%TO.N,GND*%
X143125000Y-76400000D03*
%TD*%
D21*
%TO.P,C8,1*%
%TO.N,+3V3*%
X151700000Y-77600000D03*
%TO.P,C8,2*%
%TO.N,GND*%
X152600000Y-77600000D03*
%TD*%
D22*
%TO.P,SW1,1,A*%
%TO.N,Net-(SW1-Pad1)*%
X153575000Y-78800000D03*
%TO.P,SW1,2,B*%
%TO.N,Net-(R1-Pad1)*%
X153575000Y-79800000D03*
%TO.P,SW1,3,C*%
%TO.N,CAN-*%
X153575000Y-80800000D03*
D23*
%TO.P,SW1,MP,MP*%
%TO.N,GND*%
X156725000Y-76825000D03*
X154525000Y-76825000D03*
X154525000Y-82775000D03*
X156725000Y-82775000D03*
%TD*%
D24*
%TO.P,R3,1*%
%TO.N,Net-(D3-PadGK)*%
X142825000Y-67975000D03*
%TO.P,R3,2*%
%TO.N,GND*%
X143725000Y-67975000D03*
%TD*%
D11*
%TO.P,C2,1*%
%TO.N,+3V3*%
X155025000Y-84700000D03*
%TO.P,C2,2*%
%TO.N,GND*%
X155025000Y-83800000D03*
%TD*%
D25*
%TO.P,R2,1*%
%TO.N,+3V3*%
X143725000Y-68775000D03*
%TO.P,R2,2*%
%TO.N,Net-(D3-PadRA)*%
X142825000Y-68775000D03*
%TD*%
D17*
%TO.P,C5,1*%
%TO.N,+3V3*%
X146000000Y-71050000D03*
%TO.P,C5,2*%
%TO.N,GND*%
X146000000Y-71950000D03*
%TD*%
D26*
%TO.P,U2,1,TXD*%
%TO.N,CAN_TX*%
X142825000Y-73950000D03*
%TO.P,U2,2,VSS*%
%TO.N,GND*%
X143475000Y-73950000D03*
%TO.P,U2,3,VDD*%
%TO.N,Net-(C4-Pad1)*%
X144125000Y-73950000D03*
%TO.P,U2,4,RXD*%
%TO.N,CAN_RX*%
X144775000Y-73950000D03*
%TO.P,U2,5,Vio*%
%TO.N,+3V3*%
X144775000Y-70850000D03*
%TO.P,U2,6,CANL*%
%TO.N,CAN-*%
X144125000Y-70850000D03*
%TO.P,U2,7,CANH*%
%TO.N,CAN+*%
X143475000Y-70850000D03*
%TO.P,U2,8,SHDN*%
%TO.N,CAN_EN*%
X142825000Y-70850000D03*
D27*
%TO.P,U2,9,PAD*%
%TO.N,GND*%
X143800000Y-72400000D03*
%TD*%
D11*
%TO.P,C7,1*%
%TO.N,+3V3*%
X151675000Y-85750000D03*
%TO.P,C7,2*%
%TO.N,GND*%
X151675000Y-84850000D03*
%TD*%
D20*
%TO.P,C10,1*%
%TO.N,+3V3*%
X143425000Y-77600000D03*
%TO.P,C10,2*%
%TO.N,GND*%
X142525000Y-77600000D03*
%TD*%
D28*
%TO.P,R4,1*%
%TO.N,+3V3*%
X142075001Y-79375000D03*
%TO.P,R4,2*%
%TO.N,nRST*%
X142075001Y-80275000D03*
%TD*%
D29*
%TO.P,D3,GA,1*%
%TO.N,STATUS_LED*%
X143625000Y-65975000D03*
%TO.P,D3,GK,2*%
%TO.N,Net-(D3-PadGK)*%
X143625000Y-67175000D03*
%TO.P,D3,RA,3*%
%TO.N,Net-(D3-PadRA)*%
X142925000Y-65975000D03*
%TO.P,D3,RK,4*%
%TO.N,STATUS_LED*%
X142925000Y-67175000D03*
%TD*%
D30*
%TO.P,U1,A1,IN*%
%TO.N,+5V*%
X156300000Y-84425000D03*
%TO.P,U1,A2,OUT*%
%TO.N,+3V3*%
X155950000Y-84425000D03*
%TO.P,U1,B1,EN*%
%TO.N,+5V*%
X156300000Y-84075000D03*
%TO.P,U1,B2,GND*%
%TO.N,GND*%
X155950000Y-84075000D03*
%TD*%
D17*
%TO.P,C11,1*%
%TO.N,nRST*%
X142075000Y-80950000D03*
%TO.P,C11,2*%
%TO.N,GND*%
X142075000Y-81850000D03*
%TD*%
D20*
%TO.P,C4,1*%
%TO.N,Net-(C4-Pad1)*%
X144075000Y-74875000D03*
%TO.P,C4,2*%
%TO.N,GND*%
X143175000Y-74875000D03*
%TD*%
D31*
%TO.P,J1,1,Pin_1*%
%TO.N,+5V*%
X153810000Y-95150000D03*
D32*
%TO.P,J1,2,Pin_2*%
%TO.N,USB_D-*%
X151270000Y-94775000D03*
%TO.P,J1,3,Pin_3*%
%TO.N,USB_D+*%
X148730000Y-94775000D03*
D31*
%TO.P,J1,4,Pin_4*%
%TO.N,GND*%
X146190000Y-95150000D03*
%TD*%
D10*
%TO.P,D2,1,A1*%
%TO.N,GND*%
X152525000Y-84850000D03*
%TO.P,D2,2,A2*%
%TO.N,USB_D+*%
X152525000Y-85750000D03*
%TD*%
D33*
%TO.P,J4,1,Pin_1*%
%TO.N,+5V*%
X153810000Y-87600000D03*
D34*
%TO.P,J4,2,Pin_2*%
%TO.N,USB_D-*%
X151270000Y-87600000D03*
%TO.P,J4,3,Pin_3*%
%TO.N,USB_D+*%
X148730000Y-87600000D03*
%TO.P,J4,4,Pin_4*%
%TO.N,GND*%
X146190000Y-87600000D03*
%TD*%
D35*
%TO.N,GND*%
X150570000Y-80870000D03*
X158000000Y-72500000D03*
X153350000Y-65350000D03*
X154736030Y-81858781D03*
X145700010Y-80670000D03*
X147450000Y-68700000D03*
X147533366Y-80737154D03*
X144660000Y-83180000D03*
X147500000Y-82010000D03*
X156050000Y-65350000D03*
X148990000Y-80610000D03*
X158000000Y-84950000D03*
X158000000Y-75700000D03*
X155450000Y-87850000D03*
X146000000Y-72525000D03*
X143540000Y-75380000D03*
X157150000Y-77700000D03*
X147450000Y-65350000D03*
X144875000Y-82050000D03*
X150233091Y-83225569D03*
X144400000Y-65350000D03*
X150600000Y-65350000D03*
X154200000Y-70800000D03*
X142075000Y-84125000D03*
X144335000Y-67975000D03*
X158000000Y-69100000D03*
X148690000Y-83220000D03*
X150750000Y-70300000D03*
X142625000Y-76900000D03*
X146730000Y-83220000D03*
X145325000Y-78150000D03*
X155400000Y-83100000D03*
X148630000Y-79390000D03*
X147530000Y-78270000D03*
X149710000Y-78290000D03*
X155635000Y-76825000D03*
X150970000Y-85140000D03*
X148710000Y-82050000D03*
X150550000Y-82020000D03*
X157130000Y-81960000D03*
%TO.N,+5V*%
X155600000Y-75175000D03*
X146350000Y-74400000D03*
%TO.N,+3V3*%
X147525000Y-73925000D03*
X154325000Y-85350000D03*
X145950000Y-82625000D03*
X146320000Y-70460000D03*
X144300000Y-68775000D03*
X150500000Y-78325000D03*
%TO.N,USB_D-*%
X150000000Y-83870000D03*
%TO.N,USB_D+*%
X149320403Y-83883199D03*
%TO.N,CAN-*%
X149750000Y-70400000D03*
X148850000Y-71000000D03*
%TO.N,CAN_EN*%
X142825000Y-70125000D03*
X145370000Y-70520000D03*
%TO.N,STATUS_LED*%
X144476492Y-78975010D03*
X142081265Y-78306265D03*
%TO.N,Net-(U3-Pad44)*%
X146825000Y-78250000D03*
%TO.N,nRST*%
X146520000Y-81320000D03*
X144500000Y-81450000D03*
X148420000Y-81370000D03*
%TO.N,SWD_IO*%
X150625000Y-79400000D03*
%TO.N,SWD_CLK*%
X150850000Y-76350000D03*
%TD*%
D36*
%TO.N,GND*%
X154200000Y-73650000D02*
X155950000Y-73650000D01*
X153425000Y-84850000D02*
X152525000Y-84850000D01*
X154525000Y-83599999D02*
X154324999Y-83800000D01*
X154525000Y-76825000D02*
X155635000Y-76825000D01*
X155400000Y-83425000D02*
X155025000Y-83800000D01*
X157300000Y-87850000D02*
X155450000Y-87850000D01*
X155300000Y-84075000D02*
X155025000Y-83800000D01*
X154525000Y-82775000D02*
X154525000Y-82069811D01*
X148630000Y-79390000D02*
X148630000Y-79370000D01*
X155950000Y-73650000D02*
X158000000Y-75700000D01*
X154200000Y-73650000D02*
X154200000Y-70800000D01*
X150728002Y-78800002D02*
X145975002Y-78800002D01*
X156725000Y-82775000D02*
X156725000Y-82365000D01*
X142350000Y-71193214D02*
X143556786Y-72400000D01*
X148690000Y-83220000D02*
X146730000Y-83220000D01*
X142944782Y-69400000D02*
X142500000Y-69400000D01*
X142075000Y-83425000D02*
X142075000Y-84125000D01*
X154200000Y-73650000D02*
X157400000Y-70450000D01*
X146000000Y-71950000D02*
X146000000Y-72525000D01*
X154324999Y-83950001D02*
X153425000Y-84850000D01*
X154525000Y-76825000D02*
X154525000Y-73975000D01*
X154324999Y-83800000D02*
X154324999Y-83950001D01*
X156725000Y-76825000D02*
X156725000Y-82775000D01*
X149825000Y-85362500D02*
X149825000Y-86024280D01*
X149825000Y-86024280D02*
X149324281Y-86524999D01*
X148710000Y-82050000D02*
X147540000Y-82050000D01*
X152700000Y-77700000D02*
X152600000Y-77600000D01*
X155725000Y-82775000D02*
X155400000Y-83100000D01*
X143556786Y-72400000D02*
X143800000Y-72400000D01*
X147540000Y-82050000D02*
X147500000Y-82010000D01*
X144775000Y-81950000D02*
X144875000Y-82050000D01*
X150878000Y-78950000D02*
X150728002Y-78800002D01*
X146000000Y-71950000D02*
X144250000Y-71950000D01*
X143412500Y-81950000D02*
X142175000Y-81950000D01*
X143412500Y-81950000D02*
X144775000Y-81950000D01*
X158000000Y-84950000D02*
X158000000Y-87150000D01*
X151737500Y-78950000D02*
X152450000Y-78950000D01*
X144250000Y-71950000D02*
X143800000Y-72400000D01*
X148630000Y-79370000D02*
X149710000Y-78290000D01*
X151675000Y-84850000D02*
X151260000Y-84850000D01*
X150550000Y-82908660D02*
X150233091Y-83225569D01*
X154525000Y-82069811D02*
X154736030Y-81858781D01*
X145325000Y-77037500D02*
X145325000Y-78150000D01*
X150125730Y-84399990D02*
X151224990Y-84399990D01*
X147660520Y-80610000D02*
X147533366Y-80737154D01*
X156725000Y-76825000D02*
X155635000Y-76825000D01*
X157400000Y-66650000D02*
X146000000Y-66650000D01*
X152700000Y-78700000D02*
X152700000Y-77700000D01*
X143250010Y-68449990D02*
X143250010Y-69094772D01*
X150550000Y-82020000D02*
X150550000Y-82908660D01*
X149825000Y-85362500D02*
X149825000Y-84700720D01*
X155025000Y-83800000D02*
X154324999Y-83800000D01*
X152450000Y-78950000D02*
X152700000Y-78700000D01*
X150550000Y-80890000D02*
X150570000Y-80870000D01*
X151260000Y-84850000D02*
X150970000Y-85140000D01*
X144335000Y-67975000D02*
X144675000Y-67975000D01*
X143475000Y-74575000D02*
X143475000Y-73950000D01*
X156725000Y-82365000D02*
X157130000Y-81960000D01*
X143250010Y-69094772D02*
X142944782Y-69400000D01*
X143475000Y-72725000D02*
X143800000Y-72400000D01*
X157400000Y-70450000D02*
X157400000Y-66650000D01*
X143175000Y-75015000D02*
X143540000Y-75380000D01*
X154525000Y-82775000D02*
X154525000Y-83599999D01*
X151737500Y-78950000D02*
X150878000Y-78950000D01*
X148990000Y-80610000D02*
X147660520Y-80610000D01*
X142175000Y-81950000D02*
X142075000Y-81850000D01*
D37*
X143725000Y-67975000D02*
X144335000Y-67975000D01*
D36*
X154525000Y-73975000D02*
X154200000Y-73650000D01*
X144675000Y-67975000D02*
X146000000Y-66650000D01*
X156725000Y-82775000D02*
X155725000Y-82775000D01*
X145975002Y-78800002D02*
X145325000Y-78150000D01*
X155950000Y-84075000D02*
X155300000Y-84075000D01*
X151675000Y-84850000D02*
X152525000Y-84850000D01*
X142500000Y-69400000D02*
X142350000Y-69550000D01*
X143175000Y-74875000D02*
X143175000Y-75015000D01*
X147450000Y-65350000D02*
X147450000Y-68700000D01*
X155400000Y-83100000D02*
X155400000Y-83425000D01*
X143725000Y-67975000D02*
X143250010Y-68449990D01*
X151224990Y-84399990D02*
X151675000Y-84850000D01*
X150550000Y-82020000D02*
X150550000Y-80890000D01*
X142350000Y-69550000D02*
X142350000Y-71193214D01*
X156050000Y-65350000D02*
X153350000Y-65350000D01*
X156725000Y-83300000D02*
X157225000Y-83800000D01*
X158000000Y-87150000D02*
X157300000Y-87850000D01*
X143175000Y-74875000D02*
X143475000Y-74575000D01*
X143475000Y-73950000D02*
X143475000Y-72725000D01*
X149825000Y-84700720D02*
X150125730Y-84399990D01*
X150600000Y-65350000D02*
X147450000Y-65350000D01*
X156725000Y-82775000D02*
X156725000Y-83300000D01*
D37*
X146190000Y-95150000D02*
X146190000Y-87600000D01*
D36*
X147265001Y-86524999D02*
X146190000Y-87600000D01*
X142525000Y-77600000D02*
X142525000Y-77000000D01*
X149324281Y-86524999D02*
X147265001Y-86524999D01*
X158000000Y-72500000D02*
X158000000Y-69100000D01*
X142525000Y-77000000D02*
X143125000Y-76400000D01*
D37*
%TO.N,+5V*%
X156475000Y-75175000D02*
X157750010Y-76450010D01*
X146350000Y-75200000D02*
X146375000Y-75225000D01*
X157225000Y-84700000D02*
X157750010Y-84174990D01*
X157750010Y-84174990D02*
X157750010Y-76450010D01*
X156600000Y-84075000D02*
X157225000Y-84700000D01*
X157099989Y-84825011D02*
X155709623Y-84825011D01*
X157225000Y-84700000D02*
X157099989Y-84825011D01*
D36*
X156300000Y-84425000D02*
X156950000Y-84425000D01*
D37*
X153810000Y-95150000D02*
X153810000Y-87600000D01*
D36*
X156300000Y-84075000D02*
X156600000Y-84075000D01*
D37*
X155709623Y-84825011D02*
X153810000Y-86724634D01*
X153810000Y-86724634D02*
X153810000Y-87600000D01*
D36*
X156950000Y-84425000D02*
X157225000Y-84700000D01*
D37*
X146350000Y-74400000D02*
X146350000Y-75200000D01*
X155600000Y-75175000D02*
X156475000Y-75175000D01*
X156950000Y-84425000D02*
X156325001Y-84425000D01*
X156600000Y-84075000D02*
X156325001Y-84075000D01*
%TO.N,+3V3*%
X151737500Y-78450000D02*
X151737500Y-77637500D01*
X146000000Y-71050000D02*
X146000000Y-70780000D01*
X145175000Y-81400000D02*
X145950000Y-82175000D01*
X144975000Y-71050000D02*
X144775000Y-70850000D01*
X144319992Y-82625000D02*
X144144992Y-82450000D01*
X144187500Y-76400000D02*
X144825000Y-77037500D01*
X144775000Y-78450000D02*
X145175000Y-78850000D01*
X143412500Y-78450000D02*
X144775000Y-78450000D01*
X154324999Y-84700000D02*
X154324999Y-85349999D01*
D36*
X155950000Y-84425000D02*
X155735000Y-84425000D01*
D37*
X142680008Y-78450000D02*
X142075001Y-79055007D01*
D36*
X154324999Y-84738923D02*
X154324999Y-84700000D01*
D37*
X143725000Y-68775000D02*
X144300000Y-68775000D01*
X150625000Y-78450000D02*
X150500000Y-78325000D01*
D36*
X153788912Y-85275010D02*
X154324999Y-84738923D01*
D37*
X155025000Y-84700000D02*
X155300000Y-84425000D01*
X151675000Y-85750000D02*
X150410000Y-85750000D01*
X143412500Y-77612500D02*
X143425000Y-77600000D01*
X145950000Y-82175000D02*
X145950000Y-82625000D01*
X146000000Y-70780000D02*
X146320000Y-70460000D01*
D36*
X151675000Y-85750000D02*
X152149990Y-85275010D01*
D37*
X145175000Y-78850000D02*
X145175000Y-81400000D01*
X144025000Y-77000000D02*
X143425000Y-77600000D01*
X147525000Y-73925000D02*
X147525000Y-72575000D01*
X144025000Y-76400000D02*
X144025000Y-77000000D01*
X155300000Y-84425000D02*
X155735000Y-84425000D01*
X143412500Y-82450000D02*
X142150000Y-82450000D01*
X144025000Y-76400000D02*
X144187500Y-76400000D01*
X145950000Y-82625000D02*
X144319992Y-82625000D01*
X151737500Y-77637500D02*
X151700000Y-77600000D01*
D36*
X152149990Y-85275010D02*
X153788912Y-85275010D01*
D37*
X144144992Y-82450000D02*
X143412500Y-82450000D01*
X142150000Y-82450000D02*
X142075000Y-82525000D01*
X151737500Y-78450000D02*
X150625000Y-78450000D01*
X146000000Y-71050000D02*
X144975000Y-71050000D01*
X142075001Y-79055007D02*
X142075001Y-79375000D01*
X147525000Y-73925000D02*
X147525000Y-74525000D01*
X150410000Y-85750000D02*
X150325000Y-85665000D01*
X143412500Y-78450000D02*
X143412500Y-77612500D01*
X155025000Y-84700000D02*
X154324999Y-84700000D01*
X143412500Y-78450000D02*
X142680008Y-78450000D01*
X150325000Y-85665000D02*
X150325000Y-85362500D01*
X154324999Y-85349999D02*
X154325000Y-85350000D01*
X147525000Y-72575000D02*
X146000000Y-71050000D01*
D36*
%TO.N,USB_D-*%
X153425000Y-85750000D02*
X151575000Y-87600000D01*
X151575000Y-87600000D02*
X151270000Y-87600000D01*
X151270000Y-94775000D02*
X151270000Y-87600000D01*
X149758090Y-83628090D02*
X150000000Y-83870000D01*
X151737500Y-80450000D02*
X151682498Y-80394998D01*
X149758090Y-81008906D02*
X149758090Y-83628090D01*
X151682498Y-80394998D02*
X150371998Y-80394998D01*
X150371998Y-80394998D02*
X149758090Y-81008906D01*
%TO.N,USB_D+*%
X148730000Y-94775000D02*
X148730000Y-87600000D01*
X152525000Y-85750000D02*
X151800001Y-86474999D01*
X151737500Y-79950000D02*
X150362717Y-79950000D01*
X151800001Y-86474999D02*
X149855001Y-86474999D01*
X150362717Y-79950000D02*
X149320403Y-80992314D01*
X149855001Y-86474999D02*
X148730000Y-87600000D01*
X149320403Y-80992314D02*
X149320403Y-83883199D01*
%TO.N,CAN-*%
X146672270Y-69684987D02*
X149200000Y-72212717D01*
X153775940Y-80800000D02*
X154750021Y-79825919D01*
X144125000Y-70850000D02*
X144125000Y-70681786D01*
X149200000Y-71350000D02*
X148850000Y-71000000D01*
X153550010Y-76125010D02*
X152625010Y-75200010D01*
X153575000Y-80800000D02*
X153775940Y-80800000D01*
X152625010Y-75200010D02*
X152625010Y-71478216D01*
X154750021Y-78075931D02*
X153550010Y-76875920D01*
X144125000Y-70681786D02*
X145121799Y-69684987D01*
X149200000Y-73650000D02*
X149200000Y-71350000D01*
X149200000Y-72212717D02*
X149200000Y-73650000D01*
X149750000Y-70400000D02*
X150426603Y-71076603D01*
X153550010Y-76875920D02*
X153550010Y-76125010D01*
X145121799Y-69684987D02*
X146672270Y-69684987D01*
X152625010Y-71478216D02*
X152223397Y-71076603D01*
X150426603Y-71076603D02*
X152223397Y-71076603D01*
X154750021Y-79825919D02*
X154750021Y-78075931D01*
%TO.N,CAN+*%
X143475000Y-70611076D02*
X144701100Y-69384976D01*
X144701100Y-69384976D02*
X147984922Y-69384976D01*
X147984922Y-69384976D02*
X151700000Y-73100054D01*
X151700000Y-76650000D02*
X151700000Y-73650000D01*
X143475000Y-70850000D02*
X143475000Y-70611076D01*
X151700000Y-73100054D02*
X151700000Y-73650000D01*
%TO.N,Net-(R1-Pad1)*%
X154450010Y-78200198D02*
X153050000Y-76800188D01*
X153900000Y-79800000D02*
X154450010Y-79249990D01*
X154450010Y-79249990D02*
X154450010Y-78200198D01*
X153050000Y-76800188D02*
X153050000Y-76650000D01*
X153575000Y-79800000D02*
X153900000Y-79800000D01*
%TO.N,CAN_EN*%
X148000010Y-71437006D02*
X146548002Y-69984998D01*
X145905002Y-69984998D02*
X145370000Y-70520000D01*
X147325000Y-76369782D02*
X148000010Y-75694772D01*
X146548002Y-69984998D02*
X145905002Y-69984998D01*
X148000010Y-75694772D02*
X148000010Y-71437006D01*
X147325000Y-77037500D02*
X147325000Y-76369782D01*
X142825000Y-70125000D02*
X142825000Y-70850000D01*
%TO.N,STATUS_LED*%
X143625000Y-65975000D02*
X143625000Y-65941934D01*
X143625000Y-66441934D02*
X142925000Y-67141934D01*
X142925000Y-67141934D02*
X142925000Y-67175000D01*
X143625000Y-65975000D02*
X143625000Y-66441934D01*
X143625000Y-65941934D02*
X143158066Y-65475000D01*
X142691934Y-65475000D02*
X142050000Y-66116934D01*
X142050000Y-66116934D02*
X142050000Y-78275000D01*
X144451482Y-78950000D02*
X144476492Y-78975010D01*
X142050000Y-78275000D02*
X142081265Y-78306265D01*
X143158066Y-65475000D02*
X142691934Y-65475000D01*
X143412500Y-78950000D02*
X144451482Y-78950000D01*
%TO.N,Net-(D3-PadRA)*%
X142399990Y-66500010D02*
X142399990Y-68349990D01*
X142925000Y-65975000D02*
X142399990Y-66500010D01*
X142399990Y-68349990D02*
X142825000Y-68775000D01*
%TO.N,CAN_TX*%
X145825000Y-77037500D02*
X145825000Y-76179281D01*
X142749990Y-75282994D02*
X142749990Y-74025010D01*
X142749990Y-74025010D02*
X142825000Y-73950000D01*
X143321998Y-75855002D02*
X142749990Y-75282994D01*
X145825000Y-76179281D02*
X145500721Y-75855002D01*
X145500721Y-75855002D02*
X143321998Y-75855002D01*
%TO.N,CAN_RX*%
X145200000Y-73950000D02*
X145750000Y-74500000D01*
X144775000Y-73950000D02*
X145200000Y-73950000D01*
X145750000Y-74500000D02*
X145750000Y-74975000D01*
X146325000Y-76255002D02*
X146325000Y-77037500D01*
X145750000Y-74975000D02*
X145750000Y-75680002D01*
X145750000Y-75680002D02*
X146325000Y-76255002D01*
%TO.N,Net-(U3-Pad44)*%
X146825000Y-77037500D02*
X146825000Y-76125000D01*
X146825000Y-76125000D02*
X147525000Y-75425000D01*
X146825000Y-77037500D02*
X146825000Y-78250000D01*
%TO.N,Net-(D3-PadGK)*%
X143625000Y-67175000D02*
X143625000Y-67330218D01*
X143625000Y-67330218D02*
X142980218Y-67975000D01*
X142980218Y-67975000D02*
X142825000Y-67975000D01*
%TO.N,nRST*%
X142575000Y-81450000D02*
X142075000Y-80950000D01*
X142075001Y-80275000D02*
X142075001Y-80949999D01*
X146570000Y-81370000D02*
X148420000Y-81370000D01*
X143412500Y-81450000D02*
X142575000Y-81450000D01*
X146520000Y-81320000D02*
X146570000Y-81370000D01*
X143412500Y-81450000D02*
X144500000Y-81450000D01*
X142075001Y-80949999D02*
X142075000Y-80950000D01*
%TO.N,SWD_IO*%
X150625000Y-79400000D02*
X151687500Y-79400000D01*
X151687500Y-79400000D02*
X151737500Y-79450000D01*
%TO.N,SWD_CLK*%
X150325000Y-77037500D02*
X150325000Y-76875000D01*
X150325000Y-76875000D02*
X150850000Y-76350000D01*
D37*
%TO.N,Net-(C4-Pad1)*%
X144675000Y-74875000D02*
X145025000Y-75225000D01*
X144125000Y-73950000D02*
X144125000Y-74825000D01*
X144075000Y-74875000D02*
X144675000Y-74875000D01*
X144125000Y-74825000D02*
X144075000Y-74875000D01*
%TD*%
%TA.AperFunction,Conductor*%
%TO.N,GND*%
G36*
X158065835Y-64652293D02*
G01*
X158065903Y-64651898D01*
X158070683Y-64652718D01*
X158075316Y-64654155D01*
X158080163Y-64654344D01*
X158122839Y-64656009D01*
X158131516Y-64656862D01*
X158135644Y-64657515D01*
X158146948Y-64660228D01*
X158150640Y-64661427D01*
X158200341Y-64677576D01*
X158220967Y-64688086D01*
X158264161Y-64719468D01*
X158280531Y-64735837D01*
X158311917Y-64779036D01*
X158322425Y-64799661D01*
X158339775Y-64853059D01*
X158342483Y-64864340D01*
X158342923Y-64867116D01*
X158343139Y-64868479D01*
X158343992Y-64877160D01*
X158345845Y-64924684D01*
X158347282Y-64929316D01*
X158348102Y-64934098D01*
X158347707Y-64934166D01*
X158350000Y-64949293D01*
X158350000Y-86451977D01*
X158347118Y-86472427D01*
X158345366Y-86478521D01*
X158343424Y-86585144D01*
X158343249Y-86589023D01*
X158339890Y-86635996D01*
X158338196Y-86659675D01*
X158337632Y-86664926D01*
X158324877Y-86753640D01*
X158309662Y-86859469D01*
X158309661Y-86859473D01*
X158308725Y-86864661D01*
X158296762Y-86919654D01*
X158295455Y-86924773D01*
X158240080Y-87113360D01*
X158238413Y-87118370D01*
X158218757Y-87171073D01*
X158216741Y-87175940D01*
X158163496Y-87292532D01*
X158135074Y-87354767D01*
X158132717Y-87359476D01*
X158105744Y-87408874D01*
X158103076Y-87413369D01*
X158016515Y-87548063D01*
X157996796Y-87578746D01*
X157993783Y-87583085D01*
X157960066Y-87628126D01*
X157956759Y-87632231D01*
X157898038Y-87700000D01*
X157828041Y-87780781D01*
X157824441Y-87784647D01*
X157784643Y-87824445D01*
X157780780Y-87828041D01*
X157632240Y-87956752D01*
X157628147Y-87960050D01*
X157598748Y-87982059D01*
X157583100Y-87993772D01*
X157578763Y-87996784D01*
X157552939Y-88013380D01*
X157413387Y-88103065D01*
X157408853Y-88105755D01*
X157408843Y-88105761D01*
X157359496Y-88132706D01*
X157354773Y-88135070D01*
X157175940Y-88216740D01*
X157171061Y-88218761D01*
X157161077Y-88222485D01*
X157118355Y-88238420D01*
X157113390Y-88240071D01*
X156924781Y-88295453D01*
X156919662Y-88296760D01*
X156864667Y-88308723D01*
X156859469Y-88309661D01*
X156664925Y-88337632D01*
X156659674Y-88338196D01*
X156641600Y-88339489D01*
X156589027Y-88343249D01*
X156585142Y-88343424D01*
X156478521Y-88345366D01*
X156473859Y-88346706D01*
X156473856Y-88346707D01*
X156472427Y-88347118D01*
X156451977Y-88350000D01*
X156128401Y-88350000D01*
X156109582Y-88347522D01*
X156109412Y-88347522D01*
X156100000Y-88345000D01*
X156053719Y-88357401D01*
X156022500Y-88365766D01*
X155965766Y-88422500D01*
X155963245Y-88431910D01*
X155959696Y-88445153D01*
X155930662Y-88486618D01*
X155888218Y-88500000D01*
X154889500Y-88500000D01*
X154841934Y-88482687D01*
X154816624Y-88438850D01*
X154815500Y-88426000D01*
X154815500Y-86750000D01*
X154807573Y-86710147D01*
X154805085Y-86697640D01*
X154805084Y-86697638D01*
X154803663Y-86690493D01*
X154769955Y-86640045D01*
X154719507Y-86606337D01*
X154712362Y-86604916D01*
X154712360Y-86604915D01*
X154663570Y-86595210D01*
X154663569Y-86595210D01*
X154660000Y-86594500D01*
X154508401Y-86594500D01*
X154497849Y-86590659D01*
X155348062Y-86590659D01*
X155348637Y-86594005D01*
X155348637Y-86594006D01*
X155353533Y-86622498D01*
X155383873Y-86799065D01*
X155457063Y-86997456D01*
X155565181Y-87179186D01*
X155567412Y-87181730D01*
X155567415Y-87181734D01*
X155624842Y-87247217D01*
X155704606Y-87338170D01*
X155707265Y-87340267D01*
X155707267Y-87340268D01*
X155764294Y-87385224D01*
X155870670Y-87469084D01*
X156057809Y-87567543D01*
X156061048Y-87568549D01*
X156061051Y-87568550D01*
X156252985Y-87628147D01*
X156259758Y-87630250D01*
X156403861Y-87647305D01*
X156428681Y-87650243D01*
X156428682Y-87650243D01*
X156430853Y-87650500D01*
X156554414Y-87650500D01*
X156556098Y-87650345D01*
X156556104Y-87650345D01*
X156629919Y-87643562D01*
X156710573Y-87636151D01*
X156713831Y-87635232D01*
X156713837Y-87635231D01*
X156910829Y-87579673D01*
X156910831Y-87579672D01*
X156914094Y-87578752D01*
X157103747Y-87485226D01*
X157106459Y-87483201D01*
X157106462Y-87483199D01*
X157270459Y-87360736D01*
X157270460Y-87360735D01*
X157273180Y-87358704D01*
X157376238Y-87247217D01*
X157414413Y-87205920D01*
X157414414Y-87205918D01*
X157416720Y-87203424D01*
X157437132Y-87171073D01*
X157527748Y-87027455D01*
X157527749Y-87027453D01*
X157529558Y-87024586D01*
X157534034Y-87013368D01*
X157606658Y-86831334D01*
X157606659Y-86831331D01*
X157607916Y-86828180D01*
X157610393Y-86815731D01*
X157648509Y-86624107D01*
X157648509Y-86624105D01*
X157649170Y-86620783D01*
X157650661Y-86506899D01*
X157651894Y-86412734D01*
X157651894Y-86412729D01*
X157651938Y-86409341D01*
X157616127Y-86200935D01*
X157542937Y-86002544D01*
X157434819Y-85820814D01*
X157432588Y-85818270D01*
X157432585Y-85818266D01*
X157352075Y-85726462D01*
X157295394Y-85661830D01*
X157129330Y-85530916D01*
X156942191Y-85432457D01*
X156938952Y-85431451D01*
X156938949Y-85431450D01*
X156743482Y-85370756D01*
X156743481Y-85370756D01*
X156740242Y-85369750D01*
X156573372Y-85350000D01*
X156571319Y-85349757D01*
X156571318Y-85349757D01*
X156569147Y-85349500D01*
X156445586Y-85349500D01*
X156443902Y-85349655D01*
X156443896Y-85349655D01*
X156370081Y-85356438D01*
X156289427Y-85363849D01*
X156286169Y-85364768D01*
X156286163Y-85364769D01*
X156089171Y-85420327D01*
X156089169Y-85420328D01*
X156085906Y-85421248D01*
X155896253Y-85514774D01*
X155893541Y-85516799D01*
X155893538Y-85516801D01*
X155797727Y-85588347D01*
X155726820Y-85641296D01*
X155583280Y-85796576D01*
X155581466Y-85799451D01*
X155504462Y-85921496D01*
X155470442Y-85975414D01*
X155469186Y-85978561D01*
X155469185Y-85978564D01*
X155396142Y-86161649D01*
X155392084Y-86171820D01*
X155391422Y-86175147D01*
X155391421Y-86175151D01*
X155359339Y-86336439D01*
X155350830Y-86379217D01*
X155349741Y-86462403D01*
X155348135Y-86585119D01*
X155348062Y-86590659D01*
X154497849Y-86590659D01*
X154460835Y-86577187D01*
X154435525Y-86533350D01*
X154444315Y-86483500D01*
X154456075Y-86468174D01*
X155100524Y-85823726D01*
X155802065Y-85122185D01*
X155847942Y-85100793D01*
X155854391Y-85100511D01*
X157067569Y-85100511D01*
X157082006Y-85101933D01*
X157099989Y-85105510D01*
X157107138Y-85104088D01*
X157107139Y-85104088D01*
X157125117Y-85100512D01*
X157125125Y-85100511D01*
X157125128Y-85100511D01*
X157125133Y-85100510D01*
X157200185Y-85085581D01*
X157200187Y-85085580D01*
X157207332Y-85084159D01*
X157239042Y-85062971D01*
X157280154Y-85050500D01*
X157450135Y-85050500D01*
X157453704Y-85049790D01*
X157453705Y-85049790D01*
X157496494Y-85041279D01*
X157496496Y-85041278D01*
X157503641Y-85039857D01*
X157570310Y-84995310D01*
X157614857Y-84928641D01*
X157625500Y-84875136D01*
X157625500Y-84719767D01*
X157642813Y-84672201D01*
X157647174Y-84667441D01*
X157777604Y-84537012D01*
X157921893Y-84392723D01*
X157933107Y-84383520D01*
X157942293Y-84377382D01*
X157948353Y-84373333D01*
X157962590Y-84352026D01*
X157962594Y-84352022D01*
X158005110Y-84288391D01*
X158009158Y-84282333D01*
X158010699Y-84274589D01*
X158011459Y-84270765D01*
X158025510Y-84200127D01*
X158025510Y-84200123D01*
X158029087Y-84182140D01*
X158030509Y-84174991D01*
X158026932Y-84157007D01*
X158025510Y-84142571D01*
X158025510Y-76482428D01*
X158026932Y-76467991D01*
X158029087Y-76457158D01*
X158030509Y-76450009D01*
X158025510Y-76424878D01*
X158025510Y-76424873D01*
X158009158Y-76342667D01*
X157972082Y-76287179D01*
X157962592Y-76272976D01*
X157962590Y-76272974D01*
X157962588Y-76272971D01*
X157952404Y-76257729D01*
X157952403Y-76257728D01*
X157948353Y-76251667D01*
X157933106Y-76241479D01*
X157921893Y-76232277D01*
X156692735Y-75003120D01*
X156683532Y-74991906D01*
X156677392Y-74982717D01*
X156673343Y-74976657D01*
X156582343Y-74915852D01*
X156567818Y-74912963D01*
X156500144Y-74899501D01*
X156500139Y-74899500D01*
X156500136Y-74899500D01*
X156500128Y-74899499D01*
X156482150Y-74895923D01*
X156482149Y-74895923D01*
X156475000Y-74894501D01*
X156467851Y-74895923D01*
X156457017Y-74898078D01*
X156442580Y-74899500D01*
X155921555Y-74899500D01*
X155873989Y-74882187D01*
X155869229Y-74877826D01*
X155838347Y-74846944D01*
X155833164Y-74844303D01*
X155833161Y-74844301D01*
X155730496Y-74791991D01*
X155730494Y-74791990D01*
X155725306Y-74789347D01*
X155600000Y-74769500D01*
X155474694Y-74789347D01*
X155469506Y-74791990D01*
X155469504Y-74791991D01*
X155366839Y-74844301D01*
X155366836Y-74844303D01*
X155361653Y-74846944D01*
X155271944Y-74936653D01*
X155269303Y-74941836D01*
X155269301Y-74941839D01*
X155216991Y-75044504D01*
X155214347Y-75049694D01*
X155194500Y-75175000D01*
X155214347Y-75300306D01*
X155216990Y-75305494D01*
X155216991Y-75305496D01*
X155269301Y-75408161D01*
X155269303Y-75408164D01*
X155271944Y-75413347D01*
X155361653Y-75503056D01*
X155366836Y-75505697D01*
X155366839Y-75505699D01*
X155469504Y-75558009D01*
X155469506Y-75558010D01*
X155474694Y-75560653D01*
X155600000Y-75580500D01*
X155725306Y-75560653D01*
X155730494Y-75558010D01*
X155730496Y-75558009D01*
X155833161Y-75505699D01*
X155833164Y-75505697D01*
X155838347Y-75503056D01*
X155869229Y-75472174D01*
X155915105Y-75450782D01*
X155921555Y-75450500D01*
X156330233Y-75450500D01*
X156377799Y-75467813D01*
X156382559Y-75472174D01*
X157452837Y-76542453D01*
X157474229Y-76588330D01*
X157474511Y-76594779D01*
X157474510Y-84030222D01*
X157457197Y-84077788D01*
X157452836Y-84082548D01*
X157277326Y-84258058D01*
X157231450Y-84279450D01*
X157182555Y-84266349D01*
X157172674Y-84258058D01*
X157167733Y-84253117D01*
X157158531Y-84241904D01*
X157152393Y-84232718D01*
X157148343Y-84226657D01*
X157133094Y-84216468D01*
X157121880Y-84207265D01*
X156817735Y-83903120D01*
X156808532Y-83891906D01*
X156798343Y-83876657D01*
X156707343Y-83815852D01*
X156692818Y-83812963D01*
X156625144Y-83799501D01*
X156625139Y-83799500D01*
X156625136Y-83799500D01*
X156625128Y-83799499D01*
X156607150Y-83795923D01*
X156607149Y-83795923D01*
X156600000Y-83794501D01*
X156592851Y-83795923D01*
X156582017Y-83798078D01*
X156567580Y-83799500D01*
X156299864Y-83799500D01*
X156296295Y-83800210D01*
X156296294Y-83800210D01*
X156242895Y-83810832D01*
X156217658Y-83815852D01*
X156126658Y-83876657D01*
X156065853Y-83967657D01*
X156063950Y-83977222D01*
X156063468Y-83977126D01*
X156063467Y-83977128D01*
X156063949Y-83977224D01*
X156044500Y-84075000D01*
X156046359Y-84084344D01*
X156045922Y-84087182D01*
X156045922Y-84089437D01*
X156045575Y-84089437D01*
X156038660Y-84134372D01*
X156000604Y-84167749D01*
X155964437Y-84170913D01*
X155964437Y-84170922D01*
X155964337Y-84170922D01*
X155959345Y-84171359D01*
X155950000Y-84169500D01*
X155942851Y-84170922D01*
X155936854Y-84172115D01*
X155901310Y-84179185D01*
X155855375Y-84172115D01*
X155855137Y-84172690D01*
X155852788Y-84171717D01*
X155851280Y-84171485D01*
X155849243Y-84170249D01*
X155848401Y-84169900D01*
X155842343Y-84165852D01*
X155835198Y-84164431D01*
X155835196Y-84164430D01*
X155763707Y-84150210D01*
X155763706Y-84150210D01*
X155760137Y-84149500D01*
X155332420Y-84149500D01*
X155317983Y-84148078D01*
X155307149Y-84145923D01*
X155300000Y-84144501D01*
X155282016Y-84148078D01*
X155274872Y-84149499D01*
X155274864Y-84149500D01*
X155274861Y-84149500D01*
X155274856Y-84149501D01*
X155199804Y-84164430D01*
X155199802Y-84164431D01*
X155192657Y-84165852D01*
X155163753Y-84185165D01*
X155122966Y-84212418D01*
X155122964Y-84212420D01*
X155117460Y-84216098D01*
X155101657Y-84226657D01*
X155097608Y-84232717D01*
X155097606Y-84232719D01*
X155091471Y-84241902D01*
X155082268Y-84253117D01*
X155007558Y-84327826D01*
X154961681Y-84349218D01*
X154955232Y-84349500D01*
X154799865Y-84349500D01*
X154796296Y-84350210D01*
X154796295Y-84350210D01*
X154753506Y-84358721D01*
X154753504Y-84358722D01*
X154746359Y-84360143D01*
X154740302Y-84364190D01*
X154740300Y-84364191D01*
X154716113Y-84380353D01*
X154666945Y-84392385D01*
X154633888Y-84380354D01*
X154609698Y-84364191D01*
X154609699Y-84364191D01*
X154603640Y-84360143D01*
X154596495Y-84358722D01*
X154596493Y-84358721D01*
X154553705Y-84350210D01*
X154553704Y-84350210D01*
X154550135Y-84349500D01*
X154099864Y-84349500D01*
X154096295Y-84350210D01*
X154096294Y-84350210D01*
X154053505Y-84358721D01*
X154053503Y-84358722D01*
X154046358Y-84360143D01*
X153979689Y-84404690D01*
X153935142Y-84471359D01*
X153933721Y-84478504D01*
X153933720Y-84478506D01*
X153931216Y-84491094D01*
X153924499Y-84524864D01*
X153924499Y-84789866D01*
X153907186Y-84837432D01*
X153902825Y-84842192D01*
X153717182Y-85027836D01*
X153671306Y-85049228D01*
X153664856Y-85049510D01*
X152157125Y-85049510D01*
X152153252Y-85049409D01*
X152121698Y-85047755D01*
X152113932Y-85047348D01*
X152106670Y-85050136D01*
X152106668Y-85050136D01*
X152091197Y-85056075D01*
X152080062Y-85059374D01*
X152056237Y-85064438D01*
X152049361Y-85069434D01*
X152032385Y-85078651D01*
X152024450Y-85081697D01*
X152024175Y-85081920D01*
X152007041Y-85099054D01*
X151998211Y-85106596D01*
X151991251Y-85111653D01*
X151978695Y-85120775D01*
X151974806Y-85127511D01*
X151974515Y-85128014D01*
X151962756Y-85143339D01*
X151843843Y-85262253D01*
X151728270Y-85377826D01*
X151682394Y-85399218D01*
X151675944Y-85399500D01*
X151449865Y-85399500D01*
X151446296Y-85400210D01*
X151446295Y-85400210D01*
X151403506Y-85408721D01*
X151403504Y-85408722D01*
X151396359Y-85410143D01*
X151390300Y-85414191D01*
X151390301Y-85414191D01*
X151339954Y-85447832D01*
X151329690Y-85454690D01*
X151329661Y-85454646D01*
X151287689Y-85474218D01*
X151281239Y-85474500D01*
X150699500Y-85474500D01*
X150651934Y-85457187D01*
X150626624Y-85413350D01*
X150625500Y-85400500D01*
X150625500Y-84674864D01*
X150624790Y-84671294D01*
X150614376Y-84618938D01*
X150614375Y-84618936D01*
X150612954Y-84611791D01*
X150562988Y-84537012D01*
X150539465Y-84521294D01*
X150494267Y-84491094D01*
X150494268Y-84491094D01*
X150488209Y-84487046D01*
X150481064Y-84485625D01*
X150481062Y-84485624D01*
X150428706Y-84475210D01*
X150428705Y-84475210D01*
X150425136Y-84474500D01*
X150224864Y-84474500D01*
X150221295Y-84475210D01*
X150221294Y-84475210D01*
X150168938Y-84485624D01*
X150168936Y-84485625D01*
X150161791Y-84487046D01*
X150155732Y-84491094D01*
X150155733Y-84491094D01*
X150110536Y-84521294D01*
X150087012Y-84537012D01*
X150037046Y-84611791D01*
X150035625Y-84618936D01*
X150035624Y-84618938D01*
X150025210Y-84671294D01*
X150024500Y-84674864D01*
X150024500Y-86050136D01*
X150025210Y-86053705D01*
X150025210Y-86053706D01*
X150035624Y-86106062D01*
X150035625Y-86106064D01*
X150037046Y-86113209D01*
X150041093Y-86119266D01*
X150041094Y-86119268D01*
X150051196Y-86134386D01*
X150063228Y-86183554D01*
X150040841Y-86228953D01*
X149989668Y-86249499D01*
X149862145Y-86249499D01*
X149858272Y-86249398D01*
X149826710Y-86247744D01*
X149818943Y-86247337D01*
X149796203Y-86256066D01*
X149785077Y-86259362D01*
X149761248Y-86264427D01*
X149754375Y-86269421D01*
X149737399Y-86278638D01*
X149729462Y-86281685D01*
X149729187Y-86281908D01*
X149712052Y-86299043D01*
X149703222Y-86306585D01*
X149683706Y-86320764D01*
X149679817Y-86327500D01*
X149679526Y-86328003D01*
X149667767Y-86343328D01*
X149300948Y-86710147D01*
X149255072Y-86731539D01*
X149215951Y-86724218D01*
X149102334Y-86668312D01*
X149080489Y-86657563D01*
X148883827Y-86606336D01*
X148880088Y-86606140D01*
X148684627Y-86595896D01*
X148684624Y-86595896D01*
X148680882Y-86595700D01*
X148479942Y-86626090D01*
X148476427Y-86627383D01*
X148476424Y-86627384D01*
X148304900Y-86690493D01*
X148289218Y-86696263D01*
X148286031Y-86698239D01*
X148119682Y-86801379D01*
X148119679Y-86801381D01*
X148116499Y-86803353D01*
X147968841Y-86942986D01*
X147966695Y-86946051D01*
X147966694Y-86946052D01*
X147913910Y-87021436D01*
X147852277Y-87109457D01*
X147848420Y-87118370D01*
X147779840Y-87276850D01*
X147771567Y-87295967D01*
X147770802Y-87299629D01*
X147770801Y-87299632D01*
X147752921Y-87385219D01*
X147730008Y-87494897D01*
X147729299Y-87698120D01*
X147769468Y-87897334D01*
X147770932Y-87900784D01*
X147770933Y-87900786D01*
X147818727Y-88013380D01*
X147848874Y-88084403D01*
X147964273Y-88251685D01*
X148059079Y-88342600D01*
X148090352Y-88372590D01*
X148112700Y-88418008D01*
X148100626Y-88467166D01*
X148059778Y-88497062D01*
X148039133Y-88500000D01*
X146958390Y-88500000D01*
X146910824Y-88482687D01*
X146885514Y-88438850D01*
X146894304Y-88389000D01*
X146912832Y-88367687D01*
X146914692Y-88366234D01*
X146919915Y-88361260D01*
X147049725Y-88210873D01*
X147053873Y-88204993D01*
X147152004Y-88032250D01*
X147154932Y-88025675D01*
X147217640Y-87837168D01*
X147219237Y-87830144D01*
X147234042Y-87712944D01*
X147231686Y-87702573D01*
X147228295Y-87700000D01*
X146090000Y-87700000D01*
X145157785Y-87699999D01*
X145147789Y-87703637D01*
X145145391Y-87707791D01*
X145152029Y-87786840D01*
X145153330Y-87793927D01*
X145208088Y-87984892D01*
X145210739Y-87991588D01*
X145301547Y-88168282D01*
X145305452Y-88174340D01*
X145428847Y-88330027D01*
X145433853Y-88335211D01*
X145474315Y-88369646D01*
X145499318Y-88413659D01*
X145490180Y-88463446D01*
X145451178Y-88495712D01*
X145426354Y-88500000D01*
X144111782Y-88500000D01*
X144064216Y-88482687D01*
X144040304Y-88445153D01*
X144036755Y-88431910D01*
X144034234Y-88422500D01*
X143977500Y-88365766D01*
X143946281Y-88357401D01*
X143909409Y-88347521D01*
X143909408Y-88347521D01*
X143900000Y-88345000D01*
X143890588Y-88347522D01*
X143890420Y-88347522D01*
X143871599Y-88350000D01*
X143548023Y-88350000D01*
X143527573Y-88347118D01*
X143526144Y-88346707D01*
X143526141Y-88346706D01*
X143521479Y-88345366D01*
X143414856Y-88343424D01*
X143410977Y-88343249D01*
X143351414Y-88338989D01*
X143340325Y-88338196D01*
X143335074Y-88337632D01*
X143237919Y-88323664D01*
X143140521Y-88309660D01*
X143135339Y-88308725D01*
X143080342Y-88296761D01*
X143075227Y-88295455D01*
X142886640Y-88240080D01*
X142881630Y-88238413D01*
X142828938Y-88218761D01*
X142828922Y-88218755D01*
X142824057Y-88216740D01*
X142645231Y-88135073D01*
X142640524Y-88132717D01*
X142591126Y-88105744D01*
X142586631Y-88103076D01*
X142421254Y-87996796D01*
X142416915Y-87993783D01*
X142371874Y-87960066D01*
X142367769Y-87956759D01*
X142219219Y-87828041D01*
X142215353Y-87824441D01*
X142175555Y-87784643D01*
X142171956Y-87780777D01*
X142169020Y-87777389D01*
X142043239Y-87632229D01*
X142039950Y-87628147D01*
X142017441Y-87598080D01*
X142006228Y-87583100D01*
X142003216Y-87578763D01*
X141964907Y-87519153D01*
X141896930Y-87413378D01*
X141894240Y-87408845D01*
X141867294Y-87359496D01*
X141864930Y-87354773D01*
X141783260Y-87175940D01*
X141781239Y-87171061D01*
X141777515Y-87161077D01*
X141761580Y-87118355D01*
X141759929Y-87113390D01*
X141704545Y-86924773D01*
X141703240Y-86919662D01*
X141691277Y-86864667D01*
X141690339Y-86859469D01*
X141662368Y-86664925D01*
X141661804Y-86659674D01*
X141660110Y-86635996D01*
X141656868Y-86590659D01*
X142348062Y-86590659D01*
X142348637Y-86594005D01*
X142348637Y-86594006D01*
X142353533Y-86622498D01*
X142383873Y-86799065D01*
X142457063Y-86997456D01*
X142565181Y-87179186D01*
X142567412Y-87181730D01*
X142567415Y-87181734D01*
X142624842Y-87247217D01*
X142704606Y-87338170D01*
X142707265Y-87340267D01*
X142707267Y-87340268D01*
X142764294Y-87385224D01*
X142870670Y-87469084D01*
X143057809Y-87567543D01*
X143061048Y-87568549D01*
X143061051Y-87568550D01*
X143252985Y-87628147D01*
X143259758Y-87630250D01*
X143403861Y-87647305D01*
X143428681Y-87650243D01*
X143428682Y-87650243D01*
X143430853Y-87650500D01*
X143554414Y-87650500D01*
X143556098Y-87650345D01*
X143556104Y-87650345D01*
X143629919Y-87643562D01*
X143710573Y-87636151D01*
X143713831Y-87635232D01*
X143713837Y-87635231D01*
X143910829Y-87579673D01*
X143910831Y-87579672D01*
X143914094Y-87578752D01*
X144100082Y-87487033D01*
X145146121Y-87487033D01*
X145148623Y-87497372D01*
X145152188Y-87500000D01*
X146076952Y-87500000D01*
X146086948Y-87496362D01*
X146090000Y-87491075D01*
X146090001Y-86567845D01*
X146088004Y-86562356D01*
X146290000Y-86562356D01*
X146290000Y-87486952D01*
X146293638Y-87496948D01*
X146298925Y-87500000D01*
X147222147Y-87500001D01*
X147232143Y-87496363D01*
X147234447Y-87492372D01*
X147225261Y-87398686D01*
X147223862Y-87391618D01*
X147166441Y-87201434D01*
X147163697Y-87194776D01*
X147070431Y-87019367D01*
X147066445Y-87013368D01*
X146940883Y-86859414D01*
X146935812Y-86854307D01*
X146782734Y-86727669D01*
X146776768Y-86723645D01*
X146602012Y-86629155D01*
X146595374Y-86626365D01*
X146405596Y-86567619D01*
X146398536Y-86566170D01*
X146302977Y-86556126D01*
X146292657Y-86558699D01*
X146290000Y-86562356D01*
X146088004Y-86562356D01*
X146086363Y-86557849D01*
X146082291Y-86555499D01*
X145995918Y-86563359D01*
X145988841Y-86564709D01*
X145798261Y-86620799D01*
X145791585Y-86623497D01*
X145615524Y-86715539D01*
X145609503Y-86719480D01*
X145454679Y-86843961D01*
X145449526Y-86849006D01*
X145321833Y-87001186D01*
X145317763Y-87007130D01*
X145222054Y-87181223D01*
X145219218Y-87187840D01*
X145159147Y-87377206D01*
X145157651Y-87384245D01*
X145146121Y-87487033D01*
X144100082Y-87487033D01*
X144103747Y-87485226D01*
X144106459Y-87483201D01*
X144106462Y-87483199D01*
X144270459Y-87360736D01*
X144270460Y-87360735D01*
X144273180Y-87358704D01*
X144376238Y-87247217D01*
X144414413Y-87205920D01*
X144414414Y-87205918D01*
X144416720Y-87203424D01*
X144437132Y-87171073D01*
X144527748Y-87027455D01*
X144527749Y-87027453D01*
X144529558Y-87024586D01*
X144534034Y-87013368D01*
X144606658Y-86831334D01*
X144606659Y-86831331D01*
X144607916Y-86828180D01*
X144610393Y-86815731D01*
X144648509Y-86624107D01*
X144648509Y-86624105D01*
X144649170Y-86620783D01*
X144650661Y-86506899D01*
X144651894Y-86412734D01*
X144651894Y-86412729D01*
X144651938Y-86409341D01*
X144639299Y-86335788D01*
X144648306Y-86285977D01*
X144687224Y-86253609D01*
X144719481Y-86249612D01*
X144721300Y-86249791D01*
X144724864Y-86250500D01*
X144925136Y-86250500D01*
X144928705Y-86249790D01*
X144928706Y-86249790D01*
X144981062Y-86239376D01*
X144981064Y-86239375D01*
X144988209Y-86237954D01*
X145033888Y-86207432D01*
X145083056Y-86195401D01*
X145116112Y-86207432D01*
X145161791Y-86237954D01*
X145168936Y-86239375D01*
X145168938Y-86239376D01*
X145221294Y-86249790D01*
X145221295Y-86249790D01*
X145224864Y-86250500D01*
X145425136Y-86250500D01*
X145428705Y-86249790D01*
X145428706Y-86249790D01*
X145481062Y-86239376D01*
X145481064Y-86239375D01*
X145488209Y-86237954D01*
X145533888Y-86207432D01*
X145583056Y-86195401D01*
X145616112Y-86207432D01*
X145661791Y-86237954D01*
X145668936Y-86239375D01*
X145668938Y-86239376D01*
X145721294Y-86249790D01*
X145721295Y-86249790D01*
X145724864Y-86250500D01*
X145925136Y-86250500D01*
X145928705Y-86249790D01*
X145928706Y-86249790D01*
X145981062Y-86239376D01*
X145981064Y-86239375D01*
X145988209Y-86237954D01*
X146033888Y-86207432D01*
X146083056Y-86195401D01*
X146116112Y-86207432D01*
X146161791Y-86237954D01*
X146168936Y-86239375D01*
X146168938Y-86239376D01*
X146221294Y-86249790D01*
X146221295Y-86249790D01*
X146224864Y-86250500D01*
X146425136Y-86250500D01*
X146428705Y-86249790D01*
X146428706Y-86249790D01*
X146481062Y-86239376D01*
X146481064Y-86239375D01*
X146488209Y-86237954D01*
X146533888Y-86207432D01*
X146583056Y-86195401D01*
X146616112Y-86207432D01*
X146661791Y-86237954D01*
X146668936Y-86239375D01*
X146668938Y-86239376D01*
X146721294Y-86249790D01*
X146721295Y-86249790D01*
X146724864Y-86250500D01*
X146925136Y-86250500D01*
X146928705Y-86249790D01*
X146928706Y-86249790D01*
X146981062Y-86239376D01*
X146981064Y-86239375D01*
X146988209Y-86237954D01*
X147033888Y-86207432D01*
X147083056Y-86195401D01*
X147116112Y-86207432D01*
X147161791Y-86237954D01*
X147168936Y-86239375D01*
X147168938Y-86239376D01*
X147221294Y-86249790D01*
X147221295Y-86249790D01*
X147224864Y-86250500D01*
X147425136Y-86250500D01*
X147428705Y-86249790D01*
X147428706Y-86249790D01*
X147481062Y-86239376D01*
X147481064Y-86239375D01*
X147488209Y-86237954D01*
X147533888Y-86207432D01*
X147583056Y-86195401D01*
X147616112Y-86207432D01*
X147661791Y-86237954D01*
X147668936Y-86239375D01*
X147668938Y-86239376D01*
X147721294Y-86249790D01*
X147721295Y-86249790D01*
X147724864Y-86250500D01*
X147925136Y-86250500D01*
X147928705Y-86249790D01*
X147928706Y-86249790D01*
X147981062Y-86239376D01*
X147981064Y-86239375D01*
X147988209Y-86237954D01*
X148033888Y-86207432D01*
X148083056Y-86195401D01*
X148116112Y-86207432D01*
X148161791Y-86237954D01*
X148168936Y-86239375D01*
X148168938Y-86239376D01*
X148221294Y-86249790D01*
X148221295Y-86249790D01*
X148224864Y-86250500D01*
X148425136Y-86250500D01*
X148428705Y-86249790D01*
X148428706Y-86249790D01*
X148481062Y-86239376D01*
X148481064Y-86239375D01*
X148488209Y-86237954D01*
X148533888Y-86207432D01*
X148583056Y-86195401D01*
X148616112Y-86207432D01*
X148661791Y-86237954D01*
X148668936Y-86239375D01*
X148668938Y-86239376D01*
X148721294Y-86249790D01*
X148721295Y-86249790D01*
X148724864Y-86250500D01*
X148925136Y-86250500D01*
X148928705Y-86249790D01*
X148928706Y-86249790D01*
X148981062Y-86239376D01*
X148981064Y-86239375D01*
X148988209Y-86237954D01*
X149033888Y-86207432D01*
X149083056Y-86195401D01*
X149116112Y-86207432D01*
X149161791Y-86237954D01*
X149168936Y-86239375D01*
X149168938Y-86239376D01*
X149221294Y-86249790D01*
X149221295Y-86249790D01*
X149224864Y-86250500D01*
X149425136Y-86250500D01*
X149428705Y-86249790D01*
X149428706Y-86249790D01*
X149481062Y-86239376D01*
X149481064Y-86239375D01*
X149488209Y-86237954D01*
X149527800Y-86211500D01*
X149556927Y-86192038D01*
X149562988Y-86187988D01*
X149571566Y-86175151D01*
X149608906Y-86119267D01*
X149612954Y-86113209D01*
X149614375Y-86106064D01*
X149614376Y-86106062D01*
X149624790Y-86053706D01*
X149624790Y-86053705D01*
X149625500Y-86050136D01*
X149625500Y-84674864D01*
X149624790Y-84671294D01*
X149614376Y-84618938D01*
X149614375Y-84618936D01*
X149612954Y-84611791D01*
X149562988Y-84537012D01*
X149539465Y-84521294D01*
X149494267Y-84491094D01*
X149494268Y-84491094D01*
X149488209Y-84487046D01*
X149481064Y-84485625D01*
X149481062Y-84485624D01*
X149428706Y-84475210D01*
X149428705Y-84475210D01*
X149425136Y-84474500D01*
X149224864Y-84474500D01*
X149221295Y-84475210D01*
X149221294Y-84475210D01*
X149168938Y-84485624D01*
X149168936Y-84485625D01*
X149161791Y-84487046D01*
X149155732Y-84491094D01*
X149155733Y-84491094D01*
X149116112Y-84517568D01*
X149066944Y-84529599D01*
X149033888Y-84517568D01*
X148994267Y-84491094D01*
X148994268Y-84491094D01*
X148988209Y-84487046D01*
X148981064Y-84485625D01*
X148981062Y-84485624D01*
X148928706Y-84475210D01*
X148928705Y-84475210D01*
X148925136Y-84474500D01*
X148724864Y-84474500D01*
X148721295Y-84475210D01*
X148721294Y-84475210D01*
X148668938Y-84485624D01*
X148668936Y-84485625D01*
X148661791Y-84487046D01*
X148655732Y-84491094D01*
X148655733Y-84491094D01*
X148616112Y-84517568D01*
X148566944Y-84529599D01*
X148533888Y-84517568D01*
X148494267Y-84491094D01*
X148494268Y-84491094D01*
X148488209Y-84487046D01*
X148481064Y-84485625D01*
X148481062Y-84485624D01*
X148428706Y-84475210D01*
X148428705Y-84475210D01*
X148425136Y-84474500D01*
X148224864Y-84474500D01*
X148221295Y-84475210D01*
X148221294Y-84475210D01*
X148168938Y-84485624D01*
X148168936Y-84485625D01*
X148161791Y-84487046D01*
X148155732Y-84491094D01*
X148155733Y-84491094D01*
X148116112Y-84517568D01*
X148066944Y-84529599D01*
X148033888Y-84517568D01*
X147994267Y-84491094D01*
X147994268Y-84491094D01*
X147988209Y-84487046D01*
X147981064Y-84485625D01*
X147981062Y-84485624D01*
X147928706Y-84475210D01*
X147928705Y-84475210D01*
X147925136Y-84474500D01*
X147724864Y-84474500D01*
X147721295Y-84475210D01*
X147721294Y-84475210D01*
X147668938Y-84485624D01*
X147668936Y-84485625D01*
X147661791Y-84487046D01*
X147655732Y-84491094D01*
X147655733Y-84491094D01*
X147616112Y-84517568D01*
X147566944Y-84529599D01*
X147533888Y-84517568D01*
X147494267Y-84491094D01*
X147494268Y-84491094D01*
X147488209Y-84487046D01*
X147481064Y-84485625D01*
X147481062Y-84485624D01*
X147428706Y-84475210D01*
X147428705Y-84475210D01*
X147425136Y-84474500D01*
X147224864Y-84474500D01*
X147221295Y-84475210D01*
X147221294Y-84475210D01*
X147168938Y-84485624D01*
X147168936Y-84485625D01*
X147161791Y-84487046D01*
X147155732Y-84491094D01*
X147155733Y-84491094D01*
X147116112Y-84517568D01*
X147066944Y-84529599D01*
X147033888Y-84517568D01*
X146994267Y-84491094D01*
X146994268Y-84491094D01*
X146988209Y-84487046D01*
X146981064Y-84485625D01*
X146981062Y-84485624D01*
X146928706Y-84475210D01*
X146928705Y-84475210D01*
X146925136Y-84474500D01*
X146724864Y-84474500D01*
X146721295Y-84475210D01*
X146721294Y-84475210D01*
X146668938Y-84485624D01*
X146668936Y-84485625D01*
X146661791Y-84487046D01*
X146655732Y-84491094D01*
X146655733Y-84491094D01*
X146616112Y-84517568D01*
X146566944Y-84529599D01*
X146533888Y-84517568D01*
X146494267Y-84491094D01*
X146494268Y-84491094D01*
X146488209Y-84487046D01*
X146481064Y-84485625D01*
X146481062Y-84485624D01*
X146428706Y-84475210D01*
X146428705Y-84475210D01*
X146425136Y-84474500D01*
X146224864Y-84474500D01*
X146221295Y-84475210D01*
X146221294Y-84475210D01*
X146168938Y-84485624D01*
X146168936Y-84485625D01*
X146161791Y-84487046D01*
X146155732Y-84491094D01*
X146155733Y-84491094D01*
X146116112Y-84517568D01*
X146066944Y-84529599D01*
X146033888Y-84517568D01*
X145994267Y-84491094D01*
X145994268Y-84491094D01*
X145988209Y-84487046D01*
X145981064Y-84485625D01*
X145981062Y-84485624D01*
X145928706Y-84475210D01*
X145928705Y-84475210D01*
X145925136Y-84474500D01*
X145724864Y-84474500D01*
X145721295Y-84475210D01*
X145721294Y-84475210D01*
X145668938Y-84485624D01*
X145668936Y-84485625D01*
X145661791Y-84487046D01*
X145655732Y-84491094D01*
X145655733Y-84491094D01*
X145616112Y-84517568D01*
X145566944Y-84529599D01*
X145533888Y-84517568D01*
X145494267Y-84491094D01*
X145494268Y-84491094D01*
X145488209Y-84487046D01*
X145481064Y-84485625D01*
X145481062Y-84485624D01*
X145428706Y-84475210D01*
X145428705Y-84475210D01*
X145425136Y-84474500D01*
X145224864Y-84474500D01*
X145221295Y-84475210D01*
X145221294Y-84475210D01*
X145168938Y-84485624D01*
X145168936Y-84485625D01*
X145161791Y-84487046D01*
X145155732Y-84491094D01*
X145155733Y-84491094D01*
X145116112Y-84517568D01*
X145066944Y-84529599D01*
X145033888Y-84517568D01*
X144994267Y-84491094D01*
X144994268Y-84491094D01*
X144988209Y-84487046D01*
X144981064Y-84485625D01*
X144981062Y-84485624D01*
X144928706Y-84475210D01*
X144928705Y-84475210D01*
X144925136Y-84474500D01*
X144724864Y-84474500D01*
X144721295Y-84475210D01*
X144721294Y-84475210D01*
X144668938Y-84485624D01*
X144668936Y-84485625D01*
X144661791Y-84487046D01*
X144655732Y-84491094D01*
X144655733Y-84491094D01*
X144610536Y-84521294D01*
X144587012Y-84537012D01*
X144537046Y-84611791D01*
X144535625Y-84618936D01*
X144535624Y-84618938D01*
X144525210Y-84671294D01*
X144524500Y-84674864D01*
X144524500Y-85726462D01*
X144507187Y-85774028D01*
X144463350Y-85799338D01*
X144413500Y-85790548D01*
X144394864Y-85775254D01*
X144357816Y-85733009D01*
X144295394Y-85661830D01*
X144129330Y-85530916D01*
X143942191Y-85432457D01*
X143938952Y-85431451D01*
X143938949Y-85431450D01*
X143743482Y-85370756D01*
X143743481Y-85370756D01*
X143740242Y-85369750D01*
X143573372Y-85350000D01*
X143571319Y-85349757D01*
X143571318Y-85349757D01*
X143569147Y-85349500D01*
X143445586Y-85349500D01*
X143443902Y-85349655D01*
X143443896Y-85349655D01*
X143370081Y-85356438D01*
X143289427Y-85363849D01*
X143286169Y-85364768D01*
X143286163Y-85364769D01*
X143089171Y-85420327D01*
X143089169Y-85420328D01*
X143085906Y-85421248D01*
X142896253Y-85514774D01*
X142893541Y-85516799D01*
X142893538Y-85516801D01*
X142797727Y-85588347D01*
X142726820Y-85641296D01*
X142583280Y-85796576D01*
X142581466Y-85799451D01*
X142504462Y-85921496D01*
X142470442Y-85975414D01*
X142469186Y-85978561D01*
X142469185Y-85978564D01*
X142396142Y-86161649D01*
X142392084Y-86171820D01*
X142391422Y-86175147D01*
X142391421Y-86175151D01*
X142359339Y-86336439D01*
X142350830Y-86379217D01*
X142349741Y-86462403D01*
X142348135Y-86585119D01*
X142348062Y-86590659D01*
X141656868Y-86590659D01*
X141656751Y-86589027D01*
X141656576Y-86585142D01*
X141654634Y-86478521D01*
X141652882Y-86472427D01*
X141650000Y-86451977D01*
X141650000Y-82905506D01*
X141667313Y-82857940D01*
X141711150Y-82832630D01*
X141765113Y-82843978D01*
X141790300Y-82860808D01*
X141790302Y-82860809D01*
X141796359Y-82864856D01*
X141803504Y-82866277D01*
X141803506Y-82866278D01*
X141846294Y-82874789D01*
X141846295Y-82874789D01*
X141849864Y-82875499D01*
X142075000Y-82875500D01*
X142300135Y-82875500D01*
X142303704Y-82874790D01*
X142303705Y-82874790D01*
X142346493Y-82866279D01*
X142346495Y-82866278D01*
X142353640Y-82864857D01*
X142409388Y-82827607D01*
X142458556Y-82815576D01*
X142503955Y-82837964D01*
X142524500Y-82889136D01*
X142524500Y-83050136D01*
X142537046Y-83113209D01*
X142541094Y-83119267D01*
X142567568Y-83158888D01*
X142579599Y-83208056D01*
X142567568Y-83241112D01*
X142537046Y-83286791D01*
X142524500Y-83349864D01*
X142524500Y-83550136D01*
X142525210Y-83553705D01*
X142525210Y-83553706D01*
X142527252Y-83563969D01*
X142537046Y-83613209D01*
X142567568Y-83658888D01*
X142579599Y-83708056D01*
X142567568Y-83741112D01*
X142537046Y-83786791D01*
X142535625Y-83793936D01*
X142535624Y-83793938D01*
X142531548Y-83814430D01*
X142524500Y-83849864D01*
X142524500Y-84050136D01*
X142537046Y-84113209D01*
X142587012Y-84187988D01*
X142661791Y-84237954D01*
X142668936Y-84239375D01*
X142668938Y-84239376D01*
X142721294Y-84249790D01*
X142721295Y-84249790D01*
X142724864Y-84250500D01*
X144100136Y-84250500D01*
X144103705Y-84249790D01*
X144103706Y-84249790D01*
X144156062Y-84239376D01*
X144156064Y-84239375D01*
X144163209Y-84237954D01*
X144237988Y-84187988D01*
X144287954Y-84113209D01*
X144300500Y-84050136D01*
X144300500Y-83883199D01*
X148914903Y-83883199D01*
X148934750Y-84008505D01*
X148937393Y-84013693D01*
X148937394Y-84013695D01*
X148989704Y-84116360D01*
X148989706Y-84116363D01*
X148992347Y-84121546D01*
X149082056Y-84211255D01*
X149087239Y-84213896D01*
X149087242Y-84213898D01*
X149189907Y-84266208D01*
X149189909Y-84266209D01*
X149195097Y-84268852D01*
X149320403Y-84288699D01*
X149445709Y-84268852D01*
X149450897Y-84266209D01*
X149450899Y-84266208D01*
X149553564Y-84213898D01*
X149553567Y-84213896D01*
X149558750Y-84211255D01*
X149614475Y-84155530D01*
X149660351Y-84134138D01*
X149709246Y-84147239D01*
X149719127Y-84155530D01*
X149761653Y-84198056D01*
X149766836Y-84200697D01*
X149766839Y-84200699D01*
X149869504Y-84253009D01*
X149869506Y-84253010D01*
X149874694Y-84255653D01*
X150000000Y-84275500D01*
X150125306Y-84255653D01*
X150130494Y-84253010D01*
X150130496Y-84253009D01*
X150233161Y-84200699D01*
X150233164Y-84200697D01*
X150238347Y-84198056D01*
X150328056Y-84108347D01*
X150330697Y-84103164D01*
X150330699Y-84103161D01*
X150383009Y-84000496D01*
X150383010Y-84000494D01*
X150385653Y-83995306D01*
X150403486Y-83882715D01*
X150404589Y-83875752D01*
X150405500Y-83870000D01*
X150385653Y-83744694D01*
X150369001Y-83712012D01*
X150330699Y-83636839D01*
X150330697Y-83636836D01*
X150328056Y-83631653D01*
X150238347Y-83541944D01*
X150233164Y-83539303D01*
X150233161Y-83539301D01*
X150130496Y-83486991D01*
X150130494Y-83486990D01*
X150125306Y-83484347D01*
X150046014Y-83471788D01*
X150001741Y-83447247D01*
X149983590Y-83398699D01*
X149983590Y-81132963D01*
X150000903Y-81085397D01*
X150005264Y-81080637D01*
X150443729Y-80642172D01*
X150489605Y-80620780D01*
X150496055Y-80620498D01*
X150827363Y-80620498D01*
X150874929Y-80637811D01*
X150888892Y-80653387D01*
X150891882Y-80657862D01*
X150892569Y-80658890D01*
X150904599Y-80708059D01*
X150892568Y-80741112D01*
X150862046Y-80786791D01*
X150849500Y-80849864D01*
X150849500Y-81050136D01*
X150850210Y-81053705D01*
X150850210Y-81053706D01*
X150856801Y-81086839D01*
X150862046Y-81113209D01*
X150891154Y-81156772D01*
X150892568Y-81158888D01*
X150904599Y-81208056D01*
X150892568Y-81241112D01*
X150862046Y-81286791D01*
X150860625Y-81293936D01*
X150860624Y-81293938D01*
X150850210Y-81346294D01*
X150849500Y-81349864D01*
X150849500Y-81550136D01*
X150850210Y-81553705D01*
X150850210Y-81553706D01*
X150860296Y-81604410D01*
X150862046Y-81613209D01*
X150882580Y-81643940D01*
X150892568Y-81658888D01*
X150904599Y-81708056D01*
X150892568Y-81741112D01*
X150862046Y-81786791D01*
X150860625Y-81793936D01*
X150860624Y-81793938D01*
X150850210Y-81846294D01*
X150849500Y-81849864D01*
X150849500Y-82050136D01*
X150862046Y-82113209D01*
X150892568Y-82158888D01*
X150904599Y-82208056D01*
X150892568Y-82241112D01*
X150862046Y-82286791D01*
X150860625Y-82293936D01*
X150860624Y-82293938D01*
X150853016Y-82332187D01*
X150849500Y-82349864D01*
X150849500Y-82550136D01*
X150862046Y-82613209D01*
X150866094Y-82619267D01*
X150892568Y-82658888D01*
X150904599Y-82708056D01*
X150892568Y-82741112D01*
X150862046Y-82786791D01*
X150860625Y-82793936D01*
X150860624Y-82793938D01*
X150853927Y-82827607D01*
X150849500Y-82849864D01*
X150849500Y-83050136D01*
X150862046Y-83113209D01*
X150866094Y-83119267D01*
X150892568Y-83158888D01*
X150904599Y-83208056D01*
X150892568Y-83241112D01*
X150862046Y-83286791D01*
X150849500Y-83349864D01*
X150849500Y-83550136D01*
X150850210Y-83553705D01*
X150850210Y-83553706D01*
X150852252Y-83563969D01*
X150862046Y-83613209D01*
X150892568Y-83658888D01*
X150904599Y-83708056D01*
X150892568Y-83741112D01*
X150862046Y-83786791D01*
X150860625Y-83793936D01*
X150860624Y-83793938D01*
X150856548Y-83814430D01*
X150849500Y-83849864D01*
X150849500Y-84050136D01*
X150862046Y-84113209D01*
X150912012Y-84187988D01*
X150986791Y-84237954D01*
X150993936Y-84239375D01*
X150993938Y-84239376D01*
X151046294Y-84249790D01*
X151046295Y-84249790D01*
X151049864Y-84250500D01*
X152425136Y-84250500D01*
X152428705Y-84249790D01*
X152428706Y-84249790D01*
X152481062Y-84239376D01*
X152481064Y-84239375D01*
X152488209Y-84237954D01*
X152562988Y-84187988D01*
X152612954Y-84113209D01*
X152625500Y-84050136D01*
X152625500Y-83849864D01*
X152618452Y-83814430D01*
X152614376Y-83793938D01*
X152614375Y-83793936D01*
X152612954Y-83786791D01*
X152582432Y-83741112D01*
X152570401Y-83691944D01*
X152582432Y-83658888D01*
X152612954Y-83613209D01*
X152622749Y-83563969D01*
X152624790Y-83553706D01*
X152624790Y-83553705D01*
X152625500Y-83550136D01*
X152625500Y-83349864D01*
X152612954Y-83286791D01*
X152582432Y-83241112D01*
X152570401Y-83191944D01*
X152582432Y-83158888D01*
X152608906Y-83119267D01*
X152612954Y-83113209D01*
X152625500Y-83050136D01*
X152625500Y-82849864D01*
X152621073Y-82827607D01*
X152614376Y-82793938D01*
X152614375Y-82793936D01*
X152612954Y-82786791D01*
X152582432Y-82741112D01*
X152570401Y-82691944D01*
X152582432Y-82658888D01*
X152608906Y-82619267D01*
X152612954Y-82613209D01*
X152625500Y-82550136D01*
X152625500Y-82349864D01*
X152621984Y-82332187D01*
X152614376Y-82293938D01*
X152614375Y-82293936D01*
X152612954Y-82286791D01*
X152582432Y-82241112D01*
X152570401Y-82191944D01*
X152582432Y-82158888D01*
X152612954Y-82113209D01*
X152625500Y-82050136D01*
X152625500Y-81849864D01*
X152624790Y-81846294D01*
X152614376Y-81793938D01*
X152614375Y-81793936D01*
X152612954Y-81786791D01*
X152582432Y-81741112D01*
X152570401Y-81691944D01*
X152582432Y-81658888D01*
X152592420Y-81643940D01*
X152612954Y-81613209D01*
X152614705Y-81604410D01*
X152624790Y-81553706D01*
X152624790Y-81553705D01*
X152625500Y-81550136D01*
X152625500Y-81349864D01*
X152624790Y-81346294D01*
X152614376Y-81293938D01*
X152614375Y-81293936D01*
X152612954Y-81286791D01*
X152582432Y-81241112D01*
X152570401Y-81191944D01*
X152582432Y-81158888D01*
X152583846Y-81156772D01*
X152612954Y-81113209D01*
X152618200Y-81086839D01*
X152624790Y-81053706D01*
X152624790Y-81053705D01*
X152625500Y-81050136D01*
X152625500Y-80849864D01*
X152612954Y-80786791D01*
X152582432Y-80741112D01*
X152570401Y-80691944D01*
X152582432Y-80658888D01*
X152607895Y-80620780D01*
X152612954Y-80613209D01*
X152625500Y-80550136D01*
X152625500Y-80349864D01*
X152615681Y-80300499D01*
X152614376Y-80293938D01*
X152614375Y-80293936D01*
X152612954Y-80286791D01*
X152582432Y-80241112D01*
X152570401Y-80191944D01*
X152582432Y-80158888D01*
X152608906Y-80119267D01*
X152612954Y-80113209D01*
X152617598Y-80089865D01*
X152624790Y-80053706D01*
X152624790Y-80053705D01*
X152625500Y-80050136D01*
X152625500Y-79849864D01*
X152619866Y-79821538D01*
X152614376Y-79793938D01*
X152614375Y-79793936D01*
X152612954Y-79786791D01*
X152582432Y-79741112D01*
X152570401Y-79691944D01*
X152582432Y-79658888D01*
X152596157Y-79638347D01*
X152612954Y-79613209D01*
X152625500Y-79550136D01*
X152625500Y-79349864D01*
X152616717Y-79305709D01*
X152614376Y-79293938D01*
X152614375Y-79293936D01*
X152612954Y-79286791D01*
X152562988Y-79212012D01*
X152488209Y-79162046D01*
X152481064Y-79160625D01*
X152481062Y-79160624D01*
X152428706Y-79150210D01*
X152428705Y-79150210D01*
X152425136Y-79149500D01*
X151049864Y-79149500D01*
X151046297Y-79150209D01*
X151046292Y-79150210D01*
X150997774Y-79159861D01*
X150947745Y-79152161D01*
X150931012Y-79139609D01*
X150863347Y-79071944D01*
X150858164Y-79069303D01*
X150858161Y-79069301D01*
X150755496Y-79016991D01*
X150755494Y-79016990D01*
X150750306Y-79014347D01*
X150625000Y-78994500D01*
X150499694Y-79014347D01*
X150494506Y-79016990D01*
X150494504Y-79016991D01*
X150391839Y-79069301D01*
X150391836Y-79069303D01*
X150386653Y-79071944D01*
X150296944Y-79161653D01*
X150294303Y-79166836D01*
X150294301Y-79166839D01*
X150241991Y-79269504D01*
X150239347Y-79274694D01*
X150219500Y-79400000D01*
X150239347Y-79525306D01*
X150241990Y-79530494D01*
X150241991Y-79530496D01*
X150296944Y-79638347D01*
X150295621Y-79639021D01*
X150307656Y-79681002D01*
X150287064Y-79727244D01*
X150269967Y-79739215D01*
X150268964Y-79739428D01*
X150262091Y-79744422D01*
X150245115Y-79753639D01*
X150237178Y-79756686D01*
X150236903Y-79756909D01*
X150219768Y-79774044D01*
X150210938Y-79781586D01*
X150191422Y-79795765D01*
X150187533Y-79802501D01*
X150187242Y-79803004D01*
X150175483Y-79818329D01*
X149166013Y-80827800D01*
X149163203Y-80830467D01*
X149133925Y-80856829D01*
X149130762Y-80863934D01*
X149130760Y-80863936D01*
X149124016Y-80879082D01*
X149118478Y-80889284D01*
X149105213Y-80909711D01*
X149103997Y-80917391D01*
X149103884Y-80918103D01*
X149098398Y-80936624D01*
X149094940Y-80944391D01*
X149094903Y-80944743D01*
X149094903Y-80968980D01*
X149093992Y-80980554D01*
X149090219Y-81004377D01*
X149092232Y-81011889D01*
X149092232Y-81011892D01*
X149092381Y-81012448D01*
X149094903Y-81031602D01*
X149094904Y-82280733D01*
X149094904Y-83511643D01*
X149077591Y-83559209D01*
X149073230Y-83563969D01*
X148992347Y-83644852D01*
X148989706Y-83650035D01*
X148989704Y-83650038D01*
X148943300Y-83741112D01*
X148934750Y-83757893D01*
X148925795Y-83814430D01*
X148916083Y-83875752D01*
X148914903Y-83883199D01*
X144300500Y-83883199D01*
X144300500Y-83849864D01*
X144293452Y-83814430D01*
X144289376Y-83793938D01*
X144289375Y-83793936D01*
X144287954Y-83786791D01*
X144257432Y-83741112D01*
X144245401Y-83691944D01*
X144257432Y-83658888D01*
X144287954Y-83613209D01*
X144297749Y-83563969D01*
X144299790Y-83553706D01*
X144299790Y-83553705D01*
X144300500Y-83550136D01*
X144300500Y-83349864D01*
X144287954Y-83286791D01*
X144257432Y-83241112D01*
X144245401Y-83191944D01*
X144257432Y-83158888D01*
X144283906Y-83119267D01*
X144287954Y-83113209D01*
X144300500Y-83050136D01*
X144300500Y-82974500D01*
X144317813Y-82926934D01*
X144361650Y-82901624D01*
X144374500Y-82900500D01*
X145628445Y-82900500D01*
X145676011Y-82917813D01*
X145680771Y-82922174D01*
X145711653Y-82953056D01*
X145716836Y-82955697D01*
X145716839Y-82955699D01*
X145819504Y-83008009D01*
X145819506Y-83008010D01*
X145824694Y-83010653D01*
X145950000Y-83030500D01*
X146075306Y-83010653D01*
X146080494Y-83008010D01*
X146080496Y-83008009D01*
X146183161Y-82955699D01*
X146183164Y-82955697D01*
X146188347Y-82953056D01*
X146278056Y-82863347D01*
X146280697Y-82858164D01*
X146280699Y-82858161D01*
X146333009Y-82755496D01*
X146333010Y-82755494D01*
X146335653Y-82750306D01*
X146355500Y-82625000D01*
X146335653Y-82499694D01*
X146333009Y-82494504D01*
X146280699Y-82391839D01*
X146280697Y-82391836D01*
X146278056Y-82386653D01*
X146247174Y-82355771D01*
X146225782Y-82309895D01*
X146225500Y-82303445D01*
X146225500Y-82207420D01*
X146226922Y-82192983D01*
X146229077Y-82182149D01*
X146230499Y-82175000D01*
X146225500Y-82149868D01*
X146225500Y-82149863D01*
X146218209Y-82113209D01*
X146210570Y-82074804D01*
X146210569Y-82074802D01*
X146209148Y-82067657D01*
X146184752Y-82031146D01*
X146162582Y-81997966D01*
X146162580Y-81997964D01*
X146148343Y-81976657D01*
X146133096Y-81966469D01*
X146121883Y-81957267D01*
X145801094Y-81636478D01*
X145484616Y-81320000D01*
X146114500Y-81320000D01*
X146134347Y-81445306D01*
X146136990Y-81450494D01*
X146136991Y-81450496D01*
X146189301Y-81553161D01*
X146189303Y-81553164D01*
X146191944Y-81558347D01*
X146281653Y-81648056D01*
X146286836Y-81650697D01*
X146286839Y-81650699D01*
X146389504Y-81703009D01*
X146389506Y-81703010D01*
X146394694Y-81705653D01*
X146520000Y-81725500D01*
X146645306Y-81705653D01*
X146650494Y-81703010D01*
X146650496Y-81703009D01*
X146753161Y-81650699D01*
X146753164Y-81650697D01*
X146758347Y-81648056D01*
X146789229Y-81617174D01*
X146835105Y-81595782D01*
X146841555Y-81595500D01*
X148048445Y-81595500D01*
X148096011Y-81612813D01*
X148100771Y-81617174D01*
X148181653Y-81698056D01*
X148186836Y-81700697D01*
X148186839Y-81700699D01*
X148289504Y-81753009D01*
X148289506Y-81753010D01*
X148294694Y-81755653D01*
X148420000Y-81775500D01*
X148545306Y-81755653D01*
X148550494Y-81753010D01*
X148550496Y-81753009D01*
X148653161Y-81700699D01*
X148653164Y-81700697D01*
X148658347Y-81698056D01*
X148748056Y-81608347D01*
X148750697Y-81603164D01*
X148750699Y-81603161D01*
X148803009Y-81500496D01*
X148803010Y-81500494D01*
X148805653Y-81495306D01*
X148825500Y-81370000D01*
X148805653Y-81244694D01*
X148803009Y-81239504D01*
X148750699Y-81136839D01*
X148750697Y-81136836D01*
X148748056Y-81131653D01*
X148658347Y-81041944D01*
X148653164Y-81039303D01*
X148653161Y-81039301D01*
X148550496Y-80986991D01*
X148550494Y-80986990D01*
X148545306Y-80984347D01*
X148420000Y-80964500D01*
X148294694Y-80984347D01*
X148289506Y-80986990D01*
X148289504Y-80986991D01*
X148186839Y-81039301D01*
X148186836Y-81039303D01*
X148181653Y-81041944D01*
X148100771Y-81122826D01*
X148054895Y-81144218D01*
X148048445Y-81144500D01*
X146925426Y-81144500D01*
X146877860Y-81127187D01*
X146859492Y-81104096D01*
X146850700Y-81086842D01*
X146850698Y-81086839D01*
X146848056Y-81081653D01*
X146758347Y-80991944D01*
X146753164Y-80989303D01*
X146753161Y-80989301D01*
X146650496Y-80936991D01*
X146650494Y-80936990D01*
X146645306Y-80934347D01*
X146520000Y-80914500D01*
X146394694Y-80934347D01*
X146389506Y-80936990D01*
X146389504Y-80936991D01*
X146286839Y-80989301D01*
X146286836Y-80989303D01*
X146281653Y-80991944D01*
X146191944Y-81081653D01*
X146189303Y-81086836D01*
X146189301Y-81086839D01*
X146136991Y-81189504D01*
X146134347Y-81194694D01*
X146120370Y-81282940D01*
X146116471Y-81307559D01*
X146114500Y-81320000D01*
X145484616Y-81320000D01*
X145472174Y-81307559D01*
X145450782Y-81261683D01*
X145450500Y-81255233D01*
X145450500Y-78882418D01*
X145451922Y-78867981D01*
X145454077Y-78857148D01*
X145455499Y-78849999D01*
X145450500Y-78824868D01*
X145450500Y-78824863D01*
X145444593Y-78795167D01*
X145435570Y-78749804D01*
X145435569Y-78749802D01*
X145434148Y-78742657D01*
X145397619Y-78687988D01*
X145387582Y-78672966D01*
X145387580Y-78672964D01*
X145373343Y-78651657D01*
X145358096Y-78641469D01*
X145346883Y-78632267D01*
X144992735Y-78278120D01*
X144983532Y-78266906D01*
X144977392Y-78257717D01*
X144973343Y-78251657D01*
X144882343Y-78190852D01*
X144850043Y-78184427D01*
X144800144Y-78174501D01*
X144800139Y-78174500D01*
X144800136Y-78174500D01*
X144800128Y-78174499D01*
X144782150Y-78170923D01*
X144782149Y-78170923D01*
X144775000Y-78169501D01*
X144767851Y-78170923D01*
X144757017Y-78173078D01*
X144742580Y-78174500D01*
X144204280Y-78174500D01*
X144175962Y-78168867D01*
X144169267Y-78166094D01*
X144163209Y-78162046D01*
X144156064Y-78160625D01*
X144156062Y-78160624D01*
X144103706Y-78150210D01*
X144103705Y-78150210D01*
X144100136Y-78149500D01*
X143762000Y-78149500D01*
X143714434Y-78132187D01*
X143689124Y-78088350D01*
X143688000Y-78075500D01*
X143688000Y-78006260D01*
X143705313Y-77958694D01*
X143709674Y-77953934D01*
X143714249Y-77949359D01*
X143720309Y-77945310D01*
X143764856Y-77878641D01*
X143775500Y-77825136D01*
X143775500Y-77669767D01*
X143792813Y-77622201D01*
X143797174Y-77617441D01*
X144196883Y-77217733D01*
X144208097Y-77208530D01*
X144217283Y-77202392D01*
X144223343Y-77198343D01*
X144237580Y-77177036D01*
X144237584Y-77177032D01*
X144280099Y-77113403D01*
X144280099Y-77113402D01*
X144284148Y-77107343D01*
X144286077Y-77097646D01*
X144293818Y-77058727D01*
X144320077Y-77015453D01*
X144368009Y-76999182D01*
X144418722Y-77020838D01*
X144502826Y-77104942D01*
X144524218Y-77150818D01*
X144524500Y-77157268D01*
X144524500Y-77725136D01*
X144537046Y-77788209D01*
X144587012Y-77862988D01*
X144593073Y-77867038D01*
X144599742Y-77871494D01*
X144661791Y-77912954D01*
X144668936Y-77914375D01*
X144668938Y-77914376D01*
X144721294Y-77924790D01*
X144721295Y-77924790D01*
X144724864Y-77925500D01*
X144925136Y-77925500D01*
X144928705Y-77924790D01*
X144928706Y-77924790D01*
X144981062Y-77914376D01*
X144981064Y-77914375D01*
X144988209Y-77912954D01*
X145050258Y-77871494D01*
X145056927Y-77867038D01*
X145062988Y-77862988D01*
X145112954Y-77788209D01*
X145125500Y-77725136D01*
X145125500Y-76349864D01*
X145124790Y-76346294D01*
X145114376Y-76293938D01*
X145114375Y-76293936D01*
X145112954Y-76286791D01*
X145062988Y-76212012D01*
X145056927Y-76207962D01*
X145055793Y-76206828D01*
X145034401Y-76160952D01*
X145047502Y-76112057D01*
X145088966Y-76083023D01*
X145108119Y-76080502D01*
X145376664Y-76080502D01*
X145424230Y-76097815D01*
X145428988Y-76102175D01*
X145525596Y-76198782D01*
X145546987Y-76244657D01*
X145541636Y-76279426D01*
X145541096Y-76280730D01*
X145537046Y-76286791D01*
X145535624Y-76293940D01*
X145525932Y-76342667D01*
X145524500Y-76349864D01*
X145524500Y-77725136D01*
X145537046Y-77788209D01*
X145587012Y-77862988D01*
X145593073Y-77867038D01*
X145599742Y-77871494D01*
X145661791Y-77912954D01*
X145668936Y-77914375D01*
X145668938Y-77914376D01*
X145721294Y-77924790D01*
X145721295Y-77924790D01*
X145724864Y-77925500D01*
X145925136Y-77925500D01*
X145928705Y-77924790D01*
X145928706Y-77924790D01*
X145981062Y-77914376D01*
X145981064Y-77914375D01*
X145988209Y-77912954D01*
X146033888Y-77882432D01*
X146083056Y-77870401D01*
X146116112Y-77882432D01*
X146161791Y-77912954D01*
X146168936Y-77914375D01*
X146168938Y-77914376D01*
X146221294Y-77924790D01*
X146221295Y-77924790D01*
X146224864Y-77925500D01*
X146420084Y-77925500D01*
X146467650Y-77942813D01*
X146492960Y-77986650D01*
X146486018Y-78033095D01*
X146441993Y-78119499D01*
X146441991Y-78119504D01*
X146439347Y-78124694D01*
X146419500Y-78250000D01*
X146439347Y-78375306D01*
X146441990Y-78380494D01*
X146441991Y-78380496D01*
X146494301Y-78483161D01*
X146494303Y-78483164D01*
X146496944Y-78488347D01*
X146586653Y-78578056D01*
X146591836Y-78580697D01*
X146591839Y-78580699D01*
X146694504Y-78633009D01*
X146694506Y-78633010D01*
X146699694Y-78635653D01*
X146783583Y-78648940D01*
X146809570Y-78653056D01*
X146825000Y-78655500D01*
X146840431Y-78653056D01*
X146866417Y-78648940D01*
X146950306Y-78635653D01*
X146955494Y-78633010D01*
X146955496Y-78633009D01*
X147058161Y-78580699D01*
X147058164Y-78580697D01*
X147063347Y-78578056D01*
X147153056Y-78488347D01*
X147155697Y-78483164D01*
X147155699Y-78483161D01*
X147208009Y-78380496D01*
X147208010Y-78380494D01*
X147210653Y-78375306D01*
X147230500Y-78250000D01*
X147210653Y-78124694D01*
X147208009Y-78119504D01*
X147208007Y-78119499D01*
X147163982Y-78033095D01*
X147157813Y-77982854D01*
X147185382Y-77940401D01*
X147229916Y-77925500D01*
X147425136Y-77925500D01*
X147428705Y-77924790D01*
X147428706Y-77924790D01*
X147481062Y-77914376D01*
X147481064Y-77914375D01*
X147488209Y-77912954D01*
X147533888Y-77882432D01*
X147583056Y-77870401D01*
X147616112Y-77882432D01*
X147661791Y-77912954D01*
X147668936Y-77914375D01*
X147668938Y-77914376D01*
X147721294Y-77924790D01*
X147721295Y-77924790D01*
X147724864Y-77925500D01*
X147925136Y-77925500D01*
X147928705Y-77924790D01*
X147928706Y-77924790D01*
X147981062Y-77914376D01*
X147981064Y-77914375D01*
X147988209Y-77912954D01*
X148033888Y-77882432D01*
X148083056Y-77870401D01*
X148116112Y-77882432D01*
X148161791Y-77912954D01*
X148168936Y-77914375D01*
X148168938Y-77914376D01*
X148221294Y-77924790D01*
X148221295Y-77924790D01*
X148224864Y-77925500D01*
X148425136Y-77925500D01*
X148428705Y-77924790D01*
X148428706Y-77924790D01*
X148481062Y-77914376D01*
X148481064Y-77914375D01*
X148488209Y-77912954D01*
X148533888Y-77882432D01*
X148583056Y-77870401D01*
X148616112Y-77882432D01*
X148661791Y-77912954D01*
X148668936Y-77914375D01*
X148668938Y-77914376D01*
X148721294Y-77924790D01*
X148721295Y-77924790D01*
X148724864Y-77925500D01*
X148925136Y-77925500D01*
X148928705Y-77924790D01*
X148928706Y-77924790D01*
X148981062Y-77914376D01*
X148981064Y-77914375D01*
X148988209Y-77912954D01*
X149033888Y-77882432D01*
X149083056Y-77870401D01*
X149116112Y-77882432D01*
X149161791Y-77912954D01*
X149168936Y-77914375D01*
X149168938Y-77914376D01*
X149221294Y-77924790D01*
X149221295Y-77924790D01*
X149224864Y-77925500D01*
X149425136Y-77925500D01*
X149428705Y-77924790D01*
X149428706Y-77924790D01*
X149481062Y-77914376D01*
X149481064Y-77914375D01*
X149488209Y-77912954D01*
X149533888Y-77882432D01*
X149583056Y-77870401D01*
X149616112Y-77882432D01*
X149661791Y-77912954D01*
X149668936Y-77914375D01*
X149668938Y-77914376D01*
X149721294Y-77924790D01*
X149721295Y-77924790D01*
X149724864Y-77925500D01*
X149925136Y-77925500D01*
X149928705Y-77924790D01*
X149928706Y-77924790D01*
X149981062Y-77914376D01*
X149981064Y-77914375D01*
X149988209Y-77912954D01*
X150033888Y-77882432D01*
X150083056Y-77870401D01*
X150116112Y-77882432D01*
X150161791Y-77912954D01*
X150168936Y-77914375D01*
X150168938Y-77914376D01*
X150179356Y-77916448D01*
X150222631Y-77942708D01*
X150238901Y-77990641D01*
X150217245Y-78041352D01*
X150171944Y-78086653D01*
X150169303Y-78091836D01*
X150169301Y-78091839D01*
X150118852Y-78190852D01*
X150114347Y-78199694D01*
X150094500Y-78325000D01*
X150114347Y-78450306D01*
X150116990Y-78455494D01*
X150116991Y-78455496D01*
X150169301Y-78558161D01*
X150169303Y-78558164D01*
X150171944Y-78563347D01*
X150261653Y-78653056D01*
X150266836Y-78655697D01*
X150266839Y-78655699D01*
X150369504Y-78708009D01*
X150369506Y-78708010D01*
X150374694Y-78710653D01*
X150500000Y-78730500D01*
X150556538Y-78721545D01*
X150582549Y-78722056D01*
X150599863Y-78725500D01*
X150599866Y-78725500D01*
X150599872Y-78725501D01*
X150625000Y-78730499D01*
X150642983Y-78726922D01*
X150657420Y-78725500D01*
X150945720Y-78725500D01*
X150974038Y-78731133D01*
X150980733Y-78733906D01*
X150986791Y-78737954D01*
X150993936Y-78739375D01*
X150993938Y-78739376D01*
X151046294Y-78749790D01*
X151046295Y-78749790D01*
X151049864Y-78750500D01*
X152425136Y-78750500D01*
X152428705Y-78749790D01*
X152428706Y-78749790D01*
X152481062Y-78739376D01*
X152481064Y-78739375D01*
X152488209Y-78737954D01*
X152562988Y-78687988D01*
X152573026Y-78672966D01*
X152589969Y-78647608D01*
X152612954Y-78613209D01*
X152615035Y-78602750D01*
X152624790Y-78553706D01*
X152624790Y-78553705D01*
X152625500Y-78550136D01*
X152625500Y-78349864D01*
X152624790Y-78346294D01*
X152614376Y-78293938D01*
X152614375Y-78293936D01*
X152612954Y-78286791D01*
X152562988Y-78212012D01*
X152553165Y-78205448D01*
X152506849Y-78174501D01*
X152488209Y-78162046D01*
X152481064Y-78160625D01*
X152481062Y-78160624D01*
X152428706Y-78150210D01*
X152428705Y-78150210D01*
X152425136Y-78149500D01*
X152087000Y-78149500D01*
X152039434Y-78132187D01*
X152014124Y-78088350D01*
X152013000Y-78075500D01*
X152013000Y-77941283D01*
X152025471Y-77900171D01*
X152035809Y-77884699D01*
X152039857Y-77878641D01*
X152041797Y-77868892D01*
X152049790Y-77828706D01*
X152049790Y-77828704D01*
X152050500Y-77825136D01*
X152050500Y-77374864D01*
X152039857Y-77321359D01*
X152007916Y-77273556D01*
X151995885Y-77224388D01*
X152018273Y-77178989D01*
X152028332Y-77170916D01*
X152068845Y-77143846D01*
X152114476Y-77075555D01*
X152120905Y-77043235D01*
X152124789Y-77023708D01*
X152124789Y-77023705D01*
X152125499Y-77020137D01*
X152125500Y-76279864D01*
X152114477Y-76224446D01*
X152091975Y-76190770D01*
X152068920Y-76156265D01*
X152056889Y-76107097D01*
X152079277Y-76061698D01*
X152119958Y-76041900D01*
X152159859Y-76036186D01*
X152283878Y-75979798D01*
X152387086Y-75890869D01*
X152407572Y-75859264D01*
X152414434Y-75848676D01*
X152461186Y-75776547D01*
X152500221Y-75646022D01*
X152500499Y-75642281D01*
X152500499Y-75573056D01*
X152517812Y-75525490D01*
X152561649Y-75500180D01*
X152611499Y-75508970D01*
X152626825Y-75520730D01*
X153079269Y-75973174D01*
X153100661Y-76019050D01*
X153087560Y-76067945D01*
X153046096Y-76096979D01*
X153026943Y-76099500D01*
X152804864Y-76099500D01*
X152801296Y-76100210D01*
X152801293Y-76100210D01*
X152791410Y-76102176D01*
X152749446Y-76110523D01*
X152732937Y-76121554D01*
X152702859Y-76141652D01*
X152681155Y-76156154D01*
X152677105Y-76162215D01*
X152672610Y-76168942D01*
X152635524Y-76224445D01*
X152624501Y-76279863D01*
X152624500Y-77020136D01*
X152625210Y-77023704D01*
X152625210Y-77023707D01*
X152629094Y-77043234D01*
X152635523Y-77075554D01*
X152681154Y-77143845D01*
X152687215Y-77147895D01*
X152743383Y-77185427D01*
X152743385Y-77185428D01*
X152749445Y-77189477D01*
X152773613Y-77194284D01*
X152801292Y-77199790D01*
X152801295Y-77199790D01*
X152804863Y-77200500D01*
X153100755Y-77200500D01*
X153148321Y-77217813D01*
X153153081Y-77222174D01*
X154104082Y-78173175D01*
X154125474Y-78219051D01*
X154112373Y-78267946D01*
X154070909Y-78296980D01*
X154051756Y-78299501D01*
X153284171Y-78299500D01*
X153095161Y-78299500D01*
X153009983Y-78313677D01*
X153004604Y-78316579D01*
X153004602Y-78316580D01*
X152949533Y-78346294D01*
X152907189Y-78369142D01*
X152903039Y-78373631D01*
X152903037Y-78373633D01*
X152832054Y-78450422D01*
X152827903Y-78454913D01*
X152825430Y-78460507D01*
X152783227Y-78555969D01*
X152780675Y-78561741D01*
X152774500Y-78610621D01*
X152774500Y-78979839D01*
X152788677Y-79065016D01*
X152844142Y-79167810D01*
X152927355Y-79244731D01*
X152928863Y-79246125D01*
X152952040Y-79291126D01*
X152940869Y-79340497D01*
X152917287Y-79362334D01*
X152917406Y-79362487D01*
X152915656Y-79363845D01*
X152913771Y-79365590D01*
X152912572Y-79366237D01*
X152912570Y-79366239D01*
X152907189Y-79369142D01*
X152903039Y-79373631D01*
X152903037Y-79373633D01*
X152832054Y-79450422D01*
X152827903Y-79454913D01*
X152825430Y-79460507D01*
X152787415Y-79546496D01*
X152780675Y-79561741D01*
X152774500Y-79610621D01*
X152774500Y-79979839D01*
X152788677Y-80065016D01*
X152844142Y-80167810D01*
X152923440Y-80241112D01*
X152928863Y-80246125D01*
X152952040Y-80291126D01*
X152940869Y-80340497D01*
X152917287Y-80362334D01*
X152917406Y-80362487D01*
X152915656Y-80363845D01*
X152913771Y-80365590D01*
X152912572Y-80366237D01*
X152912570Y-80366239D01*
X152907189Y-80369142D01*
X152903039Y-80373631D01*
X152903037Y-80373633D01*
X152832054Y-80450422D01*
X152827903Y-80454913D01*
X152825430Y-80460507D01*
X152787415Y-80546496D01*
X152780675Y-80561741D01*
X152774500Y-80610621D01*
X152774500Y-80979839D01*
X152788677Y-81065016D01*
X152791581Y-81070398D01*
X152831565Y-81144500D01*
X152844142Y-81167810D01*
X152848631Y-81171960D01*
X152848633Y-81171962D01*
X152925422Y-81242945D01*
X152929913Y-81247096D01*
X152935507Y-81249569D01*
X153031816Y-81292147D01*
X153031818Y-81292148D01*
X153036741Y-81294324D01*
X153085621Y-81300499D01*
X153504854Y-81300499D01*
X154051781Y-81300500D01*
X154054839Y-81300500D01*
X154057843Y-81300000D01*
X155019500Y-81300000D01*
X155020133Y-81304808D01*
X155031531Y-81391381D01*
X155040132Y-81456715D01*
X155100622Y-81602750D01*
X155103572Y-81606594D01*
X155103574Y-81606598D01*
X155186436Y-81714585D01*
X155196847Y-81728153D01*
X155200698Y-81731108D01*
X155318402Y-81821426D01*
X155318406Y-81821428D01*
X155322250Y-81824378D01*
X155468285Y-81884868D01*
X155473087Y-81885500D01*
X155473090Y-81885501D01*
X155560770Y-81897044D01*
X155587021Y-81900500D01*
X155662979Y-81900500D01*
X155689230Y-81897044D01*
X155776910Y-81885501D01*
X155776913Y-81885500D01*
X155781715Y-81884868D01*
X155927750Y-81824378D01*
X155931594Y-81821428D01*
X155931598Y-81821426D01*
X156049302Y-81731108D01*
X156053153Y-81728153D01*
X156063564Y-81714585D01*
X156146426Y-81606598D01*
X156146428Y-81606594D01*
X156149378Y-81602750D01*
X156209868Y-81456715D01*
X156218470Y-81391381D01*
X156229867Y-81304808D01*
X156230500Y-81300000D01*
X156226416Y-81268978D01*
X156210501Y-81148090D01*
X156210500Y-81148087D01*
X156209868Y-81143285D01*
X156149378Y-80997250D01*
X156146428Y-80993406D01*
X156146426Y-80993402D01*
X156056108Y-80875698D01*
X156053153Y-80871847D01*
X156029248Y-80853504D01*
X155931598Y-80778574D01*
X155931594Y-80778572D01*
X155927750Y-80775622D01*
X155781715Y-80715132D01*
X155776913Y-80714500D01*
X155776910Y-80714499D01*
X155689230Y-80702956D01*
X155662979Y-80699500D01*
X155587021Y-80699500D01*
X155560770Y-80702956D01*
X155473090Y-80714499D01*
X155473087Y-80714500D01*
X155468285Y-80715132D01*
X155322250Y-80775622D01*
X155318406Y-80778572D01*
X155318402Y-80778574D01*
X155220752Y-80853504D01*
X155196847Y-80871847D01*
X155193892Y-80875698D01*
X155103574Y-80993402D01*
X155103572Y-80993406D01*
X155100622Y-80997250D01*
X155040132Y-81143285D01*
X155039500Y-81148087D01*
X155039499Y-81148090D01*
X155023584Y-81268978D01*
X155019500Y-81300000D01*
X154057843Y-81300000D01*
X154140017Y-81286323D01*
X154145396Y-81283421D01*
X154145398Y-81283420D01*
X154237431Y-81233761D01*
X154242811Y-81230858D01*
X154246961Y-81226369D01*
X154246963Y-81226367D01*
X154317946Y-81149578D01*
X154317947Y-81149576D01*
X154322097Y-81145087D01*
X154350590Y-81080637D01*
X154367148Y-81043184D01*
X154367149Y-81043182D01*
X154369325Y-81038259D01*
X154375500Y-80989379D01*
X154375500Y-80620161D01*
X154367365Y-80571286D01*
X154376633Y-80521522D01*
X154388035Y-80506810D01*
X154904434Y-79990411D01*
X154907245Y-79987744D01*
X154912677Y-79982853D01*
X154936499Y-79961404D01*
X154941071Y-79951136D01*
X154946406Y-79939152D01*
X154951943Y-79928954D01*
X154965211Y-79908523D01*
X154966540Y-79900131D01*
X154972026Y-79881610D01*
X154975484Y-79873843D01*
X154975521Y-79873491D01*
X154975521Y-79849253D01*
X154976432Y-79837676D01*
X154978988Y-79821538D01*
X154980205Y-79813856D01*
X154978192Y-79806344D01*
X154978192Y-79806341D01*
X154978043Y-79805785D01*
X154975521Y-79786631D01*
X154975521Y-78657712D01*
X154992834Y-78610146D01*
X155036671Y-78584836D01*
X155086521Y-78593626D01*
X155108229Y-78612664D01*
X155192169Y-78722056D01*
X155196847Y-78728153D01*
X155200698Y-78731108D01*
X155318402Y-78821426D01*
X155318406Y-78821428D01*
X155322250Y-78824378D01*
X155468285Y-78884868D01*
X155473087Y-78885500D01*
X155473090Y-78885501D01*
X155560770Y-78897044D01*
X155587021Y-78900500D01*
X155662979Y-78900500D01*
X155689230Y-78897044D01*
X155776910Y-78885501D01*
X155776913Y-78885500D01*
X155781715Y-78884868D01*
X155927750Y-78824378D01*
X155931594Y-78821428D01*
X155931598Y-78821426D01*
X156049302Y-78731108D01*
X156053153Y-78728153D01*
X156057831Y-78722056D01*
X156146426Y-78606598D01*
X156146428Y-78606594D01*
X156149378Y-78602750D01*
X156209868Y-78456715D01*
X156210697Y-78450422D01*
X156229867Y-78304808D01*
X156230500Y-78300000D01*
X156224675Y-78255752D01*
X156210501Y-78148090D01*
X156210500Y-78148087D01*
X156209868Y-78143285D01*
X156149378Y-77997250D01*
X156146428Y-77993406D01*
X156146426Y-77993402D01*
X156056108Y-77875698D01*
X156053153Y-77871847D01*
X156041608Y-77862988D01*
X155931598Y-77778574D01*
X155931594Y-77778572D01*
X155927750Y-77775622D01*
X155781715Y-77715132D01*
X155776913Y-77714500D01*
X155776910Y-77714499D01*
X155689230Y-77702956D01*
X155662979Y-77699500D01*
X155587021Y-77699500D01*
X155560770Y-77702956D01*
X155473090Y-77714499D01*
X155473087Y-77714500D01*
X155468285Y-77715132D01*
X155322250Y-77775622D01*
X155318406Y-77778572D01*
X155318402Y-77778574D01*
X155208392Y-77862988D01*
X155196847Y-77871847D01*
X155193892Y-77875698D01*
X155108756Y-77986650D01*
X155100622Y-77997250D01*
X155098767Y-78001729D01*
X155097199Y-78004445D01*
X155058421Y-78036981D01*
X155007802Y-78036980D01*
X154969027Y-78004441D01*
X154966021Y-77996604D01*
X154965374Y-77996892D01*
X154962210Y-77989787D01*
X154960593Y-77982178D01*
X154955596Y-77975300D01*
X154946381Y-77958329D01*
X154943334Y-77950392D01*
X154943112Y-77950117D01*
X154925977Y-77932982D01*
X154918435Y-77924152D01*
X154908826Y-77910926D01*
X154904256Y-77904636D01*
X154897481Y-77900724D01*
X154897017Y-77900456D01*
X154881692Y-77888697D01*
X153797184Y-76804190D01*
X153775792Y-76758314D01*
X153775510Y-76751864D01*
X153775510Y-76132154D01*
X153775611Y-76128281D01*
X153777265Y-76096719D01*
X153777672Y-76088952D01*
X153774429Y-76080502D01*
X153773505Y-76078097D01*
X153768943Y-76066212D01*
X153765647Y-76055085D01*
X153763557Y-76045254D01*
X153760582Y-76031257D01*
X153755588Y-76024384D01*
X153746369Y-76007405D01*
X153745414Y-76004917D01*
X153743324Y-75999471D01*
X153743101Y-75999196D01*
X153725966Y-75982061D01*
X153718424Y-75973231D01*
X153708815Y-75960005D01*
X153704245Y-75953715D01*
X153697470Y-75949803D01*
X153697006Y-75949535D01*
X153681681Y-75937776D01*
X153299407Y-75555502D01*
X152872184Y-75128280D01*
X152850792Y-75082404D01*
X152850510Y-75075954D01*
X152850510Y-71485360D01*
X152850611Y-71481487D01*
X152852265Y-71449925D01*
X152852672Y-71442158D01*
X152843943Y-71419418D01*
X152840647Y-71408291D01*
X152835582Y-71384463D01*
X152830588Y-71377590D01*
X152821369Y-71360611D01*
X152820414Y-71358123D01*
X152818324Y-71352677D01*
X152818101Y-71352402D01*
X152800966Y-71335267D01*
X152793424Y-71326437D01*
X152783815Y-71313211D01*
X152779245Y-71306921D01*
X152772470Y-71303009D01*
X152772006Y-71302741D01*
X152756681Y-71290982D01*
X152387911Y-70922213D01*
X152385244Y-70919403D01*
X152364087Y-70895906D01*
X152364088Y-70895906D01*
X152358882Y-70890125D01*
X152351775Y-70886961D01*
X152351774Y-70886960D01*
X152336626Y-70880216D01*
X152326428Y-70874679D01*
X152306000Y-70861413D01*
X152297609Y-70860084D01*
X152279088Y-70854598D01*
X152271321Y-70851140D01*
X152270969Y-70851103D01*
X152246731Y-70851103D01*
X152235157Y-70850192D01*
X152211334Y-70846419D01*
X152203822Y-70848432D01*
X152203819Y-70848432D01*
X152203263Y-70848581D01*
X152184109Y-70851103D01*
X150550660Y-70851103D01*
X150503094Y-70833790D01*
X150498334Y-70829429D01*
X150170321Y-70501416D01*
X150148929Y-70455540D01*
X150149558Y-70437517D01*
X150155500Y-70400000D01*
X150135653Y-70274694D01*
X150125874Y-70255501D01*
X150080699Y-70166839D01*
X150080697Y-70166836D01*
X150078056Y-70161653D01*
X149988347Y-70071944D01*
X149983164Y-70069303D01*
X149983161Y-70069301D01*
X149880496Y-70016991D01*
X149880494Y-70016990D01*
X149875306Y-70014347D01*
X149750000Y-69994500D01*
X149624694Y-70014347D01*
X149619506Y-70016990D01*
X149619504Y-70016991D01*
X149516839Y-70069301D01*
X149516836Y-70069303D01*
X149511653Y-70071944D01*
X149421944Y-70161653D01*
X149419303Y-70166836D01*
X149419301Y-70166839D01*
X149374126Y-70255501D01*
X149364347Y-70274694D01*
X149363436Y-70280447D01*
X149361637Y-70285984D01*
X149359973Y-70285443D01*
X149339175Y-70322968D01*
X149291919Y-70341111D01*
X149244057Y-70324633D01*
X149238298Y-70319448D01*
X148149436Y-69230586D01*
X148146769Y-69227776D01*
X148125612Y-69204279D01*
X148125613Y-69204279D01*
X148120407Y-69198498D01*
X148113300Y-69195334D01*
X148113299Y-69195333D01*
X148098151Y-69188589D01*
X148087953Y-69183052D01*
X148067525Y-69169786D01*
X148059134Y-69168457D01*
X148040613Y-69162971D01*
X148032846Y-69159513D01*
X148032494Y-69159476D01*
X148008256Y-69159476D01*
X147996682Y-69158565D01*
X147972859Y-69154792D01*
X147965347Y-69156805D01*
X147965344Y-69156805D01*
X147964788Y-69156954D01*
X147945634Y-69159476D01*
X144708235Y-69159476D01*
X144704362Y-69159375D01*
X144665042Y-69157314D01*
X144665103Y-69156143D01*
X144623347Y-69148027D01*
X144591491Y-69108689D01*
X144592374Y-69058078D01*
X144609133Y-69032270D01*
X144628056Y-69013347D01*
X144630697Y-69008164D01*
X144630699Y-69008161D01*
X144683009Y-68905496D01*
X144683010Y-68905494D01*
X144685653Y-68900306D01*
X144705500Y-68775000D01*
X144685653Y-68649694D01*
X144632006Y-68544405D01*
X144630699Y-68541839D01*
X144630697Y-68541836D01*
X144628056Y-68536653D01*
X144538347Y-68446944D01*
X144533164Y-68444303D01*
X144533161Y-68444301D01*
X144430496Y-68391991D01*
X144430494Y-68391990D01*
X144425306Y-68389347D01*
X144300000Y-68369500D01*
X144174694Y-68389347D01*
X144169506Y-68391990D01*
X144169504Y-68391991D01*
X144095639Y-68429627D01*
X144045397Y-68435795D01*
X144020931Y-68425220D01*
X143965878Y-68388433D01*
X143965877Y-68388433D01*
X143959815Y-68384382D01*
X143952667Y-68382960D01*
X143952664Y-68382959D01*
X143913706Y-68375210D01*
X143913705Y-68375210D01*
X143910136Y-68374500D01*
X143539865Y-68374500D01*
X143536296Y-68375210D01*
X143536295Y-68375210D01*
X143497333Y-68382960D01*
X143497331Y-68382961D01*
X143490186Y-68384382D01*
X143426762Y-68426761D01*
X143384383Y-68490185D01*
X143374500Y-68539864D01*
X143374500Y-69010135D01*
X143384382Y-69059814D01*
X143388430Y-69065872D01*
X143417040Y-69108689D01*
X143426761Y-69123238D01*
X143432822Y-69127288D01*
X143482755Y-69160653D01*
X143490185Y-69165618D01*
X143497333Y-69167040D01*
X143497336Y-69167041D01*
X143536294Y-69174790D01*
X143536295Y-69174790D01*
X143539864Y-69175500D01*
X143910135Y-69175500D01*
X143913704Y-69174790D01*
X143913705Y-69174790D01*
X143952667Y-69167040D01*
X143952669Y-69167039D01*
X143959814Y-69165618D01*
X143965871Y-69161571D01*
X143965873Y-69161570D01*
X144020932Y-69124780D01*
X144070101Y-69112748D01*
X144095640Y-69120374D01*
X144169499Y-69158007D01*
X144169504Y-69158009D01*
X144174694Y-69160653D01*
X144300000Y-69180500D01*
X144415676Y-69162178D01*
X144465364Y-69171836D01*
X144497220Y-69211175D01*
X144496337Y-69261786D01*
X144479578Y-69287593D01*
X143419346Y-70347826D01*
X143373470Y-70369218D01*
X143367020Y-70369500D01*
X143300000Y-70369500D01*
X143296433Y-70370209D01*
X143296428Y-70370210D01*
X143282629Y-70372955D01*
X143232599Y-70365255D01*
X143199224Y-70327197D01*
X143198120Y-70276590D01*
X143202259Y-70266782D01*
X143208007Y-70255501D01*
X143208009Y-70255496D01*
X143210653Y-70250306D01*
X143230500Y-70125000D01*
X143210653Y-69999694D01*
X143208007Y-69994500D01*
X143155699Y-69891839D01*
X143155697Y-69891836D01*
X143153056Y-69886653D01*
X143063347Y-69796944D01*
X143058164Y-69794303D01*
X143058161Y-69794301D01*
X142955496Y-69741991D01*
X142955494Y-69741990D01*
X142950306Y-69739347D01*
X142825000Y-69719500D01*
X142699694Y-69739347D01*
X142694506Y-69741990D01*
X142694504Y-69741991D01*
X142591839Y-69794301D01*
X142591836Y-69794303D01*
X142586653Y-69796944D01*
X142496944Y-69886653D01*
X142494303Y-69891836D01*
X142494301Y-69891839D01*
X142441993Y-69994500D01*
X142439347Y-69999694D01*
X142427252Y-70076060D01*
X142422589Y-70105497D01*
X142412740Y-70123265D01*
X142419037Y-70130770D01*
X142422589Y-70144503D01*
X142439347Y-70250306D01*
X142441990Y-70255494D01*
X142441991Y-70255496D01*
X142494301Y-70358161D01*
X142494303Y-70358164D01*
X142496944Y-70363347D01*
X142501059Y-70367462D01*
X142504485Y-70372177D01*
X142503364Y-70372992D01*
X142521938Y-70412825D01*
X142511858Y-70452154D01*
X142513175Y-70452699D01*
X142510385Y-70459435D01*
X142506337Y-70465493D01*
X142504916Y-70472638D01*
X142504915Y-70472640D01*
X142495210Y-70521430D01*
X142494500Y-70525000D01*
X142494500Y-71175000D01*
X142495210Y-71178569D01*
X142495210Y-71178570D01*
X142504339Y-71224461D01*
X142506337Y-71234507D01*
X142540045Y-71284955D01*
X142590493Y-71318663D01*
X142597638Y-71320084D01*
X142597640Y-71320085D01*
X142646430Y-71329790D01*
X142646431Y-71329790D01*
X142650000Y-71330500D01*
X143000000Y-71330500D01*
X143003569Y-71329790D01*
X143003570Y-71329790D01*
X143052360Y-71320085D01*
X143052362Y-71320084D01*
X143059507Y-71318663D01*
X143108888Y-71285668D01*
X143158056Y-71273637D01*
X143191112Y-71285668D01*
X143240493Y-71318663D01*
X143247638Y-71320084D01*
X143247640Y-71320085D01*
X143296430Y-71329790D01*
X143296431Y-71329790D01*
X143300000Y-71330500D01*
X143650000Y-71330500D01*
X143653569Y-71329790D01*
X143653570Y-71329790D01*
X143702360Y-71320085D01*
X143702362Y-71320084D01*
X143709507Y-71318663D01*
X143758888Y-71285668D01*
X143808056Y-71273637D01*
X143841112Y-71285668D01*
X143890493Y-71318663D01*
X143897638Y-71320084D01*
X143897640Y-71320085D01*
X143946430Y-71329790D01*
X143946431Y-71329790D01*
X143950000Y-71330500D01*
X144300000Y-71330500D01*
X144303569Y-71329790D01*
X144303570Y-71329790D01*
X144352360Y-71320085D01*
X144352362Y-71320084D01*
X144359507Y-71318663D01*
X144408888Y-71285668D01*
X144458056Y-71273637D01*
X144491112Y-71285668D01*
X144540493Y-71318663D01*
X144547638Y-71320084D01*
X144547640Y-71320085D01*
X144596430Y-71329790D01*
X144596431Y-71329790D01*
X144600000Y-71330500D01*
X144950000Y-71330500D01*
X144953568Y-71329790D01*
X144957185Y-71329434D01*
X144957220Y-71329792D01*
X144964443Y-71329077D01*
X144967851Y-71329077D01*
X144975000Y-71330499D01*
X144992983Y-71326922D01*
X145007420Y-71325500D01*
X145606240Y-71325500D01*
X145652770Y-71342436D01*
X145654690Y-71345309D01*
X145721359Y-71389856D01*
X145728504Y-71391277D01*
X145728506Y-71391278D01*
X145771294Y-71399789D01*
X145771295Y-71399789D01*
X145774864Y-71400499D01*
X145930232Y-71400499D01*
X145977798Y-71417812D01*
X145982558Y-71422173D01*
X147227827Y-72667443D01*
X147249219Y-72713320D01*
X147249501Y-72719769D01*
X147249500Y-73603445D01*
X147232187Y-73651011D01*
X147227826Y-73655771D01*
X147196944Y-73686653D01*
X147194303Y-73691836D01*
X147194301Y-73691839D01*
X147142128Y-73794236D01*
X147139347Y-73799694D01*
X147119500Y-73925000D01*
X147139347Y-74050306D01*
X147141991Y-74055496D01*
X147141993Y-74055501D01*
X147187806Y-74145414D01*
X147193975Y-74195655D01*
X147176741Y-74226748D01*
X147176761Y-74226761D01*
X147134382Y-74290185D01*
X147132961Y-74297330D01*
X147132960Y-74297332D01*
X147125210Y-74336294D01*
X147124500Y-74339864D01*
X147124500Y-74710135D01*
X147125210Y-74713704D01*
X147125210Y-74713705D01*
X147129807Y-74736813D01*
X147134382Y-74759814D01*
X147176761Y-74823239D01*
X147240185Y-74865618D01*
X147247330Y-74867039D01*
X147247332Y-74867040D01*
X147286294Y-74874790D01*
X147286295Y-74874790D01*
X147289864Y-74875500D01*
X147700510Y-74875500D01*
X147748076Y-74892813D01*
X147773386Y-74936650D01*
X147774510Y-74949500D01*
X147774510Y-75000500D01*
X147757197Y-75048066D01*
X147713360Y-75073376D01*
X147700510Y-75074500D01*
X147289865Y-75074500D01*
X147286296Y-75075210D01*
X147286295Y-75075210D01*
X147247332Y-75082960D01*
X147247330Y-75082961D01*
X147240185Y-75084382D01*
X147176761Y-75126761D01*
X147134382Y-75190185D01*
X147132961Y-75197330D01*
X147132960Y-75197332D01*
X147127584Y-75224359D01*
X147124500Y-75239864D01*
X147124500Y-75475943D01*
X147107187Y-75523509D01*
X147102826Y-75528269D01*
X146928187Y-75702908D01*
X146882311Y-75724300D01*
X146833416Y-75711199D01*
X146804382Y-75669735D01*
X146803283Y-75636145D01*
X146804790Y-75628570D01*
X146804790Y-75628569D01*
X146805500Y-75625000D01*
X146805500Y-74825000D01*
X146793663Y-74765493D01*
X146759955Y-74715045D01*
X146724379Y-74691274D01*
X146694447Y-74650453D01*
X146699557Y-74596150D01*
X146733007Y-74530501D01*
X146733009Y-74530496D01*
X146735653Y-74525306D01*
X146755500Y-74400000D01*
X146735653Y-74274694D01*
X146733009Y-74269504D01*
X146680699Y-74166839D01*
X146680697Y-74166836D01*
X146678056Y-74161653D01*
X146588347Y-74071944D01*
X146583164Y-74069303D01*
X146583161Y-74069301D01*
X146480496Y-74016991D01*
X146480494Y-74016990D01*
X146475306Y-74014347D01*
X146350000Y-73994500D01*
X146224694Y-74014347D01*
X146219506Y-74016990D01*
X146219504Y-74016991D01*
X146116839Y-74069301D01*
X146116836Y-74069303D01*
X146111653Y-74071944D01*
X146021944Y-74161653D01*
X146019303Y-74166836D01*
X146019301Y-74166839D01*
X145969830Y-74263933D01*
X145932809Y-74298455D01*
X145882260Y-74301105D01*
X145851569Y-74282664D01*
X145364514Y-73795610D01*
X145361847Y-73792800D01*
X145340690Y-73769303D01*
X145340691Y-73769303D01*
X145335485Y-73763522D01*
X145328378Y-73760358D01*
X145328377Y-73760357D01*
X145313229Y-73753613D01*
X145303031Y-73748076D01*
X145282603Y-73734810D01*
X145274212Y-73733481D01*
X145255691Y-73727995D01*
X145247924Y-73724537D01*
X145247572Y-73724500D01*
X145223334Y-73724500D01*
X145211760Y-73723589D01*
X145187937Y-73719816D01*
X145182264Y-73721336D01*
X145134966Y-73706875D01*
X145107397Y-73664423D01*
X145105500Y-73647776D01*
X145105500Y-73625000D01*
X145104790Y-73621430D01*
X145095085Y-73572640D01*
X145095084Y-73572638D01*
X145093663Y-73565493D01*
X145059955Y-73515045D01*
X145009507Y-73481337D01*
X145002362Y-73479916D01*
X145002360Y-73479915D01*
X144953570Y-73470210D01*
X144953569Y-73470210D01*
X144950000Y-73469500D01*
X144600000Y-73469500D01*
X144596431Y-73470210D01*
X144596430Y-73470210D01*
X144547640Y-73479915D01*
X144547638Y-73479916D01*
X144540493Y-73481337D01*
X144534434Y-73485385D01*
X144534435Y-73485385D01*
X144491112Y-73514332D01*
X144441944Y-73526363D01*
X144408888Y-73514332D01*
X144365565Y-73485385D01*
X144365566Y-73485385D01*
X144359507Y-73481337D01*
X144352362Y-73479916D01*
X144352360Y-73479915D01*
X144303570Y-73470210D01*
X144303569Y-73470210D01*
X144300000Y-73469500D01*
X143950000Y-73469500D01*
X143946431Y-73470210D01*
X143946430Y-73470210D01*
X143897640Y-73479915D01*
X143897638Y-73479916D01*
X143890493Y-73481337D01*
X143840045Y-73515045D01*
X143806337Y-73565493D01*
X143804916Y-73572638D01*
X143804915Y-73572640D01*
X143795210Y-73621430D01*
X143794500Y-73625000D01*
X143794500Y-74275000D01*
X143795210Y-74278569D01*
X143795210Y-74278570D01*
X143804915Y-74327356D01*
X143806337Y-74334507D01*
X143810384Y-74340564D01*
X143810385Y-74340566D01*
X143837030Y-74380443D01*
X143849501Y-74421555D01*
X143849501Y-74443490D01*
X143832188Y-74491056D01*
X143816614Y-74505018D01*
X143785753Y-74525639D01*
X143785752Y-74525640D01*
X143779691Y-74529690D01*
X143775641Y-74535751D01*
X143767994Y-74547195D01*
X143735144Y-74596359D01*
X143724500Y-74649864D01*
X143724500Y-75100135D01*
X143735143Y-75153640D01*
X143779690Y-75220309D01*
X143785751Y-75224359D01*
X143803613Y-75236294D01*
X143846359Y-75264857D01*
X143886671Y-75272876D01*
X143896294Y-75274790D01*
X143896295Y-75274790D01*
X143899864Y-75275500D01*
X144250135Y-75275500D01*
X144253704Y-75274790D01*
X144253705Y-75274790D01*
X144296493Y-75266279D01*
X144296495Y-75266278D01*
X144303640Y-75264857D01*
X144370309Y-75220310D01*
X144374360Y-75214248D01*
X144394981Y-75183387D01*
X144435802Y-75153456D01*
X144456509Y-75150500D01*
X144520500Y-75150500D01*
X144568066Y-75167813D01*
X144593376Y-75211650D01*
X144594500Y-75224500D01*
X144594500Y-75555502D01*
X144577187Y-75603068D01*
X144533350Y-75628378D01*
X144520500Y-75629502D01*
X143446055Y-75629502D01*
X143398489Y-75612189D01*
X143393729Y-75607828D01*
X142997164Y-75211264D01*
X142975772Y-75165388D01*
X142975490Y-75158938D01*
X142975490Y-74496105D01*
X142992803Y-74448539D01*
X143035054Y-74423527D01*
X143040063Y-74422531D01*
X143052360Y-74420085D01*
X143052362Y-74420084D01*
X143059507Y-74418663D01*
X143109955Y-74384955D01*
X143143663Y-74334507D01*
X143145086Y-74327356D01*
X143154790Y-74278570D01*
X143154790Y-74278569D01*
X143155500Y-74275000D01*
X143155500Y-73625000D01*
X143154790Y-73621430D01*
X143145085Y-73572640D01*
X143145084Y-73572638D01*
X143143663Y-73565493D01*
X143109955Y-73515045D01*
X143059507Y-73481337D01*
X143052362Y-73479916D01*
X143052360Y-73479915D01*
X143003570Y-73470210D01*
X143003569Y-73470210D01*
X143000000Y-73469500D01*
X142650000Y-73469500D01*
X142646431Y-73470210D01*
X142646430Y-73470210D01*
X142597640Y-73479915D01*
X142597638Y-73479916D01*
X142590493Y-73481337D01*
X142540045Y-73515045D01*
X142506337Y-73565493D01*
X142504916Y-73572638D01*
X142504915Y-73572640D01*
X142495210Y-73621430D01*
X142494500Y-73625000D01*
X142494500Y-74275000D01*
X142495210Y-74278569D01*
X142495210Y-74278570D01*
X142504914Y-74327356D01*
X142504915Y-74327359D01*
X142506337Y-74334507D01*
X142510388Y-74340570D01*
X142510389Y-74340572D01*
X142512020Y-74343013D01*
X142524491Y-74384124D01*
X142524490Y-74844301D01*
X142524490Y-75275850D01*
X142524389Y-75279723D01*
X142522328Y-75319051D01*
X142525116Y-75326313D01*
X142525116Y-75326315D01*
X142531055Y-75341786D01*
X142534354Y-75352921D01*
X142539418Y-75376746D01*
X142544414Y-75383622D01*
X142553631Y-75400598D01*
X142556677Y-75408533D01*
X142556899Y-75408808D01*
X142574037Y-75425946D01*
X142581575Y-75434771D01*
X142595755Y-75454289D01*
X142602488Y-75458176D01*
X142602491Y-75458179D01*
X142602994Y-75458469D01*
X142618319Y-75470228D01*
X143157493Y-76009402D01*
X143160160Y-76012212D01*
X143186513Y-76041480D01*
X143193619Y-76044644D01*
X143208768Y-76051389D01*
X143218965Y-76056924D01*
X143239394Y-76070191D01*
X143247787Y-76071520D01*
X143266305Y-76077006D01*
X143267253Y-76077428D01*
X143274074Y-76080465D01*
X143274426Y-76080502D01*
X143298663Y-76080502D01*
X143310241Y-76081413D01*
X143334060Y-76085186D01*
X143341572Y-76083173D01*
X143341576Y-76083173D01*
X143342131Y-76083024D01*
X143361285Y-76080502D01*
X143603100Y-76080502D01*
X143650666Y-76097815D01*
X143675976Y-76141652D01*
X143675679Y-76168934D01*
X143675210Y-76171292D01*
X143675209Y-76171298D01*
X143674500Y-76174864D01*
X143674500Y-76625135D01*
X143675210Y-76628704D01*
X143675210Y-76628705D01*
X143683535Y-76670555D01*
X143685143Y-76678640D01*
X143729503Y-76745029D01*
X143729690Y-76745309D01*
X143729647Y-76745338D01*
X143749219Y-76787311D01*
X143749501Y-76793761D01*
X143749501Y-76855231D01*
X143732188Y-76902797D01*
X143727827Y-76907557D01*
X143457559Y-77177826D01*
X143411683Y-77199218D01*
X143405233Y-77199500D01*
X143249865Y-77199500D01*
X143246296Y-77200210D01*
X143246295Y-77200210D01*
X143203507Y-77208721D01*
X143203505Y-77208722D01*
X143196360Y-77210143D01*
X143129691Y-77254690D01*
X143085144Y-77321359D01*
X143074500Y-77374864D01*
X143074500Y-77825135D01*
X143075210Y-77828704D01*
X143075210Y-77828705D01*
X143083721Y-77871493D01*
X143083722Y-77871495D01*
X143085143Y-77878640D01*
X143089190Y-77884697D01*
X143089191Y-77884699D01*
X143124529Y-77937585D01*
X143137001Y-77978699D01*
X143137000Y-78075501D01*
X143119687Y-78123067D01*
X143075849Y-78148376D01*
X143063000Y-78149500D01*
X142724864Y-78149500D01*
X142721295Y-78150210D01*
X142721294Y-78150210D01*
X142668938Y-78160624D01*
X142668936Y-78160625D01*
X142661791Y-78162046D01*
X142655734Y-78166093D01*
X142655732Y-78166094D01*
X142650424Y-78169641D01*
X142623749Y-78180691D01*
X142605518Y-78184317D01*
X142579812Y-78189430D01*
X142579810Y-78189431D01*
X142572665Y-78190852D01*
X142566607Y-78194900D01*
X142559871Y-78197690D01*
X142559415Y-78196588D01*
X142517607Y-78206817D01*
X142472209Y-78184427D01*
X142459730Y-78166852D01*
X142411964Y-78073104D01*
X142411962Y-78073101D01*
X142409321Y-78067918D01*
X142319612Y-77978209D01*
X142314426Y-77975567D01*
X142309711Y-77972141D01*
X142310717Y-77970757D01*
X142281381Y-77939296D01*
X142275500Y-77910385D01*
X142275500Y-70156079D01*
X142286902Y-70124754D01*
X142276860Y-70108041D01*
X142275500Y-70093921D01*
X142275500Y-68723057D01*
X142292813Y-68675491D01*
X142336650Y-68650181D01*
X142386500Y-68658971D01*
X142401826Y-68670731D01*
X142452826Y-68721731D01*
X142474218Y-68767607D01*
X142474500Y-68774057D01*
X142474500Y-69010135D01*
X142484382Y-69059814D01*
X142488430Y-69065872D01*
X142517040Y-69108689D01*
X142526761Y-69123238D01*
X142532822Y-69127288D01*
X142582755Y-69160653D01*
X142590185Y-69165618D01*
X142597333Y-69167040D01*
X142597336Y-69167041D01*
X142636294Y-69174790D01*
X142636295Y-69174790D01*
X142639864Y-69175500D01*
X143010135Y-69175500D01*
X143013704Y-69174790D01*
X143013705Y-69174790D01*
X143052667Y-69167040D01*
X143052669Y-69167039D01*
X143059814Y-69165618D01*
X143123238Y-69123239D01*
X143165617Y-69059815D01*
X143175500Y-69010136D01*
X143175500Y-68539865D01*
X143165618Y-68490186D01*
X143123239Y-68426762D01*
X143120756Y-68425103D01*
X143100401Y-68381451D01*
X143113502Y-68332556D01*
X143118871Y-68326157D01*
X143123239Y-68323239D01*
X143165618Y-68259815D01*
X143175500Y-68210136D01*
X143175500Y-68129275D01*
X143192813Y-68081709D01*
X143197174Y-68076949D01*
X143676949Y-67597174D01*
X143722825Y-67575782D01*
X143729275Y-67575500D01*
X143790136Y-67575500D01*
X143793705Y-67574790D01*
X143793706Y-67574790D01*
X143840318Y-67565518D01*
X143847467Y-67564096D01*
X143853528Y-67560047D01*
X143853529Y-67560046D01*
X143911320Y-67521433D01*
X143911322Y-67521431D01*
X143917382Y-67517382D01*
X143964096Y-67447468D01*
X143975500Y-67390137D01*
X143975500Y-66959864D01*
X143964096Y-66902532D01*
X143917382Y-66832618D01*
X143902552Y-66822709D01*
X143853527Y-66789952D01*
X143853525Y-66789951D01*
X143847468Y-66785904D01*
X143840323Y-66784483D01*
X143840321Y-66784482D01*
X143793707Y-66775210D01*
X143793706Y-66775210D01*
X143790137Y-66774500D01*
X143786498Y-66774500D01*
X143782883Y-66774144D01*
X143783095Y-66771990D01*
X143742425Y-66757187D01*
X143717115Y-66713350D01*
X143725905Y-66663500D01*
X143737665Y-66648174D01*
X143779400Y-66606439D01*
X143782210Y-66603772D01*
X143811478Y-66577419D01*
X143821387Y-66555164D01*
X143826922Y-66544967D01*
X143840189Y-66524538D01*
X143841518Y-66516145D01*
X143847004Y-66497627D01*
X143848095Y-66495176D01*
X143850463Y-66489858D01*
X143850500Y-66489506D01*
X143850500Y-66465269D01*
X143851411Y-66453692D01*
X143853967Y-66437555D01*
X143855184Y-66429872D01*
X143853171Y-66422360D01*
X143853171Y-66422356D01*
X143853022Y-66421801D01*
X143850500Y-66402647D01*
X143850500Y-66401624D01*
X143867813Y-66354058D01*
X143883390Y-66340094D01*
X143911320Y-66321433D01*
X143911323Y-66321430D01*
X143917382Y-66317382D01*
X143964096Y-66247468D01*
X143975500Y-66190137D01*
X143975500Y-65759864D01*
X143964096Y-65702532D01*
X143917382Y-65632618D01*
X143902552Y-65622709D01*
X143853527Y-65589952D01*
X143853525Y-65589951D01*
X143847468Y-65585904D01*
X143840323Y-65584483D01*
X143840321Y-65584482D01*
X143793707Y-65575210D01*
X143793706Y-65575210D01*
X143790137Y-65574500D01*
X143607123Y-65574500D01*
X143559557Y-65557187D01*
X143554797Y-65552826D01*
X143322580Y-65320610D01*
X143319913Y-65317800D01*
X143298756Y-65294303D01*
X143298757Y-65294303D01*
X143293551Y-65288522D01*
X143286444Y-65285358D01*
X143286443Y-65285357D01*
X143271295Y-65278613D01*
X143261097Y-65273076D01*
X143240669Y-65259810D01*
X143232278Y-65258481D01*
X143213757Y-65252995D01*
X143205990Y-65249537D01*
X143205638Y-65249500D01*
X143181400Y-65249500D01*
X143169826Y-65248589D01*
X143146003Y-65244816D01*
X143138491Y-65246829D01*
X143138488Y-65246829D01*
X143137932Y-65246978D01*
X143118778Y-65249500D01*
X142699078Y-65249500D01*
X142695205Y-65249399D01*
X142663643Y-65247745D01*
X142655876Y-65247338D01*
X142648614Y-65250126D01*
X142648612Y-65250126D01*
X142633141Y-65256065D01*
X142622005Y-65259364D01*
X142605791Y-65262810D01*
X142605789Y-65262811D01*
X142598181Y-65264428D01*
X142591303Y-65269425D01*
X142574332Y-65278640D01*
X142566395Y-65281687D01*
X142566120Y-65281909D01*
X142548985Y-65299044D01*
X142540155Y-65306586D01*
X142520639Y-65320765D01*
X142516750Y-65327501D01*
X142516459Y-65328004D01*
X142504700Y-65343329D01*
X141895610Y-65952420D01*
X141892800Y-65955087D01*
X141863522Y-65981449D01*
X141860359Y-65988554D01*
X141860357Y-65988556D01*
X141853613Y-66003702D01*
X141848075Y-66013904D01*
X141834810Y-66034331D01*
X141833594Y-66042011D01*
X141833481Y-66042723D01*
X141827995Y-66061244D01*
X141824537Y-66069011D01*
X141824500Y-66069363D01*
X141824500Y-66093600D01*
X141823589Y-66105174D01*
X141819816Y-66128997D01*
X141821829Y-66136509D01*
X141821829Y-66136512D01*
X141821978Y-66137068D01*
X141824500Y-66156222D01*
X141824501Y-77965974D01*
X141807188Y-78013540D01*
X141802827Y-78018300D01*
X141776326Y-78044801D01*
X141730450Y-78066193D01*
X141681555Y-78053092D01*
X141652521Y-78011628D01*
X141650000Y-77992475D01*
X141650000Y-65823193D01*
X141652944Y-65802530D01*
X141653213Y-65801606D01*
X141653214Y-65801601D01*
X141654569Y-65796941D01*
X141656410Y-65710122D01*
X141656673Y-65705275D01*
X141660586Y-65660550D01*
X141661427Y-65654154D01*
X141662430Y-65648469D01*
X141687253Y-65507695D01*
X141688651Y-65501393D01*
X141697393Y-65468768D01*
X141699334Y-65462612D01*
X141748326Y-65328004D01*
X141750193Y-65322875D01*
X141752658Y-65316924D01*
X141766940Y-65286296D01*
X141769920Y-65280572D01*
X141825917Y-65183581D01*
X141844281Y-65151773D01*
X141847735Y-65146352D01*
X141867124Y-65118663D01*
X141871037Y-65113563D01*
X141966637Y-64999632D01*
X141970997Y-64994874D01*
X141994882Y-64970989D01*
X141999628Y-64966640D01*
X142113558Y-64871041D01*
X142118675Y-64867116D01*
X142146341Y-64847743D01*
X142151781Y-64844277D01*
X142280570Y-64769920D01*
X142286293Y-64766941D01*
X142316918Y-64752661D01*
X142322882Y-64750191D01*
X142462612Y-64699334D01*
X142468768Y-64697393D01*
X142501393Y-64688651D01*
X142507695Y-64687253D01*
X142584412Y-64673725D01*
X142654162Y-64661426D01*
X142660550Y-64660586D01*
X142705275Y-64656673D01*
X142710122Y-64656410D01*
X142784318Y-64654837D01*
X142792086Y-64654672D01*
X142796941Y-64654569D01*
X142801601Y-64653214D01*
X142801606Y-64653213D01*
X142802530Y-64652944D01*
X142823193Y-64650000D01*
X158050707Y-64650000D01*
X158065835Y-64652293D01*
G37*
%TD.AperFunction*%
%TA.AperFunction,Conductor*%
G36*
X141765113Y-81268978D02*
G01*
X141790300Y-81285808D01*
X141790302Y-81285809D01*
X141796359Y-81289856D01*
X141803504Y-81291277D01*
X141803506Y-81291278D01*
X141846294Y-81299789D01*
X141846295Y-81299789D01*
X141849864Y-81300499D01*
X141877115Y-81300499D01*
X142075942Y-81300500D01*
X142123509Y-81317813D01*
X142128268Y-81322174D01*
X142410504Y-81604410D01*
X142413171Y-81607220D01*
X142439515Y-81636478D01*
X142456275Y-81643940D01*
X142461764Y-81646384D01*
X142471968Y-81651924D01*
X142492396Y-81665190D01*
X142500788Y-81666519D01*
X142519309Y-81672005D01*
X142527076Y-81675463D01*
X142527428Y-81675500D01*
X142545883Y-81675500D01*
X142585678Y-81689985D01*
X142587012Y-81687988D01*
X142661791Y-81737954D01*
X142668936Y-81739375D01*
X142668938Y-81739376D01*
X142721294Y-81749790D01*
X142721295Y-81749790D01*
X142724864Y-81750500D01*
X144100136Y-81750500D01*
X144103705Y-81749790D01*
X144103706Y-81749790D01*
X144114962Y-81747551D01*
X144163209Y-81737954D01*
X144163308Y-81738454D01*
X144208266Y-81736493D01*
X144238338Y-81754741D01*
X144261653Y-81778056D01*
X144266836Y-81780697D01*
X144266839Y-81780699D01*
X144369504Y-81833009D01*
X144369506Y-81833010D01*
X144374694Y-81835653D01*
X144500000Y-81855500D01*
X144625306Y-81835653D01*
X144630494Y-81833010D01*
X144630496Y-81833009D01*
X144733161Y-81780699D01*
X144733164Y-81780697D01*
X144738347Y-81778056D01*
X144828056Y-81688347D01*
X144863034Y-81619698D01*
X144900053Y-81585177D01*
X144950603Y-81582527D01*
X144976479Y-81598075D01*
X144976658Y-81598343D01*
X144989943Y-81607220D01*
X144991904Y-81608530D01*
X145003118Y-81617733D01*
X145608558Y-82223174D01*
X145629950Y-82269051D01*
X145616849Y-82317945D01*
X145575385Y-82346979D01*
X145556232Y-82349500D01*
X144464759Y-82349500D01*
X144417193Y-82332187D01*
X144412433Y-82327826D01*
X144362727Y-82278120D01*
X144353524Y-82266906D01*
X144347384Y-82257717D01*
X144343335Y-82251657D01*
X144327554Y-82241112D01*
X144310459Y-82229690D01*
X144252335Y-82190852D01*
X144201251Y-82180691D01*
X144174576Y-82169641D01*
X144169268Y-82166094D01*
X144169266Y-82166093D01*
X144163209Y-82162046D01*
X144156064Y-82160625D01*
X144156062Y-82160624D01*
X144103706Y-82150210D01*
X144103705Y-82150210D01*
X144100136Y-82149500D01*
X142724864Y-82149500D01*
X142721295Y-82150210D01*
X142721294Y-82150210D01*
X142668938Y-82160624D01*
X142668936Y-82160625D01*
X142661791Y-82162046D01*
X142655733Y-82166094D01*
X142649038Y-82168867D01*
X142620720Y-82174500D01*
X142182419Y-82174500D01*
X142167983Y-82173078D01*
X142157148Y-82170923D01*
X142149999Y-82169501D01*
X142142850Y-82170923D01*
X142132011Y-82173079D01*
X142117574Y-82174501D01*
X141941480Y-82174500D01*
X141849865Y-82174500D01*
X141846296Y-82175210D01*
X141846295Y-82175210D01*
X141803507Y-82183721D01*
X141803505Y-82183722D01*
X141796360Y-82185143D01*
X141790301Y-82189191D01*
X141790302Y-82189191D01*
X141765112Y-82206022D01*
X141715943Y-82218053D01*
X141670545Y-82195665D01*
X141650000Y-82144493D01*
X141650000Y-81330506D01*
X141667313Y-81282940D01*
X141711150Y-81257630D01*
X141765113Y-81268978D01*
G37*
%TD.AperFunction*%
%TD*%
M02*
