%TF.GenerationSoftware,KiCad,Pcbnew,(5.99.0-7706-gdc1c80beb8)*%
%TF.CreationDate,2020-12-31T13:50:12+03:00*%
%TF.ProjectId,USBtoCANFD,55534274-6f43-4414-9e46-442e6b696361,rev?*%
%TF.SameCoordinates,Original*%
%TF.FileFunction,Paste,Top*%
%TF.FilePolarity,Positive*%
%FSLAX46Y46*%
G04 Gerber Fmt 4.6, Leading zero omitted, Abs format (unit mm)*
G04 Created by KiCad (PCBNEW (5.99.0-7706-gdc1c80beb8)) date 2020-12-31 13:50:12*
%MOMM*%
%LPD*%
G01*
G04 APERTURE LIST*
G04 Aperture macros list*
%AMRoundRect*
0 Rectangle with rounded corners*
0 $1 Rounding radius*
0 $2 $3 $4 $5 $6 $7 $8 $9 X,Y pos of 4 corners*
0 Add a 4 corners polygon primitive as box body*
4,1,4,$2,$3,$4,$5,$6,$7,$8,$9,$2,$3,0*
0 Add four circle primitives for the rounded corners*
1,1,$1+$1,$2,$3,0*
1,1,$1+$1,$4,$5,0*
1,1,$1+$1,$6,$7,0*
1,1,$1+$1,$8,$9,0*
0 Add four rect primitives between the rounded corners*
20,1,$1+$1,$2,$3,$4,$5,0*
20,1,$1+$1,$4,$5,$6,$7,0*
20,1,$1+$1,$6,$7,$8,$9,0*
20,1,$1+$1,$8,$9,$2,$3,0*%
G04 Aperture macros list end*
%ADD10RoundRect,0.045000X-0.235000X0.135000X-0.235000X-0.135000X0.235000X-0.135000X0.235000X0.135000X0*%
%ADD11RoundRect,0.045000X0.185000X-0.135000X0.185000X0.135000X-0.185000X0.135000X-0.185000X-0.135000X0*%
%ADD12RoundRect,0.325000X0.325000X1.925000X-0.325000X1.925000X-0.325000X-1.925000X0.325000X-1.925000X0*%
%ADD13RoundRect,0.199800X0.700200X1.750200X-0.700200X1.750200X-0.700200X-1.750200X0.700200X-1.750200X0*%
%ADD14RoundRect,0.056250X-0.496875X-0.056250X0.496875X-0.056250X0.496875X0.056250X-0.496875X0.056250X0*%
%ADD15RoundRect,0.056250X-0.056250X-0.496875X0.056250X-0.496875X0.056250X0.496875X-0.056250X0.496875X0*%
%ADD16RoundRect,0.045000X0.180000X0.305000X-0.180000X0.305000X-0.180000X-0.305000X0.180000X-0.305000X0*%
%ADD17RoundRect,0.045000X-0.185000X0.135000X-0.185000X-0.135000X0.185000X-0.135000X0.185000X0.135000X0*%
%ADD18RoundRect,0.036000X0.194000X-0.144000X0.194000X0.144000X-0.194000X0.144000X-0.194000X-0.144000X0*%
%ADD19R,0.450000X0.700000*%
%ADD20RoundRect,0.045000X0.135000X0.185000X-0.135000X0.185000X-0.135000X-0.185000X0.135000X-0.185000X0*%
%ADD21RoundRect,0.045000X-0.135000X-0.185000X0.135000X-0.185000X0.135000X0.185000X-0.135000X0.185000X0*%
%ADD22RoundRect,0.200200X0.449800X-0.149800X0.449800X0.149800X-0.449800X0.149800X-0.449800X-0.149800X0*%
%ADD23RoundRect,0.200250X0.249750X-0.174750X0.249750X0.174750X-0.249750X0.174750X-0.249750X-0.174750X0*%
%ADD24RoundRect,0.036000X-0.144000X-0.194000X0.144000X-0.194000X0.144000X0.194000X-0.144000X0.194000X0*%
%ADD25RoundRect,0.036000X0.144000X0.194000X-0.144000X0.194000X-0.144000X-0.194000X0.144000X-0.194000X0*%
%ADD26R,1.000000X0.600000*%
%ADD27R,0.350000X0.650000*%
%ADD28RoundRect,0.036000X-0.194000X0.144000X-0.194000X-0.144000X0.194000X-0.144000X0.194000X0.144000X0*%
%ADD29RoundRect,0.054000X0.126000X-0.176000X0.126000X0.176000X-0.126000X0.176000X-0.126000X-0.176000X0*%
%ADD30C,0.200000*%
G04 APERTURE END LIST*
D10*
%TO.C,D1*%
X153425000Y-84850000D03*
X153425000Y-85750000D03*
%TD*%
D11*
%TO.C,C3*%
X154324999Y-84700000D03*
X154324999Y-83800000D03*
%TD*%
%TO.C,C1*%
X157225000Y-84700000D03*
X157225000Y-83800000D03*
%TD*%
D12*
%TO.C,J2*%
X154200000Y-73650000D03*
X151700000Y-73650000D03*
X149200000Y-73650000D03*
D13*
X157400000Y-66650000D03*
X146000000Y-66650000D03*
%TD*%
D14*
%TO.C,U3*%
X143412500Y-78450000D03*
X143412500Y-78950000D03*
X143412500Y-79450000D03*
X143412500Y-79950000D03*
X143412500Y-80450000D03*
X143412500Y-80950000D03*
X143412500Y-81450000D03*
X143412500Y-81950000D03*
X143412500Y-82450000D03*
X143412500Y-82950000D03*
X143412500Y-83450000D03*
X143412500Y-83950000D03*
D15*
X144825000Y-85362500D03*
X145325000Y-85362500D03*
X145825000Y-85362500D03*
X146325000Y-85362500D03*
X146825000Y-85362500D03*
X147325000Y-85362500D03*
X147825000Y-85362500D03*
X148325000Y-85362500D03*
X148825000Y-85362500D03*
X149325000Y-85362500D03*
X149825000Y-85362500D03*
X150325000Y-85362500D03*
D14*
X151737500Y-83950000D03*
X151737500Y-83450000D03*
X151737500Y-82950000D03*
X151737500Y-82450000D03*
X151737500Y-81950000D03*
X151737500Y-81450000D03*
X151737500Y-80950000D03*
X151737500Y-80450000D03*
X151737500Y-79950000D03*
X151737500Y-79450000D03*
X151737500Y-78950000D03*
X151737500Y-78450000D03*
D15*
X150325000Y-77037500D03*
X149825000Y-77037500D03*
X149325000Y-77037500D03*
X148825000Y-77037500D03*
X148325000Y-77037500D03*
X147825000Y-77037500D03*
X147325000Y-77037500D03*
X146825000Y-77037500D03*
X146325000Y-77037500D03*
X145825000Y-77037500D03*
X145325000Y-77037500D03*
X144825000Y-77037500D03*
%TD*%
D16*
%TO.C,R1*%
X153050000Y-76650000D03*
X151700000Y-76650000D03*
%TD*%
D17*
%TO.C,C6*%
X142075000Y-82525000D03*
X142075000Y-83425000D03*
%TD*%
D18*
%TO.C,R5*%
X147525000Y-75425000D03*
X147525000Y-74525000D03*
%TD*%
D19*
%TO.C,FB1*%
X145025000Y-75225000D03*
X146375000Y-75225000D03*
%TD*%
D20*
%TO.C,C9*%
X144025000Y-76400000D03*
X143125000Y-76400000D03*
%TD*%
D21*
%TO.C,C8*%
X151700000Y-77600000D03*
X152600000Y-77600000D03*
%TD*%
D22*
%TO.C,SW1*%
X153575000Y-78800000D03*
X153575000Y-79800000D03*
X153575000Y-80800000D03*
D23*
X156725000Y-76825000D03*
X154525000Y-76825000D03*
X154525000Y-82775000D03*
X156725000Y-82775000D03*
%TD*%
D24*
%TO.C,R3*%
X142825000Y-67975000D03*
X143725000Y-67975000D03*
%TD*%
D11*
%TO.C,C2*%
X155025000Y-84700000D03*
X155025000Y-83800000D03*
%TD*%
D25*
%TO.C,R2*%
X143725000Y-68775000D03*
X142825000Y-68775000D03*
%TD*%
D17*
%TO.C,C5*%
X146000000Y-71050000D03*
X146000000Y-71950000D03*
%TD*%
D26*
%TO.C,U2*%
X143200000Y-72012500D03*
X144400000Y-72787500D03*
X143200000Y-72787500D03*
X144400000Y-72012500D03*
D27*
X142825000Y-73950000D03*
X143475000Y-73950000D03*
X144125000Y-73950000D03*
X144775000Y-73950000D03*
X144775000Y-70850000D03*
X144125000Y-70850000D03*
X143475000Y-70850000D03*
X142825000Y-70850000D03*
%TD*%
D11*
%TO.C,C7*%
X151675000Y-85750000D03*
X151675000Y-84850000D03*
%TD*%
D20*
%TO.C,C10*%
X143425000Y-77600000D03*
X142525000Y-77600000D03*
%TD*%
D28*
%TO.C,R4*%
X142075001Y-79375000D03*
X142075001Y-80275000D03*
%TD*%
D29*
%TO.C,D3*%
X143625000Y-65975000D03*
X143625000Y-67175000D03*
X142925000Y-65975000D03*
X142925000Y-67175000D03*
%TD*%
D30*
%TO.C,U1*%
X156300000Y-84425000D03*
X155950000Y-84425000D03*
X156300000Y-84075000D03*
X155950000Y-84075000D03*
%TD*%
D17*
%TO.C,C11*%
X142075000Y-80950000D03*
X142075000Y-81850000D03*
%TD*%
D20*
%TO.C,C4*%
X144075000Y-74875000D03*
X143175000Y-74875000D03*
%TD*%
D10*
%TO.C,D2*%
X152525000Y-84850000D03*
X152525000Y-85750000D03*
%TD*%
M02*
