M48
; DRILL file {KiCad (5.99.0-7706-gdc1c80beb8)} date Thu Dec 31 13:50:08 2020
; FORMAT={-:-/ absolute / metric / decimal}
; #@! TF.CreationDate,2020-12-31T13:50:08+03:00
; #@! TF.GenerationSoftware,Kicad,Pcbnew,(5.99.0-7706-gdc1c80beb8)
FMAT,2
METRIC
T1C0.300
T2C1.000
T3C0.900
T4C2.000
%
G90
G05
T1
X142.075Y-84.125
X142.081Y-78.306
X142.625Y-76.9
X142.825Y-70.125
X143.54Y-75.38
X144.3Y-68.775
X144.335Y-67.975
X144.4Y-65.35
X144.476Y-78.975
X144.5Y-81.45
X144.66Y-83.18
X144.875Y-82.05
X145.325Y-78.15
X145.37Y-70.52
X145.7Y-80.67
X145.95Y-82.625
X146.0Y-72.525
X146.32Y-70.46
X146.35Y-74.4
X146.52Y-81.32
X146.73Y-83.22
X146.825Y-78.25
X147.45Y-65.35
X147.45Y-68.7
X147.5Y-82.01
X147.525Y-73.925
X147.53Y-78.27
X147.533Y-80.737
X148.42Y-81.37
X148.63Y-79.39
X148.69Y-83.22
X148.71Y-82.05
X148.85Y-71.0
X148.99Y-80.61
X149.32Y-83.883
X149.71Y-78.29
X149.75Y-70.4
X150.0Y-83.87
X150.233Y-83.226
X150.5Y-78.325
X150.55Y-82.02
X150.57Y-80.87
X150.6Y-65.35
X150.625Y-79.4
X150.75Y-70.3
X150.85Y-76.35
X150.97Y-85.14
X153.35Y-65.35
X154.2Y-70.8
X154.325Y-85.35
X154.736Y-81.859
X155.4Y-83.1
X155.45Y-87.85
X155.6Y-75.175
X155.635Y-76.825
X156.05Y-65.35
X157.13Y-81.96
X157.15Y-77.7
X158.0Y-69.1
X158.0Y-72.5
X158.0Y-75.7
X158.0Y-84.95
T2
X146.19Y-87.6
X148.73Y-87.6
X151.27Y-87.6
X153.81Y-87.6
T3
X155.625Y-78.3
X155.625Y-81.3
T4
X143.5Y-86.5
X156.5Y-86.5
T0
M30
