%FSLAX45Y45*%
G04 Gerber Fmt 4.5, Leading zero omitted, Abs format (unit mm)*
G04 Created by KiCad (PCBNEW (5.99.0-7706-gdc1c80beb8)) date 2020-12-31 13:50:07*
%MOMM*%
%LPD*%
G01*
G04 APERTURE LIST*
%TA.AperFunction,Profile*%
%ADD10C,0.100000*%
%TD*%
%ADD11C,0.200000*%
%ADD12C,0.030000*%
%ADD13C,0.100000*%
%ADD14C,0.090000*%
G04 APERTURE END LIST*
D10*
X15650000Y-8850000D02*
G75*
G03*
X15850000Y-8650000I0J200000D01*
G01*
X14350000Y-8850000D02*
G75*
G02*
X14150000Y-8650000I0J200000D01*
G01*
X15650000Y-8850000D02*
X15610000Y-8850000D01*
X15595000Y-10000000D02*
X14405000Y-10000000D01*
X14150000Y-8650000D02*
X14150000Y-6577500D01*
X15850000Y-6490000D02*
X15850000Y-8650000D01*
X15610000Y-8850000D02*
X15610000Y-9985000D01*
X14150000Y-6577500D02*
G75*
G02*
X14277500Y-6450000I127500J0D01*
G01*
X15810000Y-6450000D02*
G75*
G02*
X15850000Y-6490000I0J-40000D01*
G01*
X14277500Y-6450000D02*
X15810000Y-6450000D01*
X14390000Y-9985000D02*
X14390000Y-8850000D01*
X14350000Y-8850000D02*
X14390000Y-8850000D01*
X14390000Y-9985000D02*
G75*
G03*
X14405000Y-10000000I15000J0D01*
G01*
X15610000Y-9985000D02*
G75*
G02*
X15595000Y-10000000I-15000J0D01*
G01*
D11*
D12*
X14192500Y-8397500D02*
X14222500Y-8427500D01*
X14222500Y-8397500D02*
X14192500Y-8427500D01*
X14193127Y-7815627D02*
X14223127Y-7845627D01*
X14223127Y-7815627D02*
X14193127Y-7845627D01*
X14247500Y-7675000D02*
X14277500Y-7705000D01*
X14277500Y-7675000D02*
X14247500Y-7705000D01*
X14267500Y-6997500D02*
X14297500Y-7027500D01*
X14297500Y-6997500D02*
X14267500Y-7027500D01*
X14339000Y-7523000D02*
X14369000Y-7553000D01*
X14369000Y-7523000D02*
X14339000Y-7553000D01*
X14415000Y-6862500D02*
X14445000Y-6892500D01*
X14445000Y-6862500D02*
X14415000Y-6892500D01*
X14418500Y-6782500D02*
X14448500Y-6812500D01*
X14448500Y-6782500D02*
X14418500Y-6812500D01*
X14425000Y-6520000D02*
X14455000Y-6550000D01*
X14455000Y-6520000D02*
X14425000Y-6550000D01*
X14432649Y-7882501D02*
X14462649Y-7912501D01*
X14462649Y-7882501D02*
X14432649Y-7912501D01*
X14435000Y-8130000D02*
X14465000Y-8160000D01*
X14465000Y-8130000D02*
X14435000Y-8160000D01*
X14451000Y-8303000D02*
X14481000Y-8333000D01*
X14481000Y-8303000D02*
X14451000Y-8333000D01*
X14472500Y-8190000D02*
X14502500Y-8220000D01*
X14502500Y-8190000D02*
X14472500Y-8220000D01*
X14517500Y-7800000D02*
X14547500Y-7830000D01*
X14547500Y-7800000D02*
X14517500Y-7830000D01*
X14522000Y-7037000D02*
X14552000Y-7067000D01*
X14552000Y-7037000D02*
X14522000Y-7067000D01*
X14555001Y-8052000D02*
X14585001Y-8082000D01*
X14585001Y-8052000D02*
X14555001Y-8082000D01*
X14580000Y-8247500D02*
X14610000Y-8277500D01*
X14610000Y-8247500D02*
X14580000Y-8277500D01*
X14585000Y-7237500D02*
X14615000Y-7267500D01*
X14615000Y-7237500D02*
X14585000Y-7267500D01*
X14617000Y-7031000D02*
X14647000Y-7061000D01*
X14647000Y-7031000D02*
X14617000Y-7061000D01*
X14620000Y-7425000D02*
X14650000Y-7455000D01*
X14650000Y-7425000D02*
X14620000Y-7455000D01*
X14637000Y-8117000D02*
X14667000Y-8147000D01*
X14667000Y-8117000D02*
X14637000Y-8147000D01*
X14658000Y-8307000D02*
X14688000Y-8337000D01*
X14688000Y-8307000D02*
X14658000Y-8337000D01*
X14667500Y-7810000D02*
X14697500Y-7840000D01*
X14697500Y-7810000D02*
X14667500Y-7840000D01*
X14730000Y-6520000D02*
X14760000Y-6550000D01*
X14760000Y-6520000D02*
X14730000Y-6550000D01*
X14730000Y-6855000D02*
X14760000Y-6885000D01*
X14760000Y-6855000D02*
X14730000Y-6885000D01*
X14735000Y-8186000D02*
X14765000Y-8216000D01*
X14765000Y-8186000D02*
X14735000Y-8216000D01*
X14737500Y-7377500D02*
X14767500Y-7407500D01*
X14767500Y-7377500D02*
X14737500Y-7407500D01*
X14738000Y-7812000D02*
X14768000Y-7842000D01*
X14768000Y-7812000D02*
X14738000Y-7842000D01*
X14738337Y-8058715D02*
X14768337Y-8088715D01*
X14768337Y-8058715D02*
X14738337Y-8088715D01*
X14827000Y-8122000D02*
X14857000Y-8152000D01*
X14857000Y-8122000D02*
X14827000Y-8152000D01*
X14848000Y-7924000D02*
X14878000Y-7954000D01*
X14878000Y-7924000D02*
X14848000Y-7954000D01*
X14854000Y-8307000D02*
X14884000Y-8337000D01*
X14884000Y-8307000D02*
X14854000Y-8337000D01*
X14856000Y-8190000D02*
X14886000Y-8220000D01*
X14886000Y-8190000D02*
X14856000Y-8220000D01*
X14870000Y-7085000D02*
X14900000Y-7115000D01*
X14900000Y-7085000D02*
X14870000Y-7115000D01*
X14884000Y-8046000D02*
X14914000Y-8076000D01*
X14914000Y-8046000D02*
X14884000Y-8076000D01*
X14917040Y-8373320D02*
X14947040Y-8403320D01*
X14947040Y-8373320D02*
X14917040Y-8403320D01*
X14956000Y-7814000D02*
X14986000Y-7844000D01*
X14986000Y-7814000D02*
X14956000Y-7844000D01*
X14960000Y-7025000D02*
X14990000Y-7055000D01*
X14990000Y-7025000D02*
X14960000Y-7055000D01*
X14985000Y-8372000D02*
X15015000Y-8402000D01*
X15015000Y-8372000D02*
X14985000Y-8402000D01*
X15008309Y-8307557D02*
X15038309Y-8337557D01*
X15038309Y-8307557D02*
X15008309Y-8337557D01*
X15035000Y-7817500D02*
X15065000Y-7847500D01*
X15065000Y-7817500D02*
X15035000Y-7847500D01*
X15040000Y-8187000D02*
X15070000Y-8217000D01*
X15070000Y-8187000D02*
X15040000Y-8217000D01*
X15042000Y-8072000D02*
X15072000Y-8102000D01*
X15072000Y-8072000D02*
X15042000Y-8102000D01*
X15045000Y-6520000D02*
X15075000Y-6550000D01*
X15075000Y-6520000D02*
X15045000Y-6550000D01*
X15047500Y-7925000D02*
X15077500Y-7955000D01*
X15077500Y-7925000D02*
X15047500Y-7955000D01*
X15060000Y-7015000D02*
X15090000Y-7045000D01*
X15090000Y-7015000D02*
X15060000Y-7045000D01*
X15070000Y-7620000D02*
X15100000Y-7650000D01*
X15100000Y-7620000D02*
X15070000Y-7650000D01*
X15082000Y-8499000D02*
X15112000Y-8529000D01*
X15112000Y-8499000D02*
X15082000Y-8529000D01*
X15320000Y-6520000D02*
X15350000Y-6550000D01*
X15350000Y-6520000D02*
X15320000Y-6550000D01*
X15405000Y-7065000D02*
X15435000Y-7095000D01*
X15435000Y-7065000D02*
X15405000Y-7095000D01*
X15417500Y-8520000D02*
X15447500Y-8550000D01*
X15447500Y-8520000D02*
X15417500Y-8550000D01*
X15458603Y-8170878D02*
X15488603Y-8200878D01*
X15488603Y-8170878D02*
X15458603Y-8200878D01*
X15525000Y-8295000D02*
X15555000Y-8325000D01*
X15555000Y-8295000D02*
X15525000Y-8325000D01*
X15530000Y-8770000D02*
X15560000Y-8800000D01*
X15560000Y-8770000D02*
X15530000Y-8800000D01*
X15545000Y-7502500D02*
X15575000Y-7532500D01*
X15575000Y-7502500D02*
X15545000Y-7532500D01*
X15548500Y-7667500D02*
X15578500Y-7697500D01*
X15578500Y-7667500D02*
X15548500Y-7697500D01*
X15590000Y-6520000D02*
X15620000Y-6550000D01*
X15620000Y-6520000D02*
X15590000Y-6550000D01*
X15698000Y-8181000D02*
X15728000Y-8211000D01*
X15728000Y-8181000D02*
X15698000Y-8211000D01*
X15700000Y-7755000D02*
X15730000Y-7785000D01*
X15730000Y-7755000D02*
X15700000Y-7785000D01*
X15785000Y-6895000D02*
X15815000Y-6925000D01*
X15815000Y-6895000D02*
X15785000Y-6925000D01*
X15785000Y-7235000D02*
X15815000Y-7265000D01*
X15815000Y-7235000D02*
X15785000Y-7265000D01*
X15785000Y-7555000D02*
X15815000Y-7585000D01*
X15815000Y-7555000D02*
X15785000Y-7585000D01*
X15785000Y-8480000D02*
X15815000Y-8510000D01*
X15815000Y-8480000D02*
X15785000Y-8510000D01*
D13*
X14669000Y-8760000D02*
G75*
G03*
X14669000Y-8760000I-50000J0D01*
G01*
X14923000Y-8760000D02*
G75*
G03*
X14923000Y-8760000I-50000J0D01*
G01*
X15177000Y-8760000D02*
G75*
G03*
X15177000Y-8760000I-50000J0D01*
G01*
X15431000Y-8760000D02*
G75*
G03*
X15431000Y-8760000I-50000J0D01*
G01*
D14*
X15562500Y-7785000D02*
X15562500Y-7875000D01*
X15517500Y-7830000D02*
X15607500Y-7830000D01*
X15562500Y-8085000D02*
X15562500Y-8175000D01*
X15517500Y-8130000D02*
X15607500Y-8130000D01*
D11*
X14420711Y-8720711D02*
X14420711Y-8579289D01*
X14279289Y-8579289D01*
X14279289Y-8720711D01*
X14420711Y-8720711D01*
X15720711Y-8720711D02*
X15720711Y-8579289D01*
X15579289Y-8579289D01*
X15579289Y-8720711D01*
X15720711Y-8720711D01*
X14402619Y-10315476D02*
X14402619Y-10115476D01*
X14450238Y-10115476D01*
X14478810Y-10125000D01*
X14497857Y-10144048D01*
X14507381Y-10163095D01*
X14516905Y-10201190D01*
X14516905Y-10229762D01*
X14507381Y-10267857D01*
X14497857Y-10286905D01*
X14478810Y-10305952D01*
X14450238Y-10315476D01*
X14402619Y-10315476D01*
X14602619Y-10315476D02*
X14602619Y-10182143D01*
X14602619Y-10220238D02*
X14612143Y-10201190D01*
X14621667Y-10191667D01*
X14640714Y-10182143D01*
X14659762Y-10182143D01*
X14726429Y-10315476D02*
X14726429Y-10182143D01*
X14726429Y-10115476D02*
X14716905Y-10125000D01*
X14726429Y-10134524D01*
X14735952Y-10125000D01*
X14726429Y-10115476D01*
X14726429Y-10134524D01*
X14850238Y-10315476D02*
X14831190Y-10305952D01*
X14821667Y-10286905D01*
X14821667Y-10115476D01*
X14955000Y-10315476D02*
X14935952Y-10305952D01*
X14926429Y-10286905D01*
X14926429Y-10115476D01*
X15183571Y-10315476D02*
X15183571Y-10115476D01*
X15250238Y-10258333D01*
X15316905Y-10115476D01*
X15316905Y-10315476D01*
X15497857Y-10315476D02*
X15497857Y-10210714D01*
X15488333Y-10191667D01*
X15469286Y-10182143D01*
X15431190Y-10182143D01*
X15412143Y-10191667D01*
X15497857Y-10305952D02*
X15478810Y-10315476D01*
X15431190Y-10315476D01*
X15412143Y-10305952D01*
X15402619Y-10286905D01*
X15402619Y-10267857D01*
X15412143Y-10248810D01*
X15431190Y-10239286D01*
X15478810Y-10239286D01*
X15497857Y-10229762D01*
X15593095Y-10182143D02*
X15593095Y-10382143D01*
X15593095Y-10191667D02*
X15612143Y-10182143D01*
X15650238Y-10182143D01*
X15669286Y-10191667D01*
X15678810Y-10201190D01*
X15688333Y-10220238D01*
X15688333Y-10277381D01*
X15678810Y-10296429D01*
X15669286Y-10305952D01*
X15650238Y-10315476D01*
X15612143Y-10315476D01*
X15593095Y-10305952D01*
X15774048Y-10296429D02*
X15783571Y-10305952D01*
X15774048Y-10315476D01*
X15764524Y-10305952D01*
X15774048Y-10296429D01*
X15774048Y-10315476D01*
X15774048Y-10191667D02*
X15783571Y-10201190D01*
X15774048Y-10210714D01*
X15764524Y-10201190D01*
X15774048Y-10191667D01*
X15774048Y-10210714D01*
D12*
X14115000Y-10630000D02*
X14145000Y-10660000D01*
X14145000Y-10630000D02*
X14115000Y-10660000D01*
D11*
X14440714Y-10535476D02*
X14459762Y-10535476D01*
X14478810Y-10545000D01*
X14488333Y-10554524D01*
X14497857Y-10573571D01*
X14507381Y-10611667D01*
X14507381Y-10659286D01*
X14497857Y-10697381D01*
X14488333Y-10716429D01*
X14478810Y-10725952D01*
X14459762Y-10735476D01*
X14440714Y-10735476D01*
X14421667Y-10725952D01*
X14412143Y-10716429D01*
X14402619Y-10697381D01*
X14393095Y-10659286D01*
X14393095Y-10611667D01*
X14402619Y-10573571D01*
X14412143Y-10554524D01*
X14421667Y-10545000D01*
X14440714Y-10535476D01*
X14593095Y-10716429D02*
X14602619Y-10725952D01*
X14593095Y-10735476D01*
X14583571Y-10725952D01*
X14593095Y-10716429D01*
X14593095Y-10735476D01*
X14669286Y-10535476D02*
X14793095Y-10535476D01*
X14726429Y-10611667D01*
X14755000Y-10611667D01*
X14774048Y-10621190D01*
X14783571Y-10630714D01*
X14793095Y-10649762D01*
X14793095Y-10697381D01*
X14783571Y-10716429D01*
X14774048Y-10725952D01*
X14755000Y-10735476D01*
X14697857Y-10735476D01*
X14678810Y-10725952D01*
X14669286Y-10716429D01*
X14916905Y-10535476D02*
X14935952Y-10535476D01*
X14955000Y-10545000D01*
X14964524Y-10554524D01*
X14974048Y-10573571D01*
X14983571Y-10611667D01*
X14983571Y-10659286D01*
X14974048Y-10697381D01*
X14964524Y-10716429D01*
X14955000Y-10725952D01*
X14935952Y-10735476D01*
X14916905Y-10735476D01*
X14897857Y-10725952D01*
X14888333Y-10716429D01*
X14878810Y-10697381D01*
X14869286Y-10659286D01*
X14869286Y-10611667D01*
X14878810Y-10573571D01*
X14888333Y-10554524D01*
X14897857Y-10545000D01*
X14916905Y-10535476D01*
X15107381Y-10535476D02*
X15126429Y-10535476D01*
X15145476Y-10545000D01*
X15155000Y-10554524D01*
X15164524Y-10573571D01*
X15174048Y-10611667D01*
X15174048Y-10659286D01*
X15164524Y-10697381D01*
X15155000Y-10716429D01*
X15145476Y-10725952D01*
X15126429Y-10735476D01*
X15107381Y-10735476D01*
X15088333Y-10725952D01*
X15078810Y-10716429D01*
X15069286Y-10697381D01*
X15059762Y-10659286D01*
X15059762Y-10611667D01*
X15069286Y-10573571D01*
X15078810Y-10554524D01*
X15088333Y-10545000D01*
X15107381Y-10535476D01*
X15259762Y-10735476D02*
X15259762Y-10602143D01*
X15259762Y-10621190D02*
X15269286Y-10611667D01*
X15288333Y-10602143D01*
X15316905Y-10602143D01*
X15335952Y-10611667D01*
X15345476Y-10630714D01*
X15345476Y-10735476D01*
X15345476Y-10630714D02*
X15355000Y-10611667D01*
X15374048Y-10602143D01*
X15402619Y-10602143D01*
X15421667Y-10611667D01*
X15431190Y-10630714D01*
X15431190Y-10735476D01*
X15526429Y-10735476D02*
X15526429Y-10602143D01*
X15526429Y-10621190D02*
X15535952Y-10611667D01*
X15555000Y-10602143D01*
X15583571Y-10602143D01*
X15602619Y-10611667D01*
X15612143Y-10630714D01*
X15612143Y-10735476D01*
X15612143Y-10630714D02*
X15621667Y-10611667D01*
X15640714Y-10602143D01*
X15669286Y-10602143D01*
X15688333Y-10611667D01*
X15697857Y-10630714D01*
X15697857Y-10735476D01*
X16088333Y-10525952D02*
X15916905Y-10783095D01*
X16345476Y-10535476D02*
X16364524Y-10535476D01*
X16383571Y-10545000D01*
X16393095Y-10554524D01*
X16402619Y-10573571D01*
X16412143Y-10611667D01*
X16412143Y-10659286D01*
X16402619Y-10697381D01*
X16393095Y-10716429D01*
X16383571Y-10725952D01*
X16364524Y-10735476D01*
X16345476Y-10735476D01*
X16326429Y-10725952D01*
X16316905Y-10716429D01*
X16307381Y-10697381D01*
X16297857Y-10659286D01*
X16297857Y-10611667D01*
X16307381Y-10573571D01*
X16316905Y-10554524D01*
X16326429Y-10545000D01*
X16345476Y-10535476D01*
X16497857Y-10716429D02*
X16507381Y-10725952D01*
X16497857Y-10735476D01*
X16488333Y-10725952D01*
X16497857Y-10716429D01*
X16497857Y-10735476D01*
X16631190Y-10535476D02*
X16650238Y-10535476D01*
X16669286Y-10545000D01*
X16678810Y-10554524D01*
X16688333Y-10573571D01*
X16697857Y-10611667D01*
X16697857Y-10659286D01*
X16688333Y-10697381D01*
X16678810Y-10716429D01*
X16669286Y-10725952D01*
X16650238Y-10735476D01*
X16631190Y-10735476D01*
X16612143Y-10725952D01*
X16602619Y-10716429D01*
X16593095Y-10697381D01*
X16583571Y-10659286D01*
X16583571Y-10611667D01*
X16593095Y-10573571D01*
X16602619Y-10554524D01*
X16612143Y-10545000D01*
X16631190Y-10535476D01*
X16888333Y-10735476D02*
X16774048Y-10735476D01*
X16831190Y-10735476D02*
X16831190Y-10535476D01*
X16812143Y-10564048D01*
X16793095Y-10583095D01*
X16774048Y-10592619D01*
X17078810Y-10735476D02*
X16964524Y-10735476D01*
X17021667Y-10735476D02*
X17021667Y-10535476D01*
X17002619Y-10564048D01*
X16983571Y-10583095D01*
X16964524Y-10592619D01*
X17193095Y-10621190D02*
X17174048Y-10611667D01*
X17164524Y-10602143D01*
X17155000Y-10583095D01*
X17155000Y-10573571D01*
X17164524Y-10554524D01*
X17174048Y-10545000D01*
X17193095Y-10535476D01*
X17231190Y-10535476D01*
X17250238Y-10545000D01*
X17259762Y-10554524D01*
X17269286Y-10573571D01*
X17269286Y-10583095D01*
X17259762Y-10602143D01*
X17250238Y-10611667D01*
X17231190Y-10621190D01*
X17193095Y-10621190D01*
X17174048Y-10630714D01*
X17164524Y-10640238D01*
X17155000Y-10659286D01*
X17155000Y-10697381D01*
X17164524Y-10716429D01*
X17174048Y-10725952D01*
X17193095Y-10735476D01*
X17231190Y-10735476D01*
X17250238Y-10725952D01*
X17259762Y-10716429D01*
X17269286Y-10697381D01*
X17269286Y-10659286D01*
X17259762Y-10640238D01*
X17250238Y-10630714D01*
X17231190Y-10621190D01*
X17345476Y-10535476D02*
X17345476Y-10573571D01*
X17421667Y-10535476D02*
X17421667Y-10573571D01*
X17716905Y-10811667D02*
X17707381Y-10802143D01*
X17688333Y-10773571D01*
X17678810Y-10754524D01*
X17669286Y-10725952D01*
X17659762Y-10678333D01*
X17659762Y-10640238D01*
X17669286Y-10592619D01*
X17678810Y-10564048D01*
X17688333Y-10545000D01*
X17707381Y-10516429D01*
X17716905Y-10506905D01*
X17878810Y-10535476D02*
X17840714Y-10535476D01*
X17821667Y-10545000D01*
X17812143Y-10554524D01*
X17793095Y-10583095D01*
X17783571Y-10621190D01*
X17783571Y-10697381D01*
X17793095Y-10716429D01*
X17802619Y-10725952D01*
X17821667Y-10735476D01*
X17859762Y-10735476D01*
X17878810Y-10725952D01*
X17888333Y-10716429D01*
X17897857Y-10697381D01*
X17897857Y-10649762D01*
X17888333Y-10630714D01*
X17878810Y-10621190D01*
X17859762Y-10611667D01*
X17821667Y-10611667D01*
X17802619Y-10621190D01*
X17793095Y-10630714D01*
X17783571Y-10649762D01*
X17974048Y-10554524D02*
X17983571Y-10545000D01*
X18002619Y-10535476D01*
X18050238Y-10535476D01*
X18069286Y-10545000D01*
X18078810Y-10554524D01*
X18088333Y-10573571D01*
X18088333Y-10592619D01*
X18078810Y-10621190D01*
X17964524Y-10735476D01*
X18088333Y-10735476D01*
X18326429Y-10735476D02*
X18326429Y-10535476D01*
X18412143Y-10735476D02*
X18412143Y-10630714D01*
X18402619Y-10611667D01*
X18383571Y-10602143D01*
X18355000Y-10602143D01*
X18335952Y-10611667D01*
X18326429Y-10621190D01*
X18535952Y-10735476D02*
X18516905Y-10725952D01*
X18507381Y-10716429D01*
X18497857Y-10697381D01*
X18497857Y-10640238D01*
X18507381Y-10621190D01*
X18516905Y-10611667D01*
X18535952Y-10602143D01*
X18564524Y-10602143D01*
X18583571Y-10611667D01*
X18593095Y-10621190D01*
X18602619Y-10640238D01*
X18602619Y-10697381D01*
X18593095Y-10716429D01*
X18583571Y-10725952D01*
X18564524Y-10735476D01*
X18535952Y-10735476D01*
X18716905Y-10735476D02*
X18697857Y-10725952D01*
X18688333Y-10706905D01*
X18688333Y-10535476D01*
X18869286Y-10725952D02*
X18850238Y-10735476D01*
X18812143Y-10735476D01*
X18793095Y-10725952D01*
X18783571Y-10706905D01*
X18783571Y-10630714D01*
X18793095Y-10611667D01*
X18812143Y-10602143D01*
X18850238Y-10602143D01*
X18869286Y-10611667D01*
X18878810Y-10630714D01*
X18878810Y-10649762D01*
X18783571Y-10668810D01*
X18955000Y-10725952D02*
X18974048Y-10735476D01*
X19012143Y-10735476D01*
X19031190Y-10725952D01*
X19040714Y-10706905D01*
X19040714Y-10697381D01*
X19031190Y-10678333D01*
X19012143Y-10668810D01*
X18983571Y-10668810D01*
X18964524Y-10659286D01*
X18955000Y-10640238D01*
X18955000Y-10630714D01*
X18964524Y-10611667D01*
X18983571Y-10602143D01*
X19012143Y-10602143D01*
X19031190Y-10611667D01*
X19107381Y-10811667D02*
X19116905Y-10802143D01*
X19135952Y-10773571D01*
X19145476Y-10754524D01*
X19155000Y-10725952D01*
X19164524Y-10678333D01*
X19164524Y-10640238D01*
X19155000Y-10592619D01*
X19145476Y-10564048D01*
X19135952Y-10545000D01*
X19116905Y-10516429D01*
X19107381Y-10506905D01*
D13*
X14145000Y-10909000D02*
G75*
G03*
X14145000Y-10909000I-50000J0D01*
G01*
D11*
X14507381Y-10999476D02*
X14393095Y-10999476D01*
X14450238Y-10999476D02*
X14450238Y-10799476D01*
X14431190Y-10828048D01*
X14412143Y-10847095D01*
X14393095Y-10856619D01*
X14593095Y-10980429D02*
X14602619Y-10989952D01*
X14593095Y-10999476D01*
X14583571Y-10989952D01*
X14593095Y-10980429D01*
X14593095Y-10999476D01*
X14726429Y-10799476D02*
X14745476Y-10799476D01*
X14764524Y-10809000D01*
X14774048Y-10818524D01*
X14783571Y-10837571D01*
X14793095Y-10875667D01*
X14793095Y-10923286D01*
X14783571Y-10961381D01*
X14774048Y-10980429D01*
X14764524Y-10989952D01*
X14745476Y-10999476D01*
X14726429Y-10999476D01*
X14707381Y-10989952D01*
X14697857Y-10980429D01*
X14688333Y-10961381D01*
X14678810Y-10923286D01*
X14678810Y-10875667D01*
X14688333Y-10837571D01*
X14697857Y-10818524D01*
X14707381Y-10809000D01*
X14726429Y-10799476D01*
X14916905Y-10799476D02*
X14935952Y-10799476D01*
X14955000Y-10809000D01*
X14964524Y-10818524D01*
X14974048Y-10837571D01*
X14983571Y-10875667D01*
X14983571Y-10923286D01*
X14974048Y-10961381D01*
X14964524Y-10980429D01*
X14955000Y-10989952D01*
X14935952Y-10999476D01*
X14916905Y-10999476D01*
X14897857Y-10989952D01*
X14888333Y-10980429D01*
X14878810Y-10961381D01*
X14869286Y-10923286D01*
X14869286Y-10875667D01*
X14878810Y-10837571D01*
X14888333Y-10818524D01*
X14897857Y-10809000D01*
X14916905Y-10799476D01*
X15107381Y-10799476D02*
X15126429Y-10799476D01*
X15145476Y-10809000D01*
X15155000Y-10818524D01*
X15164524Y-10837571D01*
X15174048Y-10875667D01*
X15174048Y-10923286D01*
X15164524Y-10961381D01*
X15155000Y-10980429D01*
X15145476Y-10989952D01*
X15126429Y-10999476D01*
X15107381Y-10999476D01*
X15088333Y-10989952D01*
X15078810Y-10980429D01*
X15069286Y-10961381D01*
X15059762Y-10923286D01*
X15059762Y-10875667D01*
X15069286Y-10837571D01*
X15078810Y-10818524D01*
X15088333Y-10809000D01*
X15107381Y-10799476D01*
X15259762Y-10999476D02*
X15259762Y-10866143D01*
X15259762Y-10885190D02*
X15269286Y-10875667D01*
X15288333Y-10866143D01*
X15316905Y-10866143D01*
X15335952Y-10875667D01*
X15345476Y-10894714D01*
X15345476Y-10999476D01*
X15345476Y-10894714D02*
X15355000Y-10875667D01*
X15374048Y-10866143D01*
X15402619Y-10866143D01*
X15421667Y-10875667D01*
X15431190Y-10894714D01*
X15431190Y-10999476D01*
X15526429Y-10999476D02*
X15526429Y-10866143D01*
X15526429Y-10885190D02*
X15535952Y-10875667D01*
X15555000Y-10866143D01*
X15583571Y-10866143D01*
X15602619Y-10875667D01*
X15612143Y-10894714D01*
X15612143Y-10999476D01*
X15612143Y-10894714D02*
X15621667Y-10875667D01*
X15640714Y-10866143D01*
X15669286Y-10866143D01*
X15688333Y-10875667D01*
X15697857Y-10894714D01*
X15697857Y-10999476D01*
X16088333Y-10789952D02*
X15916905Y-11047095D01*
X16345476Y-10799476D02*
X16364524Y-10799476D01*
X16383571Y-10809000D01*
X16393095Y-10818524D01*
X16402619Y-10837571D01*
X16412143Y-10875667D01*
X16412143Y-10923286D01*
X16402619Y-10961381D01*
X16393095Y-10980429D01*
X16383571Y-10989952D01*
X16364524Y-10999476D01*
X16345476Y-10999476D01*
X16326429Y-10989952D01*
X16316905Y-10980429D01*
X16307381Y-10961381D01*
X16297857Y-10923286D01*
X16297857Y-10875667D01*
X16307381Y-10837571D01*
X16316905Y-10818524D01*
X16326429Y-10809000D01*
X16345476Y-10799476D01*
X16497857Y-10980429D02*
X16507381Y-10989952D01*
X16497857Y-10999476D01*
X16488333Y-10989952D01*
X16497857Y-10980429D01*
X16497857Y-10999476D01*
X16631190Y-10799476D02*
X16650238Y-10799476D01*
X16669286Y-10809000D01*
X16678810Y-10818524D01*
X16688333Y-10837571D01*
X16697857Y-10875667D01*
X16697857Y-10923286D01*
X16688333Y-10961381D01*
X16678810Y-10980429D01*
X16669286Y-10989952D01*
X16650238Y-10999476D01*
X16631190Y-10999476D01*
X16612143Y-10989952D01*
X16602619Y-10980429D01*
X16593095Y-10961381D01*
X16583571Y-10923286D01*
X16583571Y-10875667D01*
X16593095Y-10837571D01*
X16602619Y-10818524D01*
X16612143Y-10809000D01*
X16631190Y-10799476D01*
X16764524Y-10799476D02*
X16888333Y-10799476D01*
X16821667Y-10875667D01*
X16850238Y-10875667D01*
X16869286Y-10885190D01*
X16878810Y-10894714D01*
X16888333Y-10913762D01*
X16888333Y-10961381D01*
X16878810Y-10980429D01*
X16869286Y-10989952D01*
X16850238Y-10999476D01*
X16793095Y-10999476D01*
X16774048Y-10989952D01*
X16764524Y-10980429D01*
X16983571Y-10999476D02*
X17021667Y-10999476D01*
X17040714Y-10989952D01*
X17050238Y-10980429D01*
X17069286Y-10951857D01*
X17078810Y-10913762D01*
X17078810Y-10837571D01*
X17069286Y-10818524D01*
X17059762Y-10809000D01*
X17040714Y-10799476D01*
X17002619Y-10799476D01*
X16983571Y-10809000D01*
X16974048Y-10818524D01*
X16964524Y-10837571D01*
X16964524Y-10885190D01*
X16974048Y-10904238D01*
X16983571Y-10913762D01*
X17002619Y-10923286D01*
X17040714Y-10923286D01*
X17059762Y-10913762D01*
X17069286Y-10904238D01*
X17078810Y-10885190D01*
X17250238Y-10866143D02*
X17250238Y-10999476D01*
X17202619Y-10789952D02*
X17155000Y-10932810D01*
X17278810Y-10932810D01*
X17345476Y-10799476D02*
X17345476Y-10837571D01*
X17421667Y-10799476D02*
X17421667Y-10837571D01*
X17716905Y-11075667D02*
X17707381Y-11066143D01*
X17688333Y-11037571D01*
X17678810Y-11018524D01*
X17669286Y-10989952D01*
X17659762Y-10942333D01*
X17659762Y-10904238D01*
X17669286Y-10856619D01*
X17678810Y-10828048D01*
X17688333Y-10809000D01*
X17707381Y-10780429D01*
X17716905Y-10770905D01*
X17878810Y-10866143D02*
X17878810Y-10999476D01*
X17831190Y-10789952D02*
X17783571Y-10932810D01*
X17907381Y-10932810D01*
X18135952Y-10999476D02*
X18135952Y-10799476D01*
X18221667Y-10999476D02*
X18221667Y-10894714D01*
X18212143Y-10875667D01*
X18193095Y-10866143D01*
X18164524Y-10866143D01*
X18145476Y-10875667D01*
X18135952Y-10885190D01*
X18345476Y-10999476D02*
X18326429Y-10989952D01*
X18316905Y-10980429D01*
X18307381Y-10961381D01*
X18307381Y-10904238D01*
X18316905Y-10885190D01*
X18326429Y-10875667D01*
X18345476Y-10866143D01*
X18374048Y-10866143D01*
X18393095Y-10875667D01*
X18402619Y-10885190D01*
X18412143Y-10904238D01*
X18412143Y-10961381D01*
X18402619Y-10980429D01*
X18393095Y-10989952D01*
X18374048Y-10999476D01*
X18345476Y-10999476D01*
X18526429Y-10999476D02*
X18507381Y-10989952D01*
X18497857Y-10970905D01*
X18497857Y-10799476D01*
X18678810Y-10989952D02*
X18659762Y-10999476D01*
X18621667Y-10999476D01*
X18602619Y-10989952D01*
X18593095Y-10970905D01*
X18593095Y-10894714D01*
X18602619Y-10875667D01*
X18621667Y-10866143D01*
X18659762Y-10866143D01*
X18678810Y-10875667D01*
X18688333Y-10894714D01*
X18688333Y-10913762D01*
X18593095Y-10932810D01*
X18764524Y-10989952D02*
X18783571Y-10999476D01*
X18821667Y-10999476D01*
X18840714Y-10989952D01*
X18850238Y-10970905D01*
X18850238Y-10961381D01*
X18840714Y-10942333D01*
X18821667Y-10932810D01*
X18793095Y-10932810D01*
X18774048Y-10923286D01*
X18764524Y-10904238D01*
X18764524Y-10894714D01*
X18774048Y-10875667D01*
X18793095Y-10866143D01*
X18821667Y-10866143D01*
X18840714Y-10875667D01*
X18916905Y-11075667D02*
X18926429Y-11066143D01*
X18945476Y-11037571D01*
X18955000Y-11018524D01*
X18964524Y-10989952D01*
X18974048Y-10942333D01*
X18974048Y-10904238D01*
X18964524Y-10856619D01*
X18955000Y-10828048D01*
X18945476Y-10809000D01*
X18926429Y-10780429D01*
X18916905Y-10770905D01*
D14*
X14100000Y-11128000D02*
X14100000Y-11218000D01*
X14055000Y-11173000D02*
X14145000Y-11173000D01*
D11*
X14440714Y-11063476D02*
X14459762Y-11063476D01*
X14478810Y-11073000D01*
X14488333Y-11082524D01*
X14497857Y-11101571D01*
X14507381Y-11139667D01*
X14507381Y-11187286D01*
X14497857Y-11225381D01*
X14488333Y-11244429D01*
X14478810Y-11253952D01*
X14459762Y-11263476D01*
X14440714Y-11263476D01*
X14421667Y-11253952D01*
X14412143Y-11244429D01*
X14402619Y-11225381D01*
X14393095Y-11187286D01*
X14393095Y-11139667D01*
X14402619Y-11101571D01*
X14412143Y-11082524D01*
X14421667Y-11073000D01*
X14440714Y-11063476D01*
X14593095Y-11244429D02*
X14602619Y-11253952D01*
X14593095Y-11263476D01*
X14583571Y-11253952D01*
X14593095Y-11244429D01*
X14593095Y-11263476D01*
X14697857Y-11263476D02*
X14735952Y-11263476D01*
X14755000Y-11253952D01*
X14764524Y-11244429D01*
X14783571Y-11215857D01*
X14793095Y-11177762D01*
X14793095Y-11101571D01*
X14783571Y-11082524D01*
X14774048Y-11073000D01*
X14755000Y-11063476D01*
X14716905Y-11063476D01*
X14697857Y-11073000D01*
X14688333Y-11082524D01*
X14678810Y-11101571D01*
X14678810Y-11149190D01*
X14688333Y-11168238D01*
X14697857Y-11177762D01*
X14716905Y-11187286D01*
X14755000Y-11187286D01*
X14774048Y-11177762D01*
X14783571Y-11168238D01*
X14793095Y-11149190D01*
X14916905Y-11063476D02*
X14935952Y-11063476D01*
X14955000Y-11073000D01*
X14964524Y-11082524D01*
X14974048Y-11101571D01*
X14983571Y-11139667D01*
X14983571Y-11187286D01*
X14974048Y-11225381D01*
X14964524Y-11244429D01*
X14955000Y-11253952D01*
X14935952Y-11263476D01*
X14916905Y-11263476D01*
X14897857Y-11253952D01*
X14888333Y-11244429D01*
X14878810Y-11225381D01*
X14869286Y-11187286D01*
X14869286Y-11139667D01*
X14878810Y-11101571D01*
X14888333Y-11082524D01*
X14897857Y-11073000D01*
X14916905Y-11063476D01*
X15107381Y-11063476D02*
X15126429Y-11063476D01*
X15145476Y-11073000D01*
X15155000Y-11082524D01*
X15164524Y-11101571D01*
X15174048Y-11139667D01*
X15174048Y-11187286D01*
X15164524Y-11225381D01*
X15155000Y-11244429D01*
X15145476Y-11253952D01*
X15126429Y-11263476D01*
X15107381Y-11263476D01*
X15088333Y-11253952D01*
X15078810Y-11244429D01*
X15069286Y-11225381D01*
X15059762Y-11187286D01*
X15059762Y-11139667D01*
X15069286Y-11101571D01*
X15078810Y-11082524D01*
X15088333Y-11073000D01*
X15107381Y-11063476D01*
X15259762Y-11263476D02*
X15259762Y-11130143D01*
X15259762Y-11149190D02*
X15269286Y-11139667D01*
X15288333Y-11130143D01*
X15316905Y-11130143D01*
X15335952Y-11139667D01*
X15345476Y-11158714D01*
X15345476Y-11263476D01*
X15345476Y-11158714D02*
X15355000Y-11139667D01*
X15374048Y-11130143D01*
X15402619Y-11130143D01*
X15421667Y-11139667D01*
X15431190Y-11158714D01*
X15431190Y-11263476D01*
X15526429Y-11263476D02*
X15526429Y-11130143D01*
X15526429Y-11149190D02*
X15535952Y-11139667D01*
X15555000Y-11130143D01*
X15583571Y-11130143D01*
X15602619Y-11139667D01*
X15612143Y-11158714D01*
X15612143Y-11263476D01*
X15612143Y-11158714D02*
X15621667Y-11139667D01*
X15640714Y-11130143D01*
X15669286Y-11130143D01*
X15688333Y-11139667D01*
X15697857Y-11158714D01*
X15697857Y-11263476D01*
X16088333Y-11053952D02*
X15916905Y-11311095D01*
X16345476Y-11063476D02*
X16364524Y-11063476D01*
X16383571Y-11073000D01*
X16393095Y-11082524D01*
X16402619Y-11101571D01*
X16412143Y-11139667D01*
X16412143Y-11187286D01*
X16402619Y-11225381D01*
X16393095Y-11244429D01*
X16383571Y-11253952D01*
X16364524Y-11263476D01*
X16345476Y-11263476D01*
X16326429Y-11253952D01*
X16316905Y-11244429D01*
X16307381Y-11225381D01*
X16297857Y-11187286D01*
X16297857Y-11139667D01*
X16307381Y-11101571D01*
X16316905Y-11082524D01*
X16326429Y-11073000D01*
X16345476Y-11063476D01*
X16497857Y-11244429D02*
X16507381Y-11253952D01*
X16497857Y-11263476D01*
X16488333Y-11253952D01*
X16497857Y-11244429D01*
X16497857Y-11263476D01*
X16631190Y-11063476D02*
X16650238Y-11063476D01*
X16669286Y-11073000D01*
X16678810Y-11082524D01*
X16688333Y-11101571D01*
X16697857Y-11139667D01*
X16697857Y-11187286D01*
X16688333Y-11225381D01*
X16678810Y-11244429D01*
X16669286Y-11253952D01*
X16650238Y-11263476D01*
X16631190Y-11263476D01*
X16612143Y-11253952D01*
X16602619Y-11244429D01*
X16593095Y-11225381D01*
X16583571Y-11187286D01*
X16583571Y-11139667D01*
X16593095Y-11101571D01*
X16602619Y-11082524D01*
X16612143Y-11073000D01*
X16631190Y-11063476D01*
X16764524Y-11063476D02*
X16888333Y-11063476D01*
X16821667Y-11139667D01*
X16850238Y-11139667D01*
X16869286Y-11149190D01*
X16878810Y-11158714D01*
X16888333Y-11177762D01*
X16888333Y-11225381D01*
X16878810Y-11244429D01*
X16869286Y-11253952D01*
X16850238Y-11263476D01*
X16793095Y-11263476D01*
X16774048Y-11253952D01*
X16764524Y-11244429D01*
X17069286Y-11063476D02*
X16974048Y-11063476D01*
X16964524Y-11158714D01*
X16974048Y-11149190D01*
X16993095Y-11139667D01*
X17040714Y-11139667D01*
X17059762Y-11149190D01*
X17069286Y-11158714D01*
X17078810Y-11177762D01*
X17078810Y-11225381D01*
X17069286Y-11244429D01*
X17059762Y-11253952D01*
X17040714Y-11263476D01*
X16993095Y-11263476D01*
X16974048Y-11253952D01*
X16964524Y-11244429D01*
X17250238Y-11130143D02*
X17250238Y-11263476D01*
X17202619Y-11053952D02*
X17155000Y-11196810D01*
X17278810Y-11196810D01*
X17345476Y-11063476D02*
X17345476Y-11101571D01*
X17421667Y-11063476D02*
X17421667Y-11101571D01*
X17716905Y-11339667D02*
X17707381Y-11330143D01*
X17688333Y-11301571D01*
X17678810Y-11282524D01*
X17669286Y-11253952D01*
X17659762Y-11206333D01*
X17659762Y-11168238D01*
X17669286Y-11120619D01*
X17678810Y-11092048D01*
X17688333Y-11073000D01*
X17707381Y-11044429D01*
X17716905Y-11034905D01*
X17783571Y-11082524D02*
X17793095Y-11073000D01*
X17812143Y-11063476D01*
X17859762Y-11063476D01*
X17878810Y-11073000D01*
X17888333Y-11082524D01*
X17897857Y-11101571D01*
X17897857Y-11120619D01*
X17888333Y-11149190D01*
X17774048Y-11263476D01*
X17897857Y-11263476D01*
X18135952Y-11263476D02*
X18135952Y-11063476D01*
X18221667Y-11263476D02*
X18221667Y-11158714D01*
X18212143Y-11139667D01*
X18193095Y-11130143D01*
X18164524Y-11130143D01*
X18145476Y-11139667D01*
X18135952Y-11149190D01*
X18345476Y-11263476D02*
X18326429Y-11253952D01*
X18316905Y-11244429D01*
X18307381Y-11225381D01*
X18307381Y-11168238D01*
X18316905Y-11149190D01*
X18326429Y-11139667D01*
X18345476Y-11130143D01*
X18374048Y-11130143D01*
X18393095Y-11139667D01*
X18402619Y-11149190D01*
X18412143Y-11168238D01*
X18412143Y-11225381D01*
X18402619Y-11244429D01*
X18393095Y-11253952D01*
X18374048Y-11263476D01*
X18345476Y-11263476D01*
X18526429Y-11263476D02*
X18507381Y-11253952D01*
X18497857Y-11234905D01*
X18497857Y-11063476D01*
X18678810Y-11253952D02*
X18659762Y-11263476D01*
X18621667Y-11263476D01*
X18602619Y-11253952D01*
X18593095Y-11234905D01*
X18593095Y-11158714D01*
X18602619Y-11139667D01*
X18621667Y-11130143D01*
X18659762Y-11130143D01*
X18678810Y-11139667D01*
X18688333Y-11158714D01*
X18688333Y-11177762D01*
X18593095Y-11196810D01*
X18764524Y-11253952D02*
X18783571Y-11263476D01*
X18821667Y-11263476D01*
X18840714Y-11253952D01*
X18850238Y-11234905D01*
X18850238Y-11225381D01*
X18840714Y-11206333D01*
X18821667Y-11196810D01*
X18793095Y-11196810D01*
X18774048Y-11187286D01*
X18764524Y-11168238D01*
X18764524Y-11158714D01*
X18774048Y-11139667D01*
X18793095Y-11130143D01*
X18821667Y-11130143D01*
X18840714Y-11139667D01*
X18916905Y-11339667D02*
X18926429Y-11330143D01*
X18945476Y-11301571D01*
X18955000Y-11282524D01*
X18964524Y-11253952D01*
X18974048Y-11206333D01*
X18974048Y-11168238D01*
X18964524Y-11120619D01*
X18955000Y-11092048D01*
X18945476Y-11073000D01*
X18926429Y-11044429D01*
X18916905Y-11034905D01*
X19278810Y-11339667D02*
X19269286Y-11330143D01*
X19250238Y-11301571D01*
X19240714Y-11282524D01*
X19231190Y-11253952D01*
X19221667Y-11206333D01*
X19221667Y-11168238D01*
X19231190Y-11120619D01*
X19240714Y-11092048D01*
X19250238Y-11073000D01*
X19269286Y-11044429D01*
X19278810Y-11034905D01*
X19355000Y-11130143D02*
X19355000Y-11263476D01*
X19355000Y-11149190D02*
X19364524Y-11139667D01*
X19383571Y-11130143D01*
X19412143Y-11130143D01*
X19431190Y-11139667D01*
X19440714Y-11158714D01*
X19440714Y-11263476D01*
X19564524Y-11263476D02*
X19545476Y-11253952D01*
X19535952Y-11244429D01*
X19526429Y-11225381D01*
X19526429Y-11168238D01*
X19535952Y-11149190D01*
X19545476Y-11139667D01*
X19564524Y-11130143D01*
X19593095Y-11130143D01*
X19612143Y-11139667D01*
X19621667Y-11149190D01*
X19631190Y-11168238D01*
X19631190Y-11225381D01*
X19621667Y-11244429D01*
X19612143Y-11253952D01*
X19593095Y-11263476D01*
X19564524Y-11263476D01*
X19688333Y-11130143D02*
X19764524Y-11130143D01*
X19716905Y-11063476D02*
X19716905Y-11234905D01*
X19726429Y-11253952D01*
X19745476Y-11263476D01*
X19764524Y-11263476D01*
X19983571Y-11130143D02*
X19983571Y-11330143D01*
X19983571Y-11139667D02*
X20002619Y-11130143D01*
X20040714Y-11130143D01*
X20059762Y-11139667D01*
X20069286Y-11149190D01*
X20078810Y-11168238D01*
X20078810Y-11225381D01*
X20069286Y-11244429D01*
X20059762Y-11253952D01*
X20040714Y-11263476D01*
X20002619Y-11263476D01*
X19983571Y-11253952D01*
X20193095Y-11263476D02*
X20174048Y-11253952D01*
X20164524Y-11234905D01*
X20164524Y-11063476D01*
X20355000Y-11263476D02*
X20355000Y-11158714D01*
X20345476Y-11139667D01*
X20326429Y-11130143D01*
X20288333Y-11130143D01*
X20269286Y-11139667D01*
X20355000Y-11253952D02*
X20335952Y-11263476D01*
X20288333Y-11263476D01*
X20269286Y-11253952D01*
X20259762Y-11234905D01*
X20259762Y-11215857D01*
X20269286Y-11196810D01*
X20288333Y-11187286D01*
X20335952Y-11187286D01*
X20355000Y-11177762D01*
X20421667Y-11130143D02*
X20497857Y-11130143D01*
X20450238Y-11063476D02*
X20450238Y-11234905D01*
X20459762Y-11253952D01*
X20478810Y-11263476D01*
X20497857Y-11263476D01*
X20640714Y-11253952D02*
X20621667Y-11263476D01*
X20583571Y-11263476D01*
X20564524Y-11253952D01*
X20555000Y-11234905D01*
X20555000Y-11158714D01*
X20564524Y-11139667D01*
X20583571Y-11130143D01*
X20621667Y-11130143D01*
X20640714Y-11139667D01*
X20650238Y-11158714D01*
X20650238Y-11177762D01*
X20555000Y-11196810D01*
X20821667Y-11263476D02*
X20821667Y-11063476D01*
X20821667Y-11253952D02*
X20802619Y-11263476D01*
X20764524Y-11263476D01*
X20745476Y-11253952D01*
X20735952Y-11244429D01*
X20726429Y-11225381D01*
X20726429Y-11168238D01*
X20735952Y-11149190D01*
X20745476Y-11139667D01*
X20764524Y-11130143D01*
X20802619Y-11130143D01*
X20821667Y-11139667D01*
X20897857Y-11339667D02*
X20907381Y-11330143D01*
X20926429Y-11301571D01*
X20935952Y-11282524D01*
X20945476Y-11253952D01*
X20955000Y-11206333D01*
X20955000Y-11168238D01*
X20945476Y-11120619D01*
X20935952Y-11092048D01*
X20926429Y-11073000D01*
X20907381Y-11044429D01*
X20897857Y-11034905D01*
X14115711Y-11507711D02*
X14115711Y-11366289D01*
X13974289Y-11366289D01*
X13974289Y-11507711D01*
X14115711Y-11507711D01*
X14393095Y-11346524D02*
X14402619Y-11337000D01*
X14421667Y-11327476D01*
X14469286Y-11327476D01*
X14488333Y-11337000D01*
X14497857Y-11346524D01*
X14507381Y-11365571D01*
X14507381Y-11384619D01*
X14497857Y-11413190D01*
X14383571Y-11527476D01*
X14507381Y-11527476D01*
X14593095Y-11508429D02*
X14602619Y-11517952D01*
X14593095Y-11527476D01*
X14583571Y-11517952D01*
X14593095Y-11508429D01*
X14593095Y-11527476D01*
X14726429Y-11327476D02*
X14745476Y-11327476D01*
X14764524Y-11337000D01*
X14774048Y-11346524D01*
X14783571Y-11365571D01*
X14793095Y-11403667D01*
X14793095Y-11451286D01*
X14783571Y-11489381D01*
X14774048Y-11508429D01*
X14764524Y-11517952D01*
X14745476Y-11527476D01*
X14726429Y-11527476D01*
X14707381Y-11517952D01*
X14697857Y-11508429D01*
X14688333Y-11489381D01*
X14678810Y-11451286D01*
X14678810Y-11403667D01*
X14688333Y-11365571D01*
X14697857Y-11346524D01*
X14707381Y-11337000D01*
X14726429Y-11327476D01*
X14916905Y-11327476D02*
X14935952Y-11327476D01*
X14955000Y-11337000D01*
X14964524Y-11346524D01*
X14974048Y-11365571D01*
X14983571Y-11403667D01*
X14983571Y-11451286D01*
X14974048Y-11489381D01*
X14964524Y-11508429D01*
X14955000Y-11517952D01*
X14935952Y-11527476D01*
X14916905Y-11527476D01*
X14897857Y-11517952D01*
X14888333Y-11508429D01*
X14878810Y-11489381D01*
X14869286Y-11451286D01*
X14869286Y-11403667D01*
X14878810Y-11365571D01*
X14888333Y-11346524D01*
X14897857Y-11337000D01*
X14916905Y-11327476D01*
X15107381Y-11327476D02*
X15126429Y-11327476D01*
X15145476Y-11337000D01*
X15155000Y-11346524D01*
X15164524Y-11365571D01*
X15174048Y-11403667D01*
X15174048Y-11451286D01*
X15164524Y-11489381D01*
X15155000Y-11508429D01*
X15145476Y-11517952D01*
X15126429Y-11527476D01*
X15107381Y-11527476D01*
X15088333Y-11517952D01*
X15078810Y-11508429D01*
X15069286Y-11489381D01*
X15059762Y-11451286D01*
X15059762Y-11403667D01*
X15069286Y-11365571D01*
X15078810Y-11346524D01*
X15088333Y-11337000D01*
X15107381Y-11327476D01*
X15259762Y-11527476D02*
X15259762Y-11394143D01*
X15259762Y-11413190D02*
X15269286Y-11403667D01*
X15288333Y-11394143D01*
X15316905Y-11394143D01*
X15335952Y-11403667D01*
X15345476Y-11422714D01*
X15345476Y-11527476D01*
X15345476Y-11422714D02*
X15355000Y-11403667D01*
X15374048Y-11394143D01*
X15402619Y-11394143D01*
X15421667Y-11403667D01*
X15431190Y-11422714D01*
X15431190Y-11527476D01*
X15526429Y-11527476D02*
X15526429Y-11394143D01*
X15526429Y-11413190D02*
X15535952Y-11403667D01*
X15555000Y-11394143D01*
X15583571Y-11394143D01*
X15602619Y-11403667D01*
X15612143Y-11422714D01*
X15612143Y-11527476D01*
X15612143Y-11422714D02*
X15621667Y-11403667D01*
X15640714Y-11394143D01*
X15669286Y-11394143D01*
X15688333Y-11403667D01*
X15697857Y-11422714D01*
X15697857Y-11527476D01*
X16088333Y-11317952D02*
X15916905Y-11575095D01*
X16345476Y-11327476D02*
X16364524Y-11327476D01*
X16383571Y-11337000D01*
X16393095Y-11346524D01*
X16402619Y-11365571D01*
X16412143Y-11403667D01*
X16412143Y-11451286D01*
X16402619Y-11489381D01*
X16393095Y-11508429D01*
X16383571Y-11517952D01*
X16364524Y-11527476D01*
X16345476Y-11527476D01*
X16326429Y-11517952D01*
X16316905Y-11508429D01*
X16307381Y-11489381D01*
X16297857Y-11451286D01*
X16297857Y-11403667D01*
X16307381Y-11365571D01*
X16316905Y-11346524D01*
X16326429Y-11337000D01*
X16345476Y-11327476D01*
X16497857Y-11508429D02*
X16507381Y-11517952D01*
X16497857Y-11527476D01*
X16488333Y-11517952D01*
X16497857Y-11508429D01*
X16497857Y-11527476D01*
X16631190Y-11327476D02*
X16650238Y-11327476D01*
X16669286Y-11337000D01*
X16678810Y-11346524D01*
X16688333Y-11365571D01*
X16697857Y-11403667D01*
X16697857Y-11451286D01*
X16688333Y-11489381D01*
X16678810Y-11508429D01*
X16669286Y-11517952D01*
X16650238Y-11527476D01*
X16631190Y-11527476D01*
X16612143Y-11517952D01*
X16602619Y-11508429D01*
X16593095Y-11489381D01*
X16583571Y-11451286D01*
X16583571Y-11403667D01*
X16593095Y-11365571D01*
X16602619Y-11346524D01*
X16612143Y-11337000D01*
X16631190Y-11327476D01*
X16764524Y-11327476D02*
X16897857Y-11327476D01*
X16812143Y-11527476D01*
X17002619Y-11413190D02*
X16983571Y-11403667D01*
X16974048Y-11394143D01*
X16964524Y-11375095D01*
X16964524Y-11365571D01*
X16974048Y-11346524D01*
X16983571Y-11337000D01*
X17002619Y-11327476D01*
X17040714Y-11327476D01*
X17059762Y-11337000D01*
X17069286Y-11346524D01*
X17078810Y-11365571D01*
X17078810Y-11375095D01*
X17069286Y-11394143D01*
X17059762Y-11403667D01*
X17040714Y-11413190D01*
X17002619Y-11413190D01*
X16983571Y-11422714D01*
X16974048Y-11432238D01*
X16964524Y-11451286D01*
X16964524Y-11489381D01*
X16974048Y-11508429D01*
X16983571Y-11517952D01*
X17002619Y-11527476D01*
X17040714Y-11527476D01*
X17059762Y-11517952D01*
X17069286Y-11508429D01*
X17078810Y-11489381D01*
X17078810Y-11451286D01*
X17069286Y-11432238D01*
X17059762Y-11422714D01*
X17040714Y-11413190D01*
X17145476Y-11327476D02*
X17278810Y-11327476D01*
X17193095Y-11527476D01*
X17345476Y-11327476D02*
X17345476Y-11365571D01*
X17421667Y-11327476D02*
X17421667Y-11365571D01*
X17716905Y-11603667D02*
X17707381Y-11594143D01*
X17688333Y-11565571D01*
X17678810Y-11546524D01*
X17669286Y-11517952D01*
X17659762Y-11470333D01*
X17659762Y-11432238D01*
X17669286Y-11384619D01*
X17678810Y-11356048D01*
X17688333Y-11337000D01*
X17707381Y-11308429D01*
X17716905Y-11298905D01*
X17783571Y-11346524D02*
X17793095Y-11337000D01*
X17812143Y-11327476D01*
X17859762Y-11327476D01*
X17878810Y-11337000D01*
X17888333Y-11346524D01*
X17897857Y-11365571D01*
X17897857Y-11384619D01*
X17888333Y-11413190D01*
X17774048Y-11527476D01*
X17897857Y-11527476D01*
X18135952Y-11527476D02*
X18135952Y-11327476D01*
X18221667Y-11527476D02*
X18221667Y-11422714D01*
X18212143Y-11403667D01*
X18193095Y-11394143D01*
X18164524Y-11394143D01*
X18145476Y-11403667D01*
X18135952Y-11413190D01*
X18345476Y-11527476D02*
X18326429Y-11517952D01*
X18316905Y-11508429D01*
X18307381Y-11489381D01*
X18307381Y-11432238D01*
X18316905Y-11413190D01*
X18326429Y-11403667D01*
X18345476Y-11394143D01*
X18374048Y-11394143D01*
X18393095Y-11403667D01*
X18402619Y-11413190D01*
X18412143Y-11432238D01*
X18412143Y-11489381D01*
X18402619Y-11508429D01*
X18393095Y-11517952D01*
X18374048Y-11527476D01*
X18345476Y-11527476D01*
X18526429Y-11527476D02*
X18507381Y-11517952D01*
X18497857Y-11498905D01*
X18497857Y-11327476D01*
X18678810Y-11517952D02*
X18659762Y-11527476D01*
X18621667Y-11527476D01*
X18602619Y-11517952D01*
X18593095Y-11498905D01*
X18593095Y-11422714D01*
X18602619Y-11403667D01*
X18621667Y-11394143D01*
X18659762Y-11394143D01*
X18678810Y-11403667D01*
X18688333Y-11422714D01*
X18688333Y-11441762D01*
X18593095Y-11460810D01*
X18764524Y-11517952D02*
X18783571Y-11527476D01*
X18821667Y-11527476D01*
X18840714Y-11517952D01*
X18850238Y-11498905D01*
X18850238Y-11489381D01*
X18840714Y-11470333D01*
X18821667Y-11460810D01*
X18793095Y-11460810D01*
X18774048Y-11451286D01*
X18764524Y-11432238D01*
X18764524Y-11422714D01*
X18774048Y-11403667D01*
X18793095Y-11394143D01*
X18821667Y-11394143D01*
X18840714Y-11403667D01*
X18916905Y-11603667D02*
X18926429Y-11594143D01*
X18945476Y-11565571D01*
X18955000Y-11546524D01*
X18964524Y-11517952D01*
X18974048Y-11470333D01*
X18974048Y-11432238D01*
X18964524Y-11384619D01*
X18955000Y-11356048D01*
X18945476Y-11337000D01*
X18926429Y-11308429D01*
X18916905Y-11298905D01*
X19278810Y-11603667D02*
X19269286Y-11594143D01*
X19250238Y-11565571D01*
X19240714Y-11546524D01*
X19231190Y-11517952D01*
X19221667Y-11470333D01*
X19221667Y-11432238D01*
X19231190Y-11384619D01*
X19240714Y-11356048D01*
X19250238Y-11337000D01*
X19269286Y-11308429D01*
X19278810Y-11298905D01*
X19355000Y-11394143D02*
X19355000Y-11527476D01*
X19355000Y-11413190D02*
X19364524Y-11403667D01*
X19383571Y-11394143D01*
X19412143Y-11394143D01*
X19431190Y-11403667D01*
X19440714Y-11422714D01*
X19440714Y-11527476D01*
X19564524Y-11527476D02*
X19545476Y-11517952D01*
X19535952Y-11508429D01*
X19526429Y-11489381D01*
X19526429Y-11432238D01*
X19535952Y-11413190D01*
X19545476Y-11403667D01*
X19564524Y-11394143D01*
X19593095Y-11394143D01*
X19612143Y-11403667D01*
X19621667Y-11413190D01*
X19631190Y-11432238D01*
X19631190Y-11489381D01*
X19621667Y-11508429D01*
X19612143Y-11517952D01*
X19593095Y-11527476D01*
X19564524Y-11527476D01*
X19688333Y-11394143D02*
X19764524Y-11394143D01*
X19716905Y-11327476D02*
X19716905Y-11498905D01*
X19726429Y-11517952D01*
X19745476Y-11527476D01*
X19764524Y-11527476D01*
X19983571Y-11394143D02*
X19983571Y-11594143D01*
X19983571Y-11403667D02*
X20002619Y-11394143D01*
X20040714Y-11394143D01*
X20059762Y-11403667D01*
X20069286Y-11413190D01*
X20078810Y-11432238D01*
X20078810Y-11489381D01*
X20069286Y-11508429D01*
X20059762Y-11517952D01*
X20040714Y-11527476D01*
X20002619Y-11527476D01*
X19983571Y-11517952D01*
X20193095Y-11527476D02*
X20174048Y-11517952D01*
X20164524Y-11498905D01*
X20164524Y-11327476D01*
X20355000Y-11527476D02*
X20355000Y-11422714D01*
X20345476Y-11403667D01*
X20326429Y-11394143D01*
X20288333Y-11394143D01*
X20269286Y-11403667D01*
X20355000Y-11517952D02*
X20335952Y-11527476D01*
X20288333Y-11527476D01*
X20269286Y-11517952D01*
X20259762Y-11498905D01*
X20259762Y-11479857D01*
X20269286Y-11460810D01*
X20288333Y-11451286D01*
X20335952Y-11451286D01*
X20355000Y-11441762D01*
X20421667Y-11394143D02*
X20497857Y-11394143D01*
X20450238Y-11327476D02*
X20450238Y-11498905D01*
X20459762Y-11517952D01*
X20478810Y-11527476D01*
X20497857Y-11527476D01*
X20640714Y-11517952D02*
X20621667Y-11527476D01*
X20583571Y-11527476D01*
X20564524Y-11517952D01*
X20555000Y-11498905D01*
X20555000Y-11422714D01*
X20564524Y-11403667D01*
X20583571Y-11394143D01*
X20621667Y-11394143D01*
X20640714Y-11403667D01*
X20650238Y-11422714D01*
X20650238Y-11441762D01*
X20555000Y-11460810D01*
X20821667Y-11527476D02*
X20821667Y-11327476D01*
X20821667Y-11517952D02*
X20802619Y-11527476D01*
X20764524Y-11527476D01*
X20745476Y-11517952D01*
X20735952Y-11508429D01*
X20726429Y-11489381D01*
X20726429Y-11432238D01*
X20735952Y-11413190D01*
X20745476Y-11403667D01*
X20764524Y-11394143D01*
X20802619Y-11394143D01*
X20821667Y-11403667D01*
X20897857Y-11603667D02*
X20907381Y-11594143D01*
X20926429Y-11565571D01*
X20935952Y-11546524D01*
X20945476Y-11517952D01*
X20955000Y-11470333D01*
X20955000Y-11432238D01*
X20945476Y-11384619D01*
X20935952Y-11356048D01*
X20926429Y-11337000D01*
X20907381Y-11308429D01*
X20897857Y-11298905D01*
M02*
